<?xml version="1.0" encoding="UTF-8"?>
<!DOCTYPE svg PUBLIC "-//W3C//DTD SVG 1.1//EN" "http://www.w3.org/Graphics/SVG/1.1/DTD/svg11.dtd">
<!-- Creator: CorelDRAW (Evaluation Version) -->
<svg xmlns="http://www.w3.org/2000/svg" xml:space="preserve" width="0.545in" height="2.24209in" version="1.1" style="shape-rendering:geometricPrecision; text-rendering:geometricPrecision; image-rendering:optimizeQuality; fill-rule:evenodd; clip-rule:evenodd"
viewBox="0 0 50.03 205.81"
 xmlns:xlink="http://www.w3.org/1999/xlink"
 xmlns:xodm="http://www.corel.com/coreldraw/odm/2003">
 <defs>
  <style type="text/css">
   <![CDATA[
    .fil0 {fill:#95AB95}
   ]]>
  </style>
 </defs>
 <g id="Layer_x0020_1">
  <metadata id="CorelCorpID_0Corel-Layer"/>
  <path class="fil0" d="M50.03 60.02l0 145.79 -9.1 0 0 -122.37c0,-1.67 -1.37,-3.04 -3.04,-3.04l0 0c-1.67,0 -3.04,1.37 -3.04,3.04l0 122.37 -6.67 0 0 -132.72c0,-1.67 -1.37,-3.04 -3.04,-3.04l-0 0c-1.67,0 -3.04,1.37 -3.04,3.04l0 132.72 -2.22 0 -4.22 0 0 -122.37c0,-1.67 -1.37,-3.04 -3.04,-3.04l-0 0c-1.67,0 -3.04,1.37 -3.04,3.04l0 122.37 -6.3 0 -3.3 0 0 -145.79 0 -8.04 4.02 -5.81 0 -12.95 16.75 0 8.49 0 16.75 0 0 12.95 4.02 5.81 0 8.04zm-28.14 -48.51l-0.11 -7.24 3.07 -4.27 3.07 4.27 -0.11 7.15c-0.93,-0.07 -1.92,-0.11 -2.96,-0.09 -1.04,0.02 -2.03,0.08 -2.96,0.18zm-16.97 20.54c0,0 -1.73,-19.32 19.93,-19.66 21.66,-0.33 19.32,19.66 19.32,19.66l-39.25 0zm8.85 6.5l0 0c2.29,0 4.16,1.87 4.16,4.16l0 12.65 -8.32 0 0 -12.65c0,-2.29 1.87,-4.16 4.16,-4.16zm11.17 0l0 0c2.29,0 4.16,1.87 4.16,4.16l0 12.65 -8.32 0 0 -12.65c0,-2.29 1.87,-4.16 4.16,-4.16zm11.33 0l0 0c2.29,0 4.16,1.87 4.16,4.16l0 12.65 -8.32 0 0 -12.65c0,-2.29 1.87,-4.16 4.16,-4.16z"/>
 </g>
</svg>
