<?xml version="1.0" encoding="UTF-8"?>
<!DOCTYPE svg PUBLIC "-//W3C//DTD SVG 1.1//EN" "http://www.w3.org/Graphics/SVG/1.1/DTD/svg11.dtd">
<!-- Creator: CorelDRAW (Evaluation Version) -->
<svg xmlns="http://www.w3.org/2000/svg" xml:space="preserve" width="1.34391in" height="0.775988in" version="1.1" style="shape-rendering:geometricPrecision; text-rendering:geometricPrecision; image-rendering:optimizeQuality; fill-rule:evenodd; clip-rule:evenodd"
viewBox="0 0 759.7 438.66"
 xmlns:xlink="http://www.w3.org/1999/xlink"
 xmlns:xodm="http://www.corel.com/coreldraw/odm/2003">
 <defs>
  <style type="text/css">
   <![CDATA[
    .str0 {stroke:white;stroke-width:3.93;stroke-miterlimit:2.61313}
    .fil0 {fill:#95AB95}
   ]]>
  </style>
 </defs>
 <g id="Layer_x0020_1">
  <metadata id="CorelCorpID_0Corel-Layer"/>
  <g id="_105553324821632">
   <path class="fil0 str0" d="M387.3 330.32c-96.7,-34.54 -146.44,26.25 -146.44,26.25 -61.04,-36.34 -101.44,-59.62 -172.69,-13.81 140.91,-26.25 178.21,95.32 178.21,95.32 1.38,-98.09 140.91,-107.76 140.91,-107.76z"/>
   <path class="fil0 str0" d="M179.28 122.66c1.38,-98.09 140.91,-107.76 140.91,-107.76 -96.7,-34.53 -146.44,26.25 -146.44,26.25 -61.04,-36.34 -101.44,-59.62 -172.69,-13.81 140.91,-26.25 178.22,95.32 178.22,95.32z"/>
   <path class="fil0 str0" d="M618.12 199.72c1.38,-98.09 140.91,-107.76 140.91,-107.76 -96.7,-34.53 -146.44,26.25 -146.44,26.25 -61.04,-36.34 -101.44,-59.62 -172.69,-13.82 140.91,-26.25 178.21,95.32 178.21,95.32z"/>
  </g>
 </g>
</svg>
