<?xml version="1.0" encoding="UTF-8"?>
<!DOCTYPE svg PUBLIC "-//W3C//DTD SVG 1.1//EN" "http://www.w3.org/Graphics/SVG/1.1/DTD/svg11.dtd">
<!-- Creator: CorelDRAW (Evaluation Version) -->
<svg xmlns="http://www.w3.org/2000/svg" xml:space="preserve" width="6.8591in" height="3.98864in" version="1.1" style="shape-rendering:geometricPrecision; text-rendering:geometricPrecision; image-rendering:optimizeQuality; fill-rule:evenodd; clip-rule:evenodd"
viewBox="0 0 6201.99 3606.52"
 xmlns:xlink="http://www.w3.org/1999/xlink"
 xmlns:xodm="http://www.corel.com/coreldraw/odm/2003">
 <defs>
  <style type="text/css">
   <![CDATA[
    .str0 {stroke:white;stroke-width:6.28;stroke-miterlimit:2.61313}
    .fil11 {fill:white}
    .fil10 {fill:white}
    .fil9 {fill:#84BC13}
    .fil12 {fill:white;fill-rule:nonzero}
    .fil1 {fill:#FEFEFE;fill-rule:nonzero}
    .fil3 {fill:url(#id0);fill-rule:nonzero}
    .fil2 {fill:url(#id1);fill-rule:nonzero}
    .fil0 {fill:url(#id2);fill-rule:nonzero}
    .fil7 {fill:url(#id3);fill-rule:nonzero}
    .fil5 {fill:url(#id4);fill-rule:nonzero}
    .fil4 {fill:url(#id5);fill-rule:nonzero}
    .fil8 {fill:url(#id6);fill-rule:nonzero}
    .fil6 {fill:url(#id7);fill-rule:nonzero}
   ]]>
  </style>
  <linearGradient id="id0" gradientUnits="userSpaceOnUse" x1="4752.74" y1="3239.1" x2="4752.74" y2="2023.2">
   <stop offset="0" style="stop-opacity:1; stop-color:#DBDADF"/>
   <stop offset="0.270588" style="stop-opacity:1; stop-color:#EDECEF"/>
   <stop offset="1" style="stop-opacity:1; stop-color:white"/>
  </linearGradient>
  <linearGradient id="id1" gradientUnits="userSpaceOnUse" xlink:href="#id0" x1="4369.6" y1="3024.36" x2="4369.6" y2="1808.45">
  </linearGradient>
  <linearGradient id="id2" gradientUnits="userSpaceOnUse" x1="3134.02" y1="3780.26" x2="3058.06" y2="-766.74">
   <stop offset="0" style="stop-opacity:1; stop-color:#004B2D"/>
   <stop offset="1" style="stop-opacity:1; stop-color:#0A723D"/>
  </linearGradient>
  <linearGradient id="id3" gradientUnits="userSpaceOnUse" xlink:href="#id0" x1="5514.23" y1="2296.62" x2="5581.18" y2="1600.87">
  </linearGradient>
  <linearGradient id="id4" gradientUnits="userSpaceOnUse" xlink:href="#id0" x1="3656.94" y1="2423.07" x2="3770.62" y2="1241.84">
  </linearGradient>
  <linearGradient id="id5" gradientUnits="userSpaceOnUse" xlink:href="#id0" x1="3187.91" y1="5412.34" x2="3079.64" y2="3178.12">
  </linearGradient>
  <linearGradient id="id6" gradientUnits="userSpaceOnUse" xlink:href="#id0" x1="5514.23" y1="2296.62" x2="5581.18" y2="1600.87">
  </linearGradient>
  <linearGradient id="id7" gradientUnits="userSpaceOnUse" xlink:href="#id0" x1="3656.94" y1="2423.07" x2="3770.61" y2="1241.84">
  </linearGradient>
 </defs>
 <g id="Layer_x0020_1">
  <metadata id="CorelCorpID_0Corel-Layer"/>
  <g id="_105553326782624">
   <g>
    <polygon class="fil0" points="5899.89,3606.52 6201.99,3605.03 6200.08,0 -0,28.57 1.36,3606.52 "/>
    <path class="fil1" d="M5512.19 2471.31c4.45,-16.53 -210.81,-216.93 -256.16,-258.91 -5.43,-5.02 -12.19,-8.33 -19.48,-9.54l-105.96 -17.64c-1.22,-27.65 -20.08,-50.49 -45.69,-57.8 6.46,-139.22 20.31,-470.01 5.71,-466.11 -16.54,4.41 -82.42,291.04 -96.1,351.31 -1.64,7.21 -1.12,14.72 1.48,21.64l37.68 100.49c-17.59,11.24 -29.34,30.82 -29.34,53.24 0,5.32 0.85,10.4 2.09,15.34 -123.78,63.99 -417.13,217.35 -406.46,228.05 12.09,12.12 293.27,-74.12 352.3,-92.41 7.06,-2.19 13.31,-6.39 18,-12.1l68.29 -82.99c0.35,0.19 0.69,0.39 1.04,0.57l-64.02 951.54 92.03 0 92.03 0 -64.02 -951.54c5.87,-2.92 11.3,-6.57 15.96,-11.09 117.36,75.24 396.69,252.53 400.62,237.94z"/>
    <path class="fil1" d="M834.67 2387.51c3.68,-13.68 -174.42,-179.48 -211.95,-214.22 -4.49,-4.15 -10.08,-6.89 -16.12,-7.9l-87.67 -14.59c-1.01,-22.88 -16.62,-41.77 -37.81,-47.82 5.35,-115.19 16.81,-388.88 4.72,-385.66 -13.69,3.65 -68.19,240.81 -79.51,290.67 -1.35,5.97 -0.92,12.17 1.22,17.9l31.18 83.15c-14.56,9.29 -24.27,25.5 -24.27,44.05 0,4.4 0.7,8.6 1.73,12.69 -102.42,52.95 -345.13,179.83 -336.3,188.69 10,10.03 242.65,-61.33 291.49,-76.45 5.84,-1.81 11.01,-5.29 14.89,-10.01l56.49 -68.66c0.29,0.15 0.57,0.32 0.86,0.47l-47.16 749.47 134.83 -92.97 -41.32 -656.5c4.86,-2.41 9.34,-5.44 13.2,-9.17 97.1,62.25 328.22,208.94 331.47,196.87z"/>
    <path class="fil1" d="M2843 1799.94l0 -67.96 -41.54 0 0 -67.97 -109.5 0 0 -219 -30.21 0 0 219 -109.5 0 0 67.97 -41.54 0 0 67.96 -37.76 0 0 1219.61 407.8 0 0 -1219.61 -37.76 0zm0 1128.98l0 0 -332.28 0 0 -30.21 332.28 0 0 30.21zm0 -62.3l0 0 -332.28 0 0 -30.21 332.28 0 0 30.21zm0 -62.3l0 0 -332.28 0 0 -30.21 332.28 0 0 30.21zm0 -62.3l0 0 -332.28 0 0 -30.21 332.28 0 0 30.21zm0 -62.3l0 0 -332.28 0 0 -30.21 332.28 0 0 30.21zm0 -62.3l0 0 -332.28 0 0 -30.21 332.28 0 0 30.21zm0 -62.3l0 0 -332.28 0 0 -30.21 332.28 0 0 30.21zm0 -62.3l0 0 -332.28 0 0 -30.21 332.28 0 0 30.21zm0 -62.3l0 0 -332.28 0 0 -30.21 332.28 0 0 30.21zm0 -62.3l0 0 -332.28 0 0 -30.21 332.28 0 0 30.21zm0 -62.3l0 0 -332.28 0 0 -30.21 332.28 0 0 30.21zm0 -62.3l0 0 -332.28 0 0 -30.21 332.28 0 0 30.21zm0 -62.3l0 0 -332.28 0 0 -30.21 332.28 0 0 30.21zm0 -62.3l0 0 -332.28 0 0 -30.21 332.28 0 0 30.21zm0 -62.3l0 0 -332.28 0 0 -30.21 332.28 0 0 30.21zm0 -62.3l0 0 -332.28 0 0 -30.21 332.28 0 0 30.21zm0 -62.3l0 0 -332.28 0 0 -30.21 332.28 0 0 30.21zm0 -62.3l0 0 -332.28 0 0 -30.21 332.28 0 0 30.21z"/>
    <path class="fil2" d="M4198.11 1852.92l0 1237.76 342.98 0 0 -1463.78 -342.98 226.02zm78.67 1166.34l0 0 -43.42 0 0 -37.04 43.42 0 0 37.04zm0 -73l0 0 -43.42 0 0 -37.04 43.42 0 0 37.04zm0 -73l0 0 -43.42 0 0 -37.04 43.42 0 0 37.04zm0 -63.34l0 0 -43.42 0 0 -37.03 43.42 0 0 37.03zm0 -63.34l0 0 -43.42 0 0 -37.03 43.42 0 0 37.03zm0 -63.34l0 0 -43.42 0 0 -37.03 43.42 0 0 37.03zm0 -63.33l0 0 -43.42 0 0 -37.04 43.42 0 0 37.04zm0 -63.34l0 0 -43.42 0 0 -37.04 43.42 0 0 37.04zm0 -63.34l0 0 -43.42 0 0 -37.04 43.42 0 0 37.04zm0 -63.34l0 0 -43.42 0 0 -37.04 43.42 0 0 37.04zm0 -63.34l0 0 -43.42 0 0 -37.04 43.42 0 0 37.04zm0 -63.34l0 0 -43.42 0 0 -37.03 43.42 0 0 37.03zm0 -63.33l0 0 -43.42 0 0 -37.04 43.42 0 0 37.04zm0 -63.34l0 0 -43.42 0 0 -37.04 43.42 0 0 37.04zm0 -63.34l0 0 -43.42 0 0 -37.04 43.42 0 0 37.04zm0 -63.34l0 0 -43.42 0 0 -37.04 43.42 0 0 37.04zm0 -63.34l0 0 -43.42 0 0 -37.03 43.42 0 0 37.03zm0 -63.34l0 0 -43.42 0 0 -37.03 43.42 0 0 37.03zm229.39 1096.05l0 0 -199.18 0 0 -37.04 199.18 0 0 37.04zm0 -73l0 0 -199.18 0 0 -37.04 199.18 0 0 37.04zm0 -73l0 0 -199.18 0 0 -37.04 199.18 0 0 37.04zm0 -63.34l0 0 -199.18 0 0 -37.03 199.18 0 0 37.03zm0 -63.34l0 0 -199.18 0 0 -37.03 199.18 0 0 37.03zm0 -63.34l0 0 -199.18 0 0 -37.03 199.18 0 0 37.03zm0 -63.33l0 0 -199.18 0 0 -37.04 199.18 0 0 37.04zm0 -63.34l0 0 -199.18 0 0 -37.04 199.18 0 0 37.04zm0 -63.34l0 0 -199.18 0 0 -37.04 199.18 0 0 37.04zm0 -63.34l0 0 -199.18 0 0 -37.04 199.18 0 0 37.04zm0 -63.34l0 0 -199.18 0 0 -37.04 199.18 0 0 37.04zm0 -63.34l0 0 -199.18 0 0 -37.03 199.18 0 0 37.03zm0 -63.33l0 0 -199.18 0 0 -37.04 199.18 0 0 37.04zm0 -63.34l0 0 -199.18 0 0 -37.04 199.18 0 0 37.04zm0 -63.34l0 0 -199.18 0 0 -37.04 199.18 0 0 37.04zm0 -63.34l0 0 -199.18 0 0 -37.04 199.18 0 0 37.04zm0 -63.34l0 0 -199.18 0 0 -37.03 199.18 0 0 37.03zm0 -63.34l0 0 -199.18 0 0 -37.03 199.18 0 0 37.03z"/>
    <path class="fil1" d="M2273.57 2036.58l0 -260.53 -48.14 0 0 -77.41 -258.65 0 0 77.41 -48.14 0 0 260.53 -122.72 0 0 1147.87 122.72 0 16.36 0 327.24 0 11.33 0 122.71 0 0 -1147.87 -122.71 0zm-395.21 1089.87l0 0 -42.8 0 0 -42.79 42.8 0 0 42.79zm0 -83.06l0 0 -42.8 0 0 -42.79 42.8 0 0 42.79zm0 -83.06l0 0 -42.8 0 0 -42.79 42.8 0 0 42.79zm0 -83.06l0 0 -42.8 0 0 -42.79 42.8 0 0 42.79zm0 -83.06l0 0 -42.8 0 0 -42.79 42.8 0 0 42.79zm0 -83.06l0 0 -42.8 0 0 -42.79 42.8 0 0 42.79zm0 -83.06l0 0 -42.8 0 0 -42.79 42.8 0 0 42.79zm0 -83.06l0 0 -42.8 0 0 -42.79 42.8 0 0 42.79zm0 -83.06l0 0 -42.8 0 0 -42.8 42.8 0 0 42.8zm0 -83.06l0 0 -42.8 0 0 -42.79 42.8 0 0 42.79zm0 -83.06l0 0 -42.8 0 0 -42.79 42.8 0 0 42.79zm0 -83.06l0 0 -42.8 0 0 -42.79 42.8 0 0 42.79zm0 -83.06l0 0 -42.8 0 0 -42.79 42.8 0 0 42.79zm368.77 1004.38l0 0 -302.07 0 0 -37.09 302.07 0 0 37.09zm0 -84.38l0 0 -302.07 0 0 -37.09 302.07 0 0 37.09zm0 -84.39l0 0 -302.07 0 0 -37.09 302.07 0 0 37.09zm0 -84.38l0 0 -302.07 0 0 -37.09 302.07 0 0 37.09zm0 -84.38l0 0 -302.07 0 0 -37.09 302.07 0 0 37.09zm0 -84.39l0 0 -302.07 0 0 -37.09 302.07 0 0 37.09zm0 -84.38l0 0 -302.07 0 0 -37.09 302.07 0 0 37.09zm0 -84.38l0 0 -302.07 0 0 -37.09 302.07 0 0 37.09zm0 -84.38l0 0 -302.07 0 0 -37.09 302.07 0 0 37.09zm0 -84.39l0 0 -302.07 0 0 -37.09 302.07 0 0 37.09zm0 -84.38l0 0 -302.07 0 0 -37.09 302.07 0 0 37.09zm0 -84.39l0 0 -302.07 0 0 -37.09 302.07 0 0 37.09zm0 -84.38l0 0 -302.07 0 0 -37.09 302.07 0 0 37.09zm0 -95.55l0 0 -302.07 0 0 -37.09 302.07 0 0 37.09zm0 -84.38l0 0 -302.07 0 0 -37.09 302.07 0 0 37.09zm0 -84.38l0 0 -302.07 0 0 -37.09 302.07 0 0 37.09zm109.5 1269.26l0 0 -42.79 0 0 -42.79 42.79 0 0 42.79zm0 -83.06l0 0 -42.79 0 0 -42.79 42.79 0 0 42.79zm0 -83.06l0 0 -42.79 0 0 -42.79 42.79 0 0 42.79zm0 -83.06l0 0 -42.79 0 0 -42.79 42.79 0 0 42.79zm0 -83.06l0 0 -42.79 0 0 -42.79 42.79 0 0 42.79zm0 -83.06l0 0 -42.79 0 0 -42.79 42.79 0 0 42.79zm0 -83.06l0 0 -42.79 0 0 -42.79 42.79 0 0 42.79zm0 -83.06l0 0 -42.79 0 0 -42.79 42.79 0 0 42.79zm0 -83.06l0 0 -42.79 0 0 -42.8 42.79 0 0 42.8zm0 -83.06l0 0 -42.79 0 0 -42.79 42.79 0 0 42.79zm0 -83.06l0 0 -42.79 0 0 -42.79 42.79 0 0 42.79zm0 -83.06l0 0 -42.79 0 0 -42.79 42.79 0 0 42.79zm0 -83.06l0 0 -42.79 0 0 -42.79 42.79 0 0 42.79z"/>
    <path class="fil1" d="M1315.4 2212.22l0 597.1 153.63 0 0.71 0.49 72.13 0 0 23.71 0 0 -37.74 0 34.39 23.71 3.35 0 0 2.31 13.44 9.27 0 -11.58 48.22 0 0 23.72 0 0 -30.61 0 48.4 33.37 0 -702.1 -305.9 0zm226.46 573.87l0 0 -208.68 0 0 -23.71 208.68 0 0 23.71zm0 -47.43l0 0 -208.68 0 0 -23.71 208.68 0 0 23.71zm0 -47.42l0 0 -208.68 0 0 -23.72 208.68 0 0 23.72zm0 -47.43l0 0 -208.68 0 0 -23.72 208.68 0 0 23.72zm0 -47.43l0 0 -208.68 0 0 -23.71 208.68 0 0 23.71zm0 -47.43l0 0 -208.68 0 0 -23.71 208.68 0 0 23.71zm0 -47.42l0 0 -208.68 0 0 -23.72 208.68 0 0 23.72zm0 -47.43l0 0 -208.68 0 0 -23.72 208.68 0 0 23.72zm0 -47.43l0 0 -208.68 0 0 -23.71 208.68 0 0 23.71zm0 -47.43l0 0 -208.68 0 0 -23.71 208.68 0 0 23.71zm0 -47.42l0 0 -208.68 0 0 -23.72 208.68 0 0 23.72zm0 -47.43l0 0 -208.68 0 0 -23.72 208.68 0 0 23.72zm61.66 569.12l0 0 -48.22 0 0 -23.71 48.22 0 0 23.71zm0 -47.43l0 0 -48.22 0 0 -23.71 48.22 0 0 23.71zm0 -47.43l0 0 -48.22 0 0 -23.71 48.22 0 0 23.71zm0 -47.42l0 0 -48.22 0 0 -23.72 48.22 0 0 23.72zm0 -47.43l0 0 -48.22 0 0 -23.72 48.22 0 0 23.72zm0 -47.43l0 0 -48.22 0 0 -23.71 48.22 0 0 23.71zm0 -47.43l0 0 -48.22 0 0 -23.71 48.22 0 0 23.71zm0 -47.42l0 0 -48.22 0 0 -23.72 48.22 0 0 23.72zm0 -47.43l0 0 -48.22 0 0 -23.72 48.22 0 0 23.72zm0 -47.43l0 0 -48.22 0 0 -23.71 48.22 0 0 23.71zm0 -47.43l0 0 -48.22 0 0 -23.71 48.22 0 0 23.71zm0 -47.42l0 0 -48.22 0 0 -23.72 48.22 0 0 23.72zm0 -47.43l0 0 -48.22 0 0 -23.72 48.22 0 0 23.72z"/>
    <path class="fil1" d="M5760.53 2822.55c1.05,-2.79 1.65,-5.81 1.65,-8.97 0,-7.78 -3.48,-14.73 -8.96,-19.42 7.54,-4.44 12.62,-12.63 12.62,-22.01 0,-14.12 -11.44,-25.56 -25.56,-25.56 -1.25,0 -2.47,0.12 -3.66,0.29 0,-0.1 0.01,-0.19 0.01,-0.29 0,-11.73 -9.23,-21.28 -20.82,-21.85 1.62,-3.36 2.56,-7.12 2.56,-11.1 0,-14.12 -11.44,-25.56 -25.56,-25.56 -3.04,0 -5.94,0.56 -8.65,1.53 -2.56,-9.25 -11.02,-16.05 -21.1,-16.05 -0.45,0 -0.89,0.04 -1.33,0.07 0.85,-2.33 1.33,-4.83 1.33,-7.46 0,-12.1 -9.81,-21.91 -21.91,-21.91 -9.67,0 -17.86,6.27 -20.77,14.97 -3.99,-4.21 -9.63,-6.86 -15.89,-6.86 -5.48,0 -10.47,2.02 -14.3,5.34 -0.57,-11.59 -10.12,-20.83 -21.86,-20.83 -9.33,0 -17.28,5.84 -20.43,14.06 -3.98,-4.11 -9.55,-6.67 -15.72,-6.67 -2.82,0 -5.5,0.55 -7.97,1.52 -3.03,-8.47 -11.1,-14.55 -20.62,-14.55 -3.97,0 -7.68,1.07 -10.89,2.92 -4.61,-6.64 -12.29,-11 -20.99,-11 -14.12,0 -25.56,11.44 -25.56,25.56 0,0.11 0.01,0.22 0.01,0.33 -3.74,-2.99 -8.48,-4.78 -13.64,-4.78 -5.32,0 -10.2,1.9 -13.99,5.05 -5.3,-7.52 -14.04,-12.45 -23.94,-12.45 -16.18,0 -29.3,13.12 -29.3,29.3 0,3.13 0.5,6.13 1.4,8.95 -8.96,2.55 -15.57,10.64 -15.89,20.35 -0.01,0 -0.02,0 -0.04,0 -14.11,0 -25.56,11.44 -25.56,25.56 0,6.38 2.35,12.2 6.22,16.67 -11.09,2.79 -19.31,12.8 -19.31,24.76 0,11.04 7.02,20.42 16.82,23.99 -0.04,0.52 -0.08,1.04 -0.08,1.57 0,3.14 0.67,6.12 1.86,8.82 -0.62,-0.05 -1.24,-0.1 -1.86,-0.1 -13.82,0 -25.05,10.98 -25.52,24.69 -0.01,0 -0.03,-0 -0.04,-0 -12.1,0 -21.91,9.81 -21.91,21.91 0,11.34 8.61,20.67 19.66,21.8 -0.89,2.6 -1.4,5.38 -1.4,8.29 0,14.11 11.44,25.56 25.56,25.56 1.34,0 2.64,-0.14 3.93,-0.33 1.6,10.52 10.66,18.59 21.63,18.59 1.25,0 2.47,-0.13 3.67,-0.33 -0,0.11 -0.02,0.22 -0.02,0.33 0,12.1 9.81,21.91 21.91,21.91 10.08,0 18.54,-6.81 21.1,-16.08 3.67,2.78 8.23,4.44 13.19,4.44 3.05,0 5.93,-0.66 8.57,-1.79l93.25 98.75 0 291.89 32.08 0 0 -311.4 83.82 -88.75c5.07,-0.39 9.73,-2.18 13.55,-5.09 2.45,9.43 10.99,16.4 21.18,16.4 11.3,0 20.6,-8.56 21.78,-19.54 2.51,0.83 5.18,1.29 7.97,1.29 13.19,0 24.05,-10 25.41,-22.83 1.77,0.46 3.61,0.73 5.52,0.73 12.1,0 21.91,-9.81 21.91,-21.91 0,-0.53 -0.04,-1.04 -0.08,-1.56 2.51,1 5.23,1.56 8.09,1.56 12.1,0 21.91,-9.81 21.91,-21.91 0,-9.7 -6.31,-17.91 -15.04,-20.79zm-315.75 106.66l0 0c2.98,1.22 6.22,1.96 9.64,1.96 14.11,0 25.56,-11.44 25.56,-25.56 0,-1.35 -0.14,-2.67 -0.34,-3.96 0.67,0.06 1.35,0.1 2.03,0.1 6.25,0 11.88,-2.63 15.87,-6.83 1.27,8.23 7.14,14.9 14.89,17.41l0 88.5 -67.65 -71.63zm99.73 4.66l0 0c2.1,0.56 4.26,0.95 6.54,0.95 13,0 23.7,-9.71 25.32,-22.26 1.97,0.58 4.04,0.9 6.2,0.9 9,0 16.72,-5.43 20.09,-13.18 1.72,4.3 4.61,7.98 8.22,10.76l-66.38 70.28 0 -47.46z"/>
    <path class="fil3" d="M4908.65 2723.88c0.98,-2.62 1.54,-5.44 1.54,-8.4 0,-7.29 -3.26,-13.8 -8.4,-18.19 7.07,-4.16 11.82,-11.83 11.82,-20.62 0,-13.22 -10.72,-23.95 -23.94,-23.95 -1.17,0 -2.31,0.11 -3.44,0.27 0,-0.09 0.01,-0.18 0.01,-0.27 0,-10.99 -8.65,-19.94 -19.5,-20.47 1.52,-3.15 2.4,-6.66 2.4,-10.39 0,-13.22 -10.72,-23.94 -23.94,-23.94 -2.85,0 -5.57,0.52 -8.1,1.43 -2.4,-8.66 -10.33,-15.04 -19.76,-15.04 -0.42,0 -0.83,0.04 -1.25,0.06 0.79,-2.18 1.25,-4.53 1.25,-6.99 0,-11.33 -9.19,-20.52 -20.53,-20.52 -5.97,0 -11.34,2.57 -15.09,6.65 -0.5,-10.89 -9.46,-19.58 -20.48,-19.58 -11.33,0 -20.52,9.19 -20.52,20.53 0,0.67 0.04,1.33 0.1,1.99 -3.64,-5.75 -10.04,-9.58 -17.34,-9.58 -11.33,0 -20.52,9.19 -20.52,20.52 0,2.46 0.46,4.81 1.25,6.99 -0.42,-0.02 -0.83,-0.06 -1.25,-0.06 -9.43,0 -17.36,6.37 -19.76,15.04 -2.53,-0.91 -5.25,-1.43 -8.1,-1.43 -13.22,0 -23.95,10.72 -23.95,23.94 0,3.73 0.88,7.25 2.4,10.39 -10.86,0.54 -19.51,9.48 -19.51,20.47 0,0.09 0.01,0.18 0.01,0.27 -1.12,-0.16 -2.26,-0.27 -3.43,-0.27 -13.22,0 -23.94,10.72 -23.94,23.95 0,2.86 0.53,5.59 1.45,8.13 -0.48,-0.03 -0.96,-0.07 -1.45,-0.07 -13.22,0 -23.94,10.72 -23.94,23.94 0,11.28 7.8,20.71 18.3,23.25 -2.2,3.27 -3.48,7.2 -3.48,11.44 0,11.33 9.19,20.52 20.52,20.52 2.68,0 5.24,-0.53 7.58,-1.46 -0.04,0.49 -0.07,0.97 -0.07,1.46 0,11.34 9.19,20.53 20.53,20.53 1.79,0 3.52,-0.25 5.18,-0.68 1.28,12.02 11.44,21.38 23.8,21.38 2.61,0 5.11,-0.43 7.46,-1.2 0.23,2.16 0.84,4.2 1.68,6.11 3.36,12.58 14.81,21.86 28.45,21.86 11.24,0 21.01,-6.29 25.98,-15.55 2.34,6.18 7.59,10.89 14.06,12.56l0 341.36 36.24 0 0 -348.65c5.38,5.82 13,9.53 21.55,9.53 15.32,0 27.9,-11.69 29.34,-26.63 1.72,0.4 3.5,0.62 5.34,0.62 12.36,0 22.53,-9.37 23.8,-21.38 1.66,0.43 3.39,0.68 5.18,0.68 11.33,0 20.52,-9.19 20.52,-20.53 0,-0.49 -0.04,-0.98 -0.07,-1.46 2.35,0.94 4.9,1.46 7.58,1.46 11.34,0 20.53,-9.19 20.53,-20.52 0,-9.08 -5.91,-16.78 -14.09,-19.48z"/>
    <path class="fil4" d="M5899.89 3256.4c-263.27,11.62 -529.62,-49.12 -785.09,-132.39 -333.02,-108.56 -657.61,-255.3 -996.69,-333.7 -454,-104.97 -939.74,-145.91 -1389.23,2.31 -459.59,151.55 -819.82,454.76 -1319.84,473.94l-1152.25 72.66c39.68,88.09 48.68,179.15 7.72,267.31l5635.38 0 0 -350.13z"/>
    <g>
     <path class="fil5" d="M3715.03 1789.64l339.36 0c-16.57,-78.51 -86.23,-137.45 -169.68,-137.45 -16.33,0 -32.12,2.31 -47.1,6.53 -23.18,-56.32 -78.58,-95.97 -143.27,-95.97 -85.4,0 -154.64,69.11 -154.89,154.45 -10.94,-3.87 -22.66,-6.09 -34.92,-6.09 -48.78,0 -89.65,33.39 -101.29,78.54l256.19 0 55.59 0z"/>
     <path class="fil6" d="M3504.53 1716.01c12.27,0 23.98,2.22 34.92,6.09 0.25,-85.34 69.49,-154.45 154.89,-154.45 64.68,0 120.08,39.66 143.27,95.97 14.98,-4.22 30.77,-6.53 47.1,-6.53 81.68,0 150.01,56.52 168.42,132.54l1.26 0c-16.57,-78.51 -86.23,-137.45 -169.68,-137.45 -16.33,0 -32.12,2.31 -47.1,6.53 -23.18,-56.32 -78.58,-95.97 -143.27,-95.97 -85.4,0 -154.64,69.11 -154.89,154.45 -10.94,-3.87 -22.65,-6.09 -34.92,-6.09 -48.78,0 -89.65,33.39 -101.29,78.54l1.49 0c13.26,-42.62 52.82,-73.63 99.8,-73.63z"/>
    </g>
    <g>
     <path class="fil7" d="M5548.44 1923.53l199.88 0c-9.76,-46.24 -50.79,-80.96 -99.94,-80.96 -9.62,0 -18.92,1.36 -27.74,3.84 -13.65,-33.17 -46.29,-56.53 -84.39,-56.53 -50.3,0 -91.08,40.7 -91.23,90.97 -6.44,-2.28 -13.35,-3.58 -20.57,-3.58 -28.73,0 -52.8,19.67 -59.66,46.26l150.9 0 32.74 0z"/>
     <path class="fil8" d="M5424.46 1880.16c7.22,0 14.13,1.31 20.57,3.59 0.15,-50.27 40.93,-90.97 91.23,-90.97 38.1,0 70.73,23.36 84.39,56.53 8.82,-2.48 18.12,-3.84 27.74,-3.84 48.11,0 88.36,33.29 99.2,78.07l0.74 0c-9.76,-46.24 -50.79,-80.96 -99.94,-80.96 -9.62,0 -18.92,1.36 -27.74,3.84 -13.65,-33.17 -46.29,-56.53 -84.39,-56.53 -50.3,0 -91.08,40.7 -91.23,90.97 -6.44,-2.28 -13.35,-3.58 -20.57,-3.58 -28.73,0 -52.8,19.67 -59.66,46.26l0.88 0c7.81,-25.1 31.11,-43.37 58.78,-43.37z"/>
    </g>
    <path class="fil9" d="M1362.52 1485.81c0,0 30.95,-37.83 91.13,-16.33 0,0 -86.83,6.02 -87.69,67.06 0,0 -23.21,-75.66 -110.9,-59.32 44.34,-28.5 69.48,-14.02 107.46,8.6z"/>
    <path class="fil9" d="M2005.28 1197.49c0,0 30.95,-37.83 91.13,-16.33 0,0 -86.83,6.02 -87.69,67.06 0,0 -23.21,-75.65 -110.9,-59.32 44.34,-28.5 69.48,-14.02 107.46,8.6z"/>
    <path class="fil9" d="M1343.68 1259.76c0,0 30.95,-37.83 91.13,-16.33 0,0 -86.83,6.02 -87.69,67.06 0,0 -23.21,-75.66 -110.9,-59.32 44.34,-28.5 69.48,-14.02 107.46,8.6z"/>
    <path class="fil9" d="M1406.56 875.03c0,0 30.95,-37.83 91.13,-16.34 0,0 -86.83,6.02 -87.69,67.06 0,0 -23.21,-75.66 -110.9,-59.32 44.34,-28.5 69.48,-14.02 107.46,8.6z"/>
    <path class="fil9" d="M1668.06 1234.65c0,0 30.95,-37.83 91.13,-16.33 0,0 -86.83,6.02 -87.69,67.06 0,0 -23.21,-75.66 -110.91,-59.32 44.34,-28.5 69.48,-14.02 107.47,8.6z"/>
    <path class="fil9" d="M1448.32 1071.32c0,0 30.95,-37.83 91.13,-16.33 0,0 -86.83,6.02 -87.69,67.06 0,0 -23.21,-75.66 -110.9,-59.32 44.34,-28.5 69.48,-14.02 107.46,8.6z"/>
    <path class="fil9" d="M1679.66 922.98c0,0 30.95,-37.83 91.13,-16.34 0,0 -86.83,6.02 -87.69,67.06 0,0 -23.21,-75.66 -110.9,-59.32 44.34,-28.5 69.48,-14.02 107.46,8.6z"/>
    <path class="fil9" d="M1692.75 1466.99c0,0 30.95,-37.83 91.13,-16.33 0,0 -86.83,6.02 -87.69,67.06 0,0 -23.21,-75.66 -110.9,-59.32 44.34,-28.5 69.48,-14.02 107.46,8.6z"/>
    <path class="fil10" d="M1158.72 1359.49l0 1436.05 -89.65 0 0 -1205.39c0,-16.46 -13.46,-29.91 -29.92,-29.91l0 0c-16.46,0 -29.91,13.46 -29.91,29.91l0 1205.39 -65.69 0 0 -1307.35c0,-16.45 -13.45,-29.91 -29.91,-29.91l-0.01 0c-16.45,0 -29.91,13.46 -29.91,29.91l0 1307.35 -21.83 0 -41.55 0 0 -1205.39c0,-16.46 -13.45,-29.91 -29.91,-29.91l-0.01 0c-16.44,0 -29.91,13.46 -29.91,29.91l0 1205.39 -62.1 0 -32.49 0 0 -1436.05 0 -79.19 39.59 -57.2 0 -127.6 165 0 83.6 0 164.99 0 0 127.6 39.61 57.2 0 79.19zm-277.22 -477.85l-1.08 -71.3 30.24 -42.08 30.24 42.08 -1.06 70.44c-9.21,-0.72 -18.92,-1.04 -29.19,-0.88 -10.24,0.17 -19.95,0.76 -29.17,1.74zm-167.17 202.32c0,0 -17.05,-190.31 196.34,-193.62 213.4,-3.3 190.3,193.62 190.3,193.62l-386.64 0zm87.17 64.06l0 0c22.54,0 40.98,18.44 40.98,40.97l0 124.58 -81.95 0 0 -124.58c0,-22.53 18.44,-40.97 40.97,-40.97zm110 0l0 0c22.54,0 40.98,18.44 40.98,40.97l0 124.58 -81.95 0 0 -124.58c0,-22.53 18.43,-40.97 40.97,-40.97zm111.65 0l0.01 0c22.53,0 40.97,18.44 40.97,40.97l0 124.58 -81.95 0 0 -124.58c0,-22.53 18.44,-40.97 40.97,-40.97z"/>
    <path class="fil10" d="M390.18 3047.4l1291.61 0 0 285.17 -62.74 0 0 -202.43c0,-23.35 -28.54,-42.45 -63.4,-42.45l-0 0c-34.86,0 -63.39,19.11 -63.39,42.45l0 202.43 -47.43 0 0 -202.43c0,-23.35 -28.54,-42.45 -63.4,-42.45l-0.01 0c-34.86,0 -63.39,19.11 -63.39,42.45l0 202.43 -47.43 0 0 -202.43c0,-23.35 -28.54,-42.45 -63.4,-42.45l-0 0c-34.86,0 -63.4,19.11 -63.4,42.45l0 202.43 -47.43 0 0 -202.43c0,-23.35 -28.53,-42.45 -63.4,-42.45l0 0c-34.87,0 -63.4,19.11 -63.4,42.45l0 202.43 -47.42 0 0 -202.43c0,-23.35 -28.54,-42.45 -63.4,-42.45l-0 0c-34.87,0 -63.4,19.11 -63.4,42.45l0 202.43 -47.43 0 0 -202.43c0,-23.35 -28.54,-42.45 -63.39,-42.45l-0.01 0c-34.86,0 -63.4,19.11 -63.4,42.45l0 202.43 -47.42 0 0 -202.43c0,-23.35 -28.54,-42.45 -63.4,-42.45l-0.01 0c-34.86,0 -63.39,19.11 -63.39,42.45l0 202.43 -56.73 0 0 -285.17zm227.83 -217.36l287.63 0 95.16 0 453.15 0 280.6 193.49 -280.6 0 -102.19 0 -350.96 0 -95.16 0 -185.44 0 -102.19 0 -280.6 0 280.6 -193.49z"/>
    <path class="fil10" d="M3343.16 2212.92l386.98 0 0 587.54 -75.8 0 0 -281.6c0,-56.67 -46.36,-103.03 -103.03,-103.03l-31.83 0c-57.58,0 -104.7,47.12 -104.7,104.71l0 279.92 -71.62 0 0 -587.54zm567.97 80.41l233.75 0 -233.75 -122.29 -169.89 88.88 0 33.41 169.89 0zm-169.89 15.08l374.21 0 0 492.05 -374.21 0 0 -492.05zm-577.27 -15.08l168.09 0 0 -34.35 -168.09 -87.94 -233.76 122.29 233.76 0zm-206.11 15.08l374.2 0 0 492.05 -374.2 0 0 -492.05zm574.6 -113.07l216.94 0 -216.94 -150.95 -216.94 150.95 216.94 0zm126.69 95.85c16.86,2.32 30.2,15.66 32.52,32.52l-32.52 0 0 -32.52zm32.52 42.99c-2.32,16.86 -15.66,30.2 -32.52,32.51l0 -32.51 32.52 0zm-42.99 32.51c-16.86,-2.31 -30.2,-15.66 -32.52,-32.51l32.52 0 0 32.51zm-32.52 -42.99c2.32,-16.86 15.66,-30.2 32.52,-32.52l0 32.52 -32.52 0zm-193.22 -32.52c16.86,2.32 30.2,15.66 32.51,32.52l-32.51 0 0 -32.52zm32.51 42.99c-2.31,16.86 -15.66,30.2 -32.51,32.51l0 -32.51 32.51 0zm-42.99 32.51c-16.86,-2.31 -30.2,-15.66 -32.52,-32.51l32.52 0 0 32.51zm-32.52 -42.99c2.32,-16.86 15.66,-30.2 32.52,-32.52l0 32.52 -32.52 0zm192.5 -91.3l12.36 0 0 67.85 -12.36 0 0 -67.85zm-43.13 0l12.35 0 0 67.85 -12.35 0 0 -67.85zm-43.14 0l12.35 0 0 67.85 -12.35 0 0 -67.85z"/>
    <path class="fil11 str0" d="M1539.45 1054.98c-60.18,-21.49 -91.13,16.33 -91.13,16.33 -37.99,-22.61 -63.13,-37.1 -107.46,-8.6 87.69,-16.34 110.9,59.32 110.9,59.32 0.86,-61.04 87.69,-67.06 87.69,-67.06z"/>
    <path class="fil11 str0" d="M1410 925.75c0.86,-61.04 87.69,-67.06 87.69,-67.06 -60.18,-21.49 -91.13,16.34 -91.13,16.34 -37.99,-22.61 -63.13,-37.1 -107.46,-8.6 87.69,-16.34 110.9,59.32 110.9,59.32z"/>
    <path class="fil11 str0" d="M1343.68 1259.76c-37.99,-22.61 -63.13,-37.1 -107.46,-8.6 87.69,-16.34 110.9,59.32 110.9,59.32 0.86,-61.04 87.69,-67.06 87.69,-67.06 -60.18,-21.49 -91.13,16.33 -91.13,16.33z"/>
    <path class="fil11 str0" d="M1362.52 1485.81c-37.99,-22.61 -63.13,-37.1 -107.46,-8.6 87.69,-16.34 110.9,59.32 110.9,59.32 0.86,-61.04 87.69,-67.06 87.69,-67.06 -60.18,-21.49 -91.13,16.33 -91.13,16.33z"/>
    <path class="fil11 str0" d="M1585.28 1458.39c87.69,-16.34 110.9,59.32 110.9,59.32 0.86,-61.04 87.69,-67.06 87.69,-67.06 -60.18,-21.49 -91.13,16.33 -91.13,16.33 -37.99,-22.61 -63.13,-37.1 -107.46,-8.6z"/>
    <path class="fil11 str0" d="M1560.59 1226.06c87.69,-16.34 110.91,59.32 110.91,59.32 0.86,-61.04 87.69,-67.06 87.69,-67.06 -60.18,-21.49 -91.13,16.33 -91.13,16.33 -37.99,-22.61 -63.13,-37.1 -107.47,-8.6z"/>
    <path class="fil11 str0" d="M1897.82 1188.9c87.69,-16.33 110.9,59.32 110.9,59.32 0.86,-61.04 87.69,-67.06 87.69,-67.06 -60.18,-21.49 -91.13,16.33 -91.13,16.33 -37.99,-22.61 -63.13,-37.1 -107.46,-8.6z"/>
    <path class="fil11 str0" d="M1683.09 973.7c0.86,-61.04 87.69,-67.06 87.69,-67.06 -60.18,-21.49 -91.13,16.34 -91.13,16.34 -37.99,-22.61 -63.13,-37.1 -107.46,-8.6 87.69,-16.34 110.9,59.32 110.9,59.32z"/>
   </g>
   <path class="fil12" d="M2053.84 347.71l58.77 0 0 316.47 -58.77 0 0 -316.47zm425.43 0l0 316.47 -48.37 0 -174.51 -214.3 0 214.3 -58.32 0 0 -316.47 48.37 0 174.51 214.3 0 -214.3 58.32 0zm149.19 49.73l-104.89 0 0 -49.73 268.55 0 0 49.73 -104.89 0 0 266.74 -58.77 0 0 -266.74zm445.32 217.46l0 49.28 -237.35 0 0 -316.47 231.02 0 0 49.28 -172.25 0 0 82.28 152.81 0 0 48.37 -152.81 0 0 87.26 178.58 0zm272.62 49.28l-64.65 -92.68c-2.71,0.3 -6.78,0.45 -12.21,0.45l-71.43 0 0 92.23 -58.77 0 0 -316.47 130.2 0c27.43,0 51.32,4.52 71.66,13.56 20.34,9.04 35.94,22 46.79,38.88 10.85,16.88 16.28,36.92 16.28,60.13 0,23.81 -5.8,44.31 -17.4,61.49 -11.61,17.18 -28.26,29.99 -49.96,38.43l72.79 103.98 -63.29 0zm-1.36 -203.9c0,-20.19 -6.63,-35.72 -19.89,-46.57 -13.26,-10.85 -32.7,-16.28 -58.32,-16.28l-68.72 0 0 126.14 68.72 0c25.62,0 45.06,-5.5 58.32,-16.5 13.26,-11 19.89,-26.6 19.89,-46.79zm222.88 208.42c-24.41,0 -48,-3.47 -70.75,-10.4 -22.76,-6.93 -40.77,-16.13 -54.03,-27.58l20.34 -45.66c12.96,10.25 28.86,18.61 47.7,25.09 18.84,6.48 37.75,9.72 56.74,9.72 23.51,0 41.07,-3.77 52.67,-11.3 11.6,-7.54 17.4,-17.48 17.4,-29.84 0,-9.04 -3.24,-16.5 -9.72,-22.38 -6.48,-5.88 -14.7,-10.47 -24.64,-13.79 -9.95,-3.31 -23.51,-7.08 -40.69,-11.3 -24.11,-5.73 -43.63,-11.45 -58.55,-17.18 -14.92,-5.73 -27.73,-14.7 -38.43,-26.9 -10.7,-12.21 -16.05,-28.71 -16.05,-49.5 0,-17.48 4.75,-33.38 14.24,-47.7 9.49,-14.31 23.81,-25.69 42.95,-34.13 19.14,-8.44 42.57,-12.66 70.3,-12.66 19.29,0 38.28,2.41 56.96,7.23 18.69,4.82 34.81,11.75 48.37,20.8l-18.54 45.66c-13.87,-8.14 -28.33,-14.32 -43.4,-18.54 -15.07,-4.22 -29.69,-6.33 -43.85,-6.33 -23.21,0 -40.46,3.92 -51.76,11.75 -11.3,7.84 -16.96,18.23 -16.96,31.19 0,9.04 3.24,16.43 9.72,22.15 6.48,5.73 14.69,10.25 24.64,13.56 9.95,3.31 23.51,7.08 40.69,11.3 23.51,5.43 42.8,11.07 57.87,16.95 15.07,5.88 27.96,14.84 38.66,26.9 10.7,12.06 16.05,28.33 16.05,48.83 0,17.48 -4.75,33.31 -14.24,47.47 -9.49,14.16 -23.89,25.47 -43.18,33.91 -19.29,8.44 -42.8,12.66 -70.53,12.66zm423.62 -53.8l0 49.28 -237.35 0 0 -316.47 231.02 0 0 49.28 -172.25 0 0 82.28 152.81 0 0 48.37 -152.81 0 0 87.26 178.58 0zm210.68 53.8c-31.95,0 -60.81,-7.01 -86.58,-21.02 -25.77,-14.02 -45.96,-33.38 -60.58,-58.09 -14.62,-24.72 -21.93,-52.59 -21.93,-83.64 0,-31.05 7.38,-58.92 22.15,-83.64 14.77,-24.72 35.04,-44.08 60.81,-58.1 25.77,-14.02 54.63,-21.02 86.58,-21.02 25.92,0 49.58,4.52 70.98,13.56 21.4,9.04 39.48,22.15 54.25,39.33l-37.98 35.72c-22.91,-24.72 -51.09,-37.07 -84.54,-37.07 -21.7,0 -41.14,4.75 -58.32,14.24 -17.18,9.49 -30.59,22.68 -40.24,39.56 -9.64,16.88 -14.47,36.02 -14.47,57.42 0,21.4 4.82,40.54 14.47,57.42 9.64,16.88 23.06,30.06 40.24,39.56 17.18,9.49 36.62,14.24 58.32,14.24 33.46,0 61.64,-12.51 84.54,-37.52l37.98 36.17c-14.77,17.18 -32.93,30.29 -54.48,39.33 -21.55,9.04 -45.29,13.56 -71.21,13.56zm242.78 -271.26l-104.89 0 0 -49.73 268.55 0 0 49.73 -104.89 0 0 266.74 -58.77 0 0 -266.74zm539.35 217.01l0 49.73 -233.28 0 0 -39.33 125.68 -119.35c14.16,-13.56 23.74,-25.39 28.71,-35.49 4.97,-10.1 7.46,-20.12 7.46,-30.06 0,-14.77 -4.97,-26.07 -14.92,-33.91 -9.95,-7.84 -24.56,-11.75 -43.85,-11.75 -32.25,0 -56.96,11 -74.14,33l-41.14 -31.65c12.36,-16.58 29.01,-29.46 49.96,-38.66 20.95,-9.19 44.38,-13.79 70.3,-13.79 34.36,0 61.79,8.14 82.28,24.41 20.49,16.28 30.74,38.43 30.74,66.46 0,17.18 -3.62,33.31 -10.85,48.37 -7.23,15.07 -21.1,32.25 -41.59,51.54l-84.54 80.47 149.19 0zm164.56 54.25c-25.32,0 -47.92,-6.4 -67.81,-19.22 -19.89,-12.81 -35.57,-31.49 -47.02,-56.06 -11.45,-24.56 -17.18,-53.72 -17.18,-87.48 0,-33.76 5.73,-62.92 17.18,-87.48 11.45,-24.56 27.13,-43.25 47.02,-56.06 19.89,-12.81 42.5,-19.21 67.81,-19.21 25.32,0 48,6.4 68.04,19.21 20.04,12.81 35.79,31.5 47.24,56.06 11.45,24.57 17.18,53.73 17.18,87.48 0,33.76 -5.73,62.92 -17.18,87.48 -11.45,24.57 -27.2,43.25 -47.24,56.06 -20.05,12.81 -42.73,19.22 -68.04,19.22zm0 -51.09c22.6,0 40.46,-9.34 53.58,-28.03 13.11,-18.69 19.66,-46.57 19.66,-83.64 0,-37.07 -6.55,-64.95 -19.66,-83.64 -13.11,-18.69 -30.97,-28.03 -53.58,-28.03 -22.3,0 -40.01,9.34 -53.12,28.03 -13.11,18.69 -19.67,46.57 -19.67,83.64 0,37.07 6.56,64.95 19.67,83.64 13.11,18.69 30.82,28.03 53.12,28.03zm399.2 -3.16l0 49.73 -233.28 0 0 -39.33 125.68 -119.35c14.16,-13.56 23.74,-25.39 28.71,-35.49 4.97,-10.1 7.46,-20.12 7.46,-30.06 0,-14.77 -4.97,-26.07 -14.92,-33.91 -9.95,-7.84 -24.56,-11.75 -43.85,-11.75 -32.25,0 -56.96,11 -74.14,33l-41.14 -31.65c12.36,-16.58 29.01,-29.46 49.96,-38.66 20.95,-9.19 44.38,-13.79 70.3,-13.79 34.36,0 61.79,8.14 82.28,24.41 20.49,16.28 30.74,38.43 30.74,66.46 0,17.18 -3.62,33.31 -10.85,48.37 -7.23,15.07 -21.1,32.25 -41.59,51.54l-84.54 80.47 149.19 0zm132.92 -144.22c44.61,0 77.61,8.66 99.01,25.99 21.4,17.33 32.1,40.92 32.1,70.76 0,18.99 -4.67,36.17 -14.02,51.54 -9.34,15.37 -23.36,27.58 -42.05,36.62 -18.69,9.04 -41.74,13.56 -69.17,13.56 -22.6,0 -44.46,-3.24 -65.55,-9.72 -21.1,-6.48 -38.88,-15.45 -53.35,-26.9l24.87 -45.66c11.75,9.64 25.84,17.25 42.27,22.83 16.43,5.58 33.38,8.37 50.86,8.37 20.8,0 37.15,-4.3 49.05,-12.89 11.9,-8.59 17.86,-20.42 17.86,-35.49 0,-16.28 -6.4,-28.56 -19.21,-36.85 -12.81,-8.29 -34.74,-12.43 -65.78,-12.43l-76.4 0 16.28 -172.25 185.81 0 0 49.28 -136.08 0 -6.78 73.24 30.29 0z"/>
  </g>
 </g>
</svg>
