<?xml version="1.0" encoding="UTF-8"?>
<!DOCTYPE svg PUBLIC "-//W3C//DTD SVG 1.1//EN" "http://www.w3.org/Graphics/SVG/1.1/DTD/svg11.dtd">
<!-- Creator: CorelDRAW (Evaluation Version) -->
<svg xmlns="http://www.w3.org/2000/svg" xml:space="preserve" width="2.2131in" height="1.37757in" version="1.1" style="shape-rendering:geometricPrecision; text-rendering:geometricPrecision; image-rendering:optimizeQuality; fill-rule:evenodd; clip-rule:evenodd"
viewBox="0 0 687.58 427.99"
 xmlns:xlink="http://www.w3.org/1999/xlink"
 xmlns:xodm="http://www.corel.com/coreldraw/odm/2003">
 <defs>
  <style type="text/css">
   <![CDATA[
    .fil0 {fill:#95AB95}
   ]]>
  </style>
 </defs>
 <g id="Layer_x0020_1">
  <metadata id="CorelCorpID_0Corel-Layer"/>
  <path class="fil0" d="M233.75 95.41l219.06 0 0 332.59 -42.91 0 0 -159.4c0,-32.08 -26.24,-58.32 -58.32,-58.32l-18.02 0c-32.6,0 -59.27,26.67 -59.27,59.27l0 158.45 -40.54 0 0 -332.59zm321.51 45.52l132.32 0 -132.32 -69.23 -96.17 50.31 0 18.92 96.17 0zm-96.17 8.53l211.83 0 0 278.53 -211.83 0 0 -278.53zm-326.77 -8.53l95.15 0 0 -19.45 -95.15 -49.78 -132.32 69.23 132.32 0zm-116.67 8.53l211.82 0 0 278.53 -211.82 0 0 -278.53zm325.26 -64.01l122.8 0 -122.8 -85.45 -122.8 85.45 122.8 0zm71.71 54.25c9.54,1.32 17.1,8.87 18.41,18.41l-18.41 0 0 -18.41zm18.41 24.34c-1.31,9.54 -8.86,17.09 -18.41,18.41l0 -18.41 18.41 0zm-24.33 18.41c-9.54,-1.31 -17.1,-8.86 -18.41,-18.41l18.41 0 0 18.41zm-18.41 -24.33c1.31,-9.54 8.86,-17.09 18.41,-18.41l0 18.41 -18.41 0zm-109.37 -18.41c9.54,1.32 17.09,8.87 18.41,18.41l-18.41 0 0 -18.41zm18.41 24.34c-1.31,9.54 -8.86,17.09 -18.41,18.41l0 -18.41 18.41 0zm-24.33 18.41c-9.54,-1.31 -17.09,-8.86 -18.41,-18.41l18.41 0 0 18.41zm-18.41 -24.33c1.31,-9.54 8.86,-17.09 18.41,-18.41l0 18.41 -18.41 0zm108.97 -51.68l7 0 0 38.41 -7 0 0 -38.41zm-24.42 0l6.99 0 0 38.41 -6.99 0 0 -38.41zm-24.42 0l6.99 0 0 38.41 -6.99 0 0 -38.41z"/>
 </g>
</svg>
