<svg xmlns="http://www.w3.org/2000/svg" version="1.1" xmlns:xlink="http://www.w3.org/1999/xlink" xmlns:svgjs="http://svgjs.dev/svgjs" width="6.8591in" height="3.98864in"><svg xmlns="http://www.w3.org/2000/svg" xml:space="preserve" width="6.8591in" height="3.98864in" version="1.1" style="shape-rendering:geometricPrecision; text-rendering:geometricPrecision; image-rendering:optimizeQuality; fill-rule:evenodd; clip-rule:evenodd" viewBox="0 0 6156.61 3580.14" xmlns:xlink="http://www.w3.org/1999/xlink" xmlns:xodm="http://www.corel.com/coreldraw/odm/2003">
 <defs>
  <style type="text/css">
   
    .str0 {stroke:white;stroke-width:6.23;stroke-miterlimit:2.61313}
    .fil11 {fill:white}
    .fil10 {fill:white}
    .fil9 {fill:#84BC13}
    .fil1 {fill:#FEFEFE;fill-rule:nonzero}
    .fil3 {fill:url(#id0);fill-rule:nonzero}
    .fil2 {fill:url(#id1);fill-rule:nonzero}
    .fil0 {fill:url(#id2);fill-rule:nonzero}
    .fil7 {fill:url(#id3);fill-rule:nonzero}
    .fil5 {fill:url(#id4);fill-rule:nonzero}
    .fil4 {fill:url(#id5);fill-rule:nonzero}
    .fil8 {fill:url(#id6);fill-rule:nonzero}
    .fil6 {fill:url(#id7);fill-rule:nonzero}
   
  </style>
  <linearGradient id="SvgjsLinearGradient1021" gradientUnits="userSpaceOnUse" x1="4717.97" y1="3215.4" x2="4717.97" y2="2008.4">
   <stop offset="0" style="stop-opacity:1; stop-color:#DBDADF"></stop>
   <stop offset="0.270588" style="stop-opacity:1; stop-color:#EDECEF"></stop>
   <stop offset="1" style="stop-opacity:1; stop-color:white"></stop>
  </linearGradient>
  <linearGradient id="SvgjsLinearGradient1020" gradientUnits="userSpaceOnUse" xlink:href="#id0" x1="4337.63" y1="3002.23" x2="4337.63" y2="1795.22">
  </linearGradient>
  <linearGradient id="SvgjsLinearGradient1019" gradientUnits="userSpaceOnUse" x1="3111.09" y1="3752.6" x2="3035.69" y2="-761.13">
   <stop offset="0" style="stop-opacity:1; stop-color:#004B2D"></stop>
   <stop offset="1" style="stop-opacity:1; stop-color:#0A723D"></stop>
  </linearGradient>
  <linearGradient id="SvgjsLinearGradient1018" gradientUnits="userSpaceOnUse" xlink:href="#id0" x1="5473.88" y1="2279.81" x2="5540.35" y2="1589.16">
  </linearGradient>
  <linearGradient id="SvgjsLinearGradient1017" gradientUnits="userSpaceOnUse" xlink:href="#id0" x1="3630.18" y1="2405.34" x2="3743.03" y2="1232.75">
  </linearGradient>
  <linearGradient id="SvgjsLinearGradient1016" gradientUnits="userSpaceOnUse" xlink:href="#id0" x1="3164.58" y1="5372.74" x2="3057.11" y2="3154.86">
  </linearGradient>
  <linearGradient id="SvgjsLinearGradient1015" gradientUnits="userSpaceOnUse" xlink:href="#id0" x1="5473.88" y1="2279.82" x2="5540.35" y2="1589.16">
  </linearGradient>
  <linearGradient id="SvgjsLinearGradient1014" gradientUnits="userSpaceOnUse" xlink:href="#id0" x1="3630.18" y1="2405.34" x2="3743.03" y2="1232.75">
  </linearGradient>
 </defs>
 <g id="SvgjsG1013">
  <metadata id="SvgjsMetadata1012"></metadata>
  <g id="SvgjsG1011">
   <g>
    <polygon class="fil0" points="5856.72,3580.14 6156.61,3578.65 6154.72,0 -0,28.36 1.35,3580.14 "></polygon>
    <path class="fil1" d="M5471.86 2453.23c4.42,-16.41 -209.27,-215.34 -254.28,-257.02 -5.39,-4.99 -12.1,-8.27 -19.34,-9.47l-105.18 -17.51c-1.21,-27.45 -19.94,-50.12 -45.35,-57.38 6.42,-138.2 20.16,-466.57 5.66,-462.7 -16.42,4.38 -81.82,288.91 -95.4,348.74 -1.63,7.16 -1.11,14.61 1.47,21.48l37.41 99.76c-17.46,11.16 -29.12,30.6 -29.12,52.85 0,5.28 0.85,10.33 2.07,15.23 -122.87,63.52 -414.08,215.76 -403.48,226.38 12,12.03 291.12,-73.58 349.72,-91.73 7.01,-2.17 13.21,-6.34 17.87,-12.01l67.79 -82.38c0.35,0.18 0.68,0.39 1.03,0.56l-63.55 944.58 91.35 0 91.36 0 -63.55 -944.58c5.83,-2.9 11.21,-6.52 15.84,-11 116.5,74.69 393.79,250.69 397.69,236.2z"></path>
    <path class="fil1" d="M828.56 2370.04c3.65,-13.58 -173.15,-178.17 -210.39,-212.65 -4.46,-4.12 -10.01,-6.84 -16,-7.84l-87.03 -14.49c-1,-22.71 -16.5,-41.46 -37.53,-47.47 5.31,-114.35 16.68,-386.03 4.69,-382.84 -13.59,3.63 -67.69,239.05 -78.93,288.54 -1.34,5.92 -0.92,12.09 1.22,17.77l30.95 82.54c-14.45,9.23 -24.09,25.31 -24.09,43.73 0,4.37 0.7,8.54 1.72,12.6 -101.67,52.56 -342.61,178.52 -333.84,187.31 9.93,9.95 240.87,-60.88 289.36,-75.9 5.8,-1.8 10.93,-5.25 14.79,-9.94l56.08 -68.16c0.29,0.15 0.57,0.32 0.86,0.46l-46.82 743.99 133.84 -92.29 -41.01 -651.7c4.82,-2.4 9.28,-5.4 13.1,-9.1 96.39,61.8 325.82,207.42 329.05,195.43z"></path>
    <path class="fil1" d="M2822.19 1786.77l0 -67.47 -41.23 0 0 -67.47 -108.7 0 0 -217.4 -29.98 0 0 217.4 -108.7 0 0 67.47 -41.23 0 0 67.47 -37.48 0 0 1210.68 404.81 0 0 -1210.68 -37.48 0zm0 1120.72l0 0 -329.85 0 0 -29.98 329.85 0 0 29.98zm0 -61.84l0 0 -329.85 0 0 -29.98 329.85 0 0 29.98zm0 -61.84l0 0 -329.85 0 0 -29.99 329.85 0 0 29.99zm0 -61.85l0 0 -329.85 0 0 -29.98 329.85 0 0 29.98zm0 -61.84l0 0 -329.85 0 0 -29.99 329.85 0 0 29.99zm0 -61.84l0 0 -329.85 0 0 -29.99 329.85 0 0 29.99zm0 -61.85l0 0 -329.85 0 0 -29.98 329.85 0 0 29.98zm0 -61.84l0 0 -329.85 0 0 -29.99 329.85 0 0 29.99zm0 -61.84l0 0 -329.85 0 0 -29.99 329.85 0 0 29.99zm0 -61.85l0 0 -329.85 0 0 -29.98 329.85 0 0 29.98zm0 -61.84l0 0 -329.85 0 0 -29.98 329.85 0 0 29.98zm0 -61.84l0 0 -329.85 0 0 -29.99 329.85 0 0 29.99zm0 -61.85l0 0 -329.85 0 0 -29.98 329.85 0 0 29.98zm0 -61.84l0 0 -329.85 0 0 -29.99 329.85 0 0 29.99zm0 -61.84l0 0 -329.85 0 0 -29.99 329.85 0 0 29.99zm0 -61.85l0 0 -329.85 0 0 -29.98 329.85 0 0 29.98zm0 -61.84l0 0 -329.85 0 0 -29.99 329.85 0 0 29.99zm0 -61.85l0 0 -329.85 0 0 -29.98 329.85 0 0 29.98z"></path>
    <path class="fil2" d="M4167.4 1839.36l0 1228.71 340.47 0 0 -1453.07 -340.47 224.36zm78.09 1157.8l0 0 -43.1 0 0 -36.77 43.1 0 0 36.77zm0 -72.47l0 0 -43.1 0 0 -36.77 43.1 0 0 36.77zm0 -72.47l0 0 -43.1 0 0 -36.77 43.1 0 0 36.77zm0 -62.87l0 0 -43.1 0 0 -36.76 43.1 0 0 36.76zm0 -62.87l0 0 -43.1 0 0 -36.76 43.1 0 0 36.76zm0 -62.87l0 0 -43.1 0 0 -36.76 43.1 0 0 36.76zm0 -62.87l0 0 -43.1 0 0 -36.77 43.1 0 0 36.77zm0 -62.87l0 0 -43.1 0 0 -36.77 43.1 0 0 36.77zm0 -62.87l0 0 -43.1 0 0 -36.77 43.1 0 0 36.77zm0 -62.87l0 0 -43.1 0 0 -36.77 43.1 0 0 36.77zm0 -62.87l0 0 -43.1 0 0 -36.77 43.1 0 0 36.77zm0 -62.87l0 0 -43.1 0 0 -36.76 43.1 0 0 36.76zm0 -62.87l0 0 -43.1 0 0 -36.77 43.1 0 0 36.77zm0 -62.87l0 0 -43.1 0 0 -36.77 43.1 0 0 36.77zm0 -62.87l0 0 -43.1 0 0 -36.77 43.1 0 0 36.77zm0 -62.87l0 0 -43.1 0 0 -36.77 43.1 0 0 36.77zm0 -62.87l0 0 -43.1 0 0 -36.76 43.1 0 0 36.76zm0 -62.87l0 0 -43.1 0 0 -36.76 43.1 0 0 36.76zm227.71 1088.03l0 0 -197.72 0 0 -36.77 197.72 0 0 36.77zm0 -72.47l0 0 -197.72 0 0 -36.77 197.72 0 0 36.77zm0 -72.47l0 0 -197.72 0 0 -36.77 197.72 0 0 36.77zm0 -62.87l0 0 -197.72 0 0 -36.76 197.72 0 0 36.76zm0 -62.87l0 0 -197.72 0 0 -36.76 197.72 0 0 36.76zm0 -62.87l0 0 -197.72 0 0 -36.76 197.72 0 0 36.76zm0 -62.87l0 0 -197.72 0 0 -36.77 197.72 0 0 36.77zm0 -62.87l0 0 -197.72 0 0 -36.77 197.72 0 0 36.77zm0 -62.87l0 0 -197.72 0 0 -36.77 197.72 0 0 36.77zm0 -62.87l0 0 -197.72 0 0 -36.77 197.72 0 0 36.77zm0 -62.87l0 0 -197.72 0 0 -36.77 197.72 0 0 36.77zm0 -62.87l0 0 -197.72 0 0 -36.76 197.72 0 0 36.76zm0 -62.87l0 0 -197.72 0 0 -36.77 197.72 0 0 36.77zm0 -62.87l0 0 -197.72 0 0 -36.77 197.72 0 0 36.77zm0 -62.87l0 0 -197.72 0 0 -36.77 197.72 0 0 36.77zm0 -62.87l0 0 -197.72 0 0 -36.77 197.72 0 0 36.77zm0 -62.87l0 0 -197.72 0 0 -36.76 197.72 0 0 36.76zm0 -62.87l0 0 -197.72 0 0 -36.76 197.72 0 0 36.76z"></path>
    <path class="fil1" d="M2256.93 2021.68l0 -258.63 -47.79 0 0 -76.84 -256.75 0 0 76.84 -47.79 0 0 258.63 -121.82 0 0 1139.47 121.82 0 16.24 0 324.85 0 11.24 0 121.82 0 0 -1139.47 -121.82 0zm-392.31 1081.89l0 0 -42.48 0 0 -42.48 42.48 0 0 42.48zm0 -82.45l0 0 -42.48 0 0 -42.48 42.48 0 0 42.48zm0 -82.45l0 0 -42.48 0 0 -42.48 42.48 0 0 42.48zm0 -82.45l0 0 -42.48 0 0 -42.48 42.48 0 0 42.48zm0 -82.45l0 0 -42.48 0 0 -42.48 42.48 0 0 42.48zm0 -82.45l0 0 -42.48 0 0 -42.48 42.48 0 0 42.48zm0 -82.45l0 0 -42.48 0 0 -42.48 42.48 0 0 42.48zm0 -82.45l0 0 -42.48 0 0 -42.48 42.48 0 0 42.48zm0 -82.45l0 0 -42.48 0 0 -42.48 42.48 0 0 42.48zm0 -82.45l0 0 -42.48 0 0 -42.48 42.48 0 0 42.48zm0 -82.45l0 0 -42.48 0 0 -42.48 42.48 0 0 42.48zm0 -82.45l0 0 -42.48 0 0 -42.48 42.48 0 0 42.48zm0 -82.45l0 0 -42.48 0 0 -42.48 42.48 0 0 42.48zm366.08 997.03l0 0 -299.86 0 0 -36.82 299.86 0 0 36.82zm0 -83.76l0 0 -299.86 0 0 -36.82 299.86 0 0 36.82zm0 -83.77l0 0 -299.86 0 0 -36.82 299.86 0 0 36.82zm0 -83.76l0 0 -299.86 0 0 -36.82 299.86 0 0 36.82zm0 -83.76l0 0 -299.86 0 0 -36.82 299.86 0 0 36.82zm0 -83.77l0 0 -299.86 0 0 -36.82 299.86 0 0 36.82zm0 -83.76l0 0 -299.86 0 0 -36.82 299.86 0 0 36.82zm0 -83.76l0 0 -299.86 0 0 -36.82 299.86 0 0 36.82zm0 -83.76l0 0 -299.86 0 0 -36.82 299.86 0 0 36.82zm0 -83.77l0 0 -299.86 0 0 -36.82 299.86 0 0 36.82zm0 -83.76l0 0 -299.86 0 0 -36.82 299.86 0 0 36.82zm0 -83.77l0 0 -299.86 0 0 -36.82 299.86 0 0 36.82zm0 -83.76l0 0 -299.86 0 0 -36.82 299.86 0 0 36.82zm0 -94.85l0 0 -299.86 0 0 -36.82 299.86 0 0 36.82zm0 -83.76l0 0 -299.86 0 0 -36.82 299.86 0 0 36.82zm0 -83.76l0 0 -299.86 0 0 -36.82 299.86 0 0 36.82zm108.7 1259.97l0 0 -42.48 0 0 -42.48 42.48 0 0 42.48zm0 -82.45l0 0 -42.48 0 0 -42.48 42.48 0 0 42.48zm0 -82.45l0 0 -42.48 0 0 -42.48 42.48 0 0 42.48zm0 -82.45l0 0 -42.48 0 0 -42.48 42.48 0 0 42.48zm0 -82.45l0 0 -42.48 0 0 -42.48 42.48 0 0 42.48zm0 -82.45l0 0 -42.48 0 0 -42.48 42.48 0 0 42.48zm0 -82.45l0 0 -42.48 0 0 -42.48 42.48 0 0 42.48zm0 -82.45l0 0 -42.48 0 0 -42.48 42.48 0 0 42.48zm0 -82.45l0 0 -42.48 0 0 -42.48 42.48 0 0 42.48zm0 -82.45l0 0 -42.48 0 0 -42.48 42.48 0 0 42.48zm0 -82.45l0 0 -42.48 0 0 -42.48 42.48 0 0 42.48zm0 -82.45l0 0 -42.48 0 0 -42.48 42.48 0 0 42.48zm0 -82.45l0 0 -42.48 0 0 -42.48 42.48 0 0 42.48z"></path>
    <path class="fil1" d="M1305.77 2196.04l0 592.73 152.5 0 0.7 0.48 71.6 0 0 23.54 0 0 -37.46 0 34.14 23.54 3.33 0 0 2.29 13.34 9.2 0 -11.49 47.87 0 0 23.54 0 0 -30.39 0 48.05 33.13 0 -696.96 -303.67 0zm224.81 569.67l0 0 -207.15 0 0 -23.54 207.15 0 0 23.54zm0 -47.08l0 0 -207.15 0 0 -23.54 207.15 0 0 23.54zm0 -47.08l0 0 -207.15 0 0 -23.54 207.15 0 0 23.54zm0 -47.08l0 0 -207.15 0 0 -23.54 207.15 0 0 23.54zm0 -47.08l0 0 -207.15 0 0 -23.54 207.15 0 0 23.54zm0 -47.08l0 0 -207.15 0 0 -23.54 207.15 0 0 23.54zm0 -47.08l0 0 -207.15 0 0 -23.54 207.15 0 0 23.54zm0 -47.08l0 0 -207.15 0 0 -23.54 207.15 0 0 23.54zm0 -47.08l0 0 -207.15 0 0 -23.54 207.15 0 0 23.54zm0 -47.08l0 0 -207.15 0 0 -23.54 207.15 0 0 23.54zm0 -47.08l0 0 -207.15 0 0 -23.54 207.15 0 0 23.54zm0 -47.08l0 0 -207.15 0 0 -23.54 207.15 0 0 23.54zm61.21 564.96l0 0 -47.87 0 0 -23.54 47.87 0 0 23.54zm0 -47.08l0 0 -47.87 0 0 -23.54 47.87 0 0 23.54zm0 -47.08l0 0 -47.87 0 0 -23.54 47.87 0 0 23.54zm0 -47.08l0 0 -47.87 0 0 -23.54 47.87 0 0 23.54zm0 -47.08l0 0 -47.87 0 0 -23.54 47.87 0 0 23.54zm0 -47.08l0 0 -47.87 0 0 -23.54 47.87 0 0 23.54zm0 -47.08l0 0 -47.87 0 0 -23.54 47.87 0 0 23.54zm0 -47.08l0 0 -47.87 0 0 -23.54 47.87 0 0 23.54zm0 -47.08l0 0 -47.87 0 0 -23.54 47.87 0 0 23.54zm0 -47.08l0 0 -47.87 0 0 -23.54 47.87 0 0 23.54zm0 -47.08l0 0 -47.87 0 0 -23.54 47.87 0 0 23.54zm0 -47.08l0 0 -47.87 0 0 -23.54 47.87 0 0 23.54zm0 -47.08l0 0 -47.87 0 0 -23.54 47.87 0 0 23.54z"></path>
    <path class="fil1" d="M5718.38 2801.9c1.04,-2.77 1.64,-5.77 1.64,-8.91 0,-7.72 -3.46,-14.62 -8.9,-19.28 7.48,-4.41 12.52,-12.53 12.52,-21.85 0,-14.02 -11.36,-25.38 -25.37,-25.38 -1.24,0 -2.45,0.12 -3.64,0.29 0,-0.1 0.01,-0.19 0.01,-0.29 0,-11.64 -9.16,-21.13 -20.67,-21.69 1.61,-3.34 2.54,-7.06 2.54,-11.01 0,-14.02 -11.36,-25.37 -25.37,-25.37 -3.02,0 -5.9,0.55 -8.59,1.52 -2.54,-9.18 -10.94,-15.94 -20.94,-15.94 -0.45,0 -0.88,0.04 -1.32,0.07 0.84,-2.31 1.32,-4.8 1.32,-7.4 0,-12.01 -9.74,-21.75 -21.75,-21.75 -9.6,0 -17.73,6.23 -20.62,14.86 -3.96,-4.18 -9.56,-6.81 -15.78,-6.81 -5.43,0 -10.39,2 -14.2,5.3 -0.56,-11.51 -10.05,-20.68 -21.7,-20.68 -9.26,0 -17.15,5.8 -20.28,13.96 -3.95,-4.08 -9.48,-6.62 -15.61,-6.62 -2.8,0 -5.46,0.55 -7.92,1.51 -3.01,-8.41 -11.02,-14.44 -20.46,-14.44 -3.94,0 -7.62,1.06 -10.81,2.9 -4.58,-6.59 -12.2,-10.92 -20.84,-10.92 -14.02,0 -25.37,11.36 -25.37,25.37 0,0.11 0.01,0.22 0.01,0.33 -3.72,-2.96 -8.42,-4.75 -13.54,-4.75 -5.28,0 -10.12,1.89 -13.89,5.02 -5.27,-7.46 -13.94,-12.35 -23.77,-12.35 -16.06,0 -29.09,13.02 -29.09,29.09 0,3.1 0.49,6.09 1.39,8.89 -8.9,2.53 -15.46,10.57 -15.77,20.2 -0.01,0 -0.02,0 -0.04,0 -14.01,0 -25.37,11.36 -25.37,25.37 0,6.33 2.34,12.11 6.17,16.55 -11.01,2.77 -19.17,12.71 -19.17,24.58 0,10.96 6.97,20.27 16.7,23.82 -0.04,0.52 -0.08,1.03 -0.08,1.55 0,3.12 0.67,6.07 1.85,8.76 -0.61,-0.05 -1.23,-0.1 -1.85,-0.1 -13.72,0 -24.87,10.9 -25.33,24.51 -0.01,0 -0.03,-0 -0.04,-0 -12.01,0 -21.75,9.74 -21.75,21.75 0,11.26 8.55,20.52 19.51,21.64 -0.88,2.58 -1.39,5.34 -1.39,8.23 0,14.01 11.36,25.37 25.37,25.37 1.33,0 2.63,-0.13 3.9,-0.33 1.59,10.44 10.58,18.45 21.47,18.45 1.24,0 2.46,-0.13 3.64,-0.33 -0,0.11 -0.02,0.22 -0.02,0.33 0,12.01 9.74,21.75 21.75,21.75 10,0 18.41,-6.76 20.94,-15.96 3.64,2.76 8.17,4.41 13.09,4.41 3.03,0 5.89,-0.66 8.51,-1.78l92.57 98.02 0 289.75 31.85 0 0 -309.12 83.2 -88.1c5.03,-0.39 9.66,-2.17 13.45,-5.06 2.43,9.36 10.91,16.28 21.03,16.28 11.22,0 20.45,-8.5 21.62,-19.4 2.49,0.82 5.15,1.28 7.91,1.28 13.1,0 23.87,-9.93 25.22,-22.66 1.76,0.46 3.59,0.72 5.48,0.72 12.01,0 21.75,-9.74 21.75,-21.75 0,-0.52 -0.04,-1.04 -0.08,-1.55 2.49,0.99 5.19,1.55 8.03,1.55 12.01,0 21.75,-9.74 21.75,-21.75 0,-9.63 -6.26,-17.78 -14.93,-20.64zm-313.44 105.88l0 0c2.96,1.21 6.17,1.95 9.57,1.95 14.01,0 25.37,-11.36 25.37,-25.37 0,-1.34 -0.13,-2.65 -0.34,-3.93 0.66,0.06 1.34,0.1 2.01,0.1 6.21,0 11.79,-2.61 15.75,-6.78 1.26,8.17 7.09,14.79 14.78,17.29l0 87.86 -67.15 -71.11zm99 4.63l0 0c2.08,0.55 4.23,0.94 6.49,0.94 12.9,0 23.53,-9.64 25.14,-22.1 1.95,0.58 4.01,0.9 6.16,0.9 8.93,0 16.59,-5.39 19.94,-13.09 1.71,4.27 4.57,7.92 8.16,10.68l-65.89 69.77 0 -47.11z"></path>
    <path class="fil3" d="M4872.74 2703.95c0.98,-2.6 1.53,-5.4 1.53,-8.34 0,-7.23 -3.24,-13.7 -8.34,-18.06 7.01,-4.13 11.73,-11.74 11.73,-20.47 0,-13.13 -10.64,-23.77 -23.77,-23.77 -1.16,0 -2.29,0.11 -3.41,0.27 0,-0.09 0.01,-0.18 0.01,-0.27 0,-10.91 -8.58,-19.79 -19.36,-20.32 1.51,-3.12 2.38,-6.62 2.38,-10.32 0,-13.13 -10.64,-23.77 -23.77,-23.77 -2.83,0 -5.53,0.52 -8.04,1.42 -2.39,-8.6 -10.26,-14.93 -19.62,-14.93 -0.42,0 -0.83,0.04 -1.24,0.06 0.78,-2.17 1.24,-4.5 1.24,-6.94 0,-11.25 -9.12,-20.37 -20.38,-20.37 -5.93,0 -11.26,2.55 -14.98,6.6 -0.5,-10.81 -9.39,-19.44 -20.33,-19.44 -11.25,0 -20.37,9.12 -20.37,20.38 0,0.66 0.04,1.32 0.1,1.97 -3.61,-5.71 -9.96,-9.51 -17.22,-9.51 -11.25,0 -20.37,9.12 -20.37,20.37 0,2.44 0.45,4.77 1.24,6.94 -0.41,-0.02 -0.82,-0.06 -1.24,-0.06 -9.36,0 -17.23,6.33 -19.62,14.93 -2.52,-0.9 -5.22,-1.42 -8.04,-1.42 -13.13,0 -23.77,10.64 -23.77,23.77 0,3.7 0.87,7.19 2.39,10.32 -10.78,0.53 -19.37,9.41 -19.37,20.32 0,0.09 0.01,0.18 0.01,0.27 -1.12,-0.16 -2.25,-0.27 -3.41,-0.27 -13.13,0 -23.77,10.64 -23.77,23.77 0,2.84 0.52,5.55 1.43,8.07 -0.48,-0.03 -0.95,-0.07 -1.43,-0.07 -13.13,0 -23.77,10.64 -23.77,23.77 0,11.2 7.75,20.56 18.17,23.08 -2.18,3.24 -3.46,7.15 -3.46,11.35 0,11.25 9.12,20.37 20.37,20.37 2.66,0 5.2,-0.52 7.53,-1.45 -0.04,0.48 -0.07,0.96 -0.07,1.45 0,11.26 9.12,20.38 20.38,20.38 1.78,0 3.49,-0.25 5.14,-0.68 1.27,11.93 11.36,21.23 23.63,21.23 2.59,0 5.07,-0.43 7.41,-1.19 0.23,2.15 0.83,4.17 1.67,6.06 3.34,12.49 14.7,21.7 28.24,21.7 11.16,0 20.86,-6.25 25.79,-15.44 2.33,6.13 7.53,10.81 13.96,12.46l0 338.87 35.97 0 0 -346.1c5.34,5.77 12.91,9.46 21.39,9.46 15.21,0 27.7,-11.6 29.12,-26.44 1.7,0.4 3.48,0.62 5.3,0.62 12.27,0 22.36,-9.3 23.63,-21.23 1.64,0.43 3.36,0.68 5.14,0.68 11.25,0 20.37,-9.12 20.37,-20.38 0,-0.49 -0.04,-0.97 -0.07,-1.45 2.33,0.93 4.87,1.45 7.53,1.45 11.26,0 20.38,-9.12 20.38,-20.37 0,-9.02 -5.87,-16.65 -13.99,-19.34z"></path>
    <path class="fil4" d="M5856.72 3232.57c-261.34,11.54 -525.75,-48.76 -779.34,-131.43 -330.59,-107.77 -652.79,-253.43 -989.4,-331.26 -450.67,-104.2 -932.86,-144.84 -1379.07,2.3 -456.23,150.44 -813.82,451.43 -1310.18,470.47l-1143.82 72.13c39.39,87.44 48.32,177.84 7.66,265.35l5594.15 0 0 -347.57z"></path>
    <g>
     <path class="fil5" d="M3687.85 1776.54l336.88 0c-16.45,-77.94 -85.6,-136.44 -168.44,-136.44 -16.21,0 -31.88,2.29 -46.76,6.48 -23.01,-55.9 -78.01,-95.27 -142.22,-95.27 -84.77,0 -153.51,68.6 -153.76,153.32 -10.86,-3.84 -22.49,-6.05 -34.67,-6.05 -48.42,0 -88.99,33.15 -100.55,77.97l254.32 0 55.19 0z"></path>
     <path class="fil6" d="M3478.89 1703.45c12.18,0 23.81,2.2 34.67,6.05 0.24,-84.72 68.98,-153.32 153.76,-153.32 64.21,0 119.21,39.37 142.22,95.27 14.87,-4.19 30.54,-6.48 46.76,-6.48 81.08,0 148.91,56.11 167.19,131.57l1.25 0c-16.45,-77.94 -85.6,-136.44 -168.44,-136.44 -16.21,0 -31.88,2.29 -46.76,6.48 -23.01,-55.9 -78.01,-95.27 -142.22,-95.27 -84.77,0 -153.51,68.6 -153.76,153.32 -10.86,-3.84 -22.49,-6.05 -34.67,-6.05 -48.42,0 -88.99,33.15 -100.55,77.97l1.48 0c13.16,-42.31 52.43,-73.09 99.07,-73.09z"></path>
    </g>
    <g>
     <path class="fil7" d="M5507.84 1909.45l198.42 0c-9.69,-45.9 -50.42,-80.37 -99.21,-80.37 -9.55,0 -18.78,1.35 -27.54,3.82 -13.55,-32.93 -45.95,-56.12 -83.77,-56.12 -49.93,0 -90.42,40.41 -90.56,90.3 -6.4,-2.27 -13.25,-3.56 -20.42,-3.56 -28.52,0 -52.42,19.53 -59.22,45.92l149.79 0 32.5 0z"></path>
     <path class="fil8" d="M5384.77 1866.4c7.17,0 14.02,1.3 20.42,3.56 0.14,-49.9 40.63,-90.31 90.56,-90.31 37.82,0 70.22,23.19 83.77,56.12 8.76,-2.47 17.99,-3.82 27.54,-3.82 47.76,0 87.71,33.05 98.48,77.5l0.74 0c-9.69,-45.9 -50.42,-80.37 -99.21,-80.37 -9.55,0 -18.78,1.35 -27.54,3.82 -13.55,-32.93 -45.95,-56.12 -83.77,-56.12 -49.93,0 -90.42,40.41 -90.56,90.3 -6.4,-2.27 -13.25,-3.56 -20.42,-3.56 -28.52,0 -52.42,19.53 -59.22,45.92l0.87 0c7.75,-24.92 30.89,-43.05 58.35,-43.05z"></path>
    </g>
    <path class="fil9" d="M1352.55 1474.94c0,0 30.72,-37.55 90.47,-16.21 0,0 -86.2,5.97 -87.05,66.57 0,0 -23.04,-75.1 -110.09,-58.89 44.01,-28.3 68.97,-13.91 106.68,8.53z"></path>
    <path class="fil9" d="M1990.61 1188.73c0,0 30.72,-37.55 90.47,-16.21 0,0 -86.2,5.98 -87.05,66.57 0,0 -23.04,-75.1 -110.09,-58.89 44.01,-28.3 68.97,-13.91 106.68,8.53z"></path>
    <path class="fil9" d="M1333.85 1250.54c0,0 30.73,-37.55 90.47,-16.21 0,0 -86.2,5.97 -87.05,66.57 0,0 -23.04,-75.1 -110.09,-58.89 44.01,-28.3 68.97,-13.91 106.68,8.53z"></path>
    <path class="fil9" d="M1396.27 868.63c0,0 30.72,-37.55 90.46,-16.22 0,0 -86.19,5.98 -87.05,66.57 0,0 -23.04,-75.1 -110.09,-58.89 44.01,-28.3 68.97,-13.91 106.68,8.53z"></path>
    <path class="fil9" d="M1655.85 1225.62c0,0 30.72,-37.55 90.46,-16.21 0,0 -86.2,5.97 -87.05,66.57 0,0 -23.04,-75.1 -110.1,-58.89 44.01,-28.3 68.97,-13.91 106.68,8.53z"></path>
    <path class="fil9" d="M1437.73 1063.48c0,0 30.72,-37.55 90.46,-16.21 0,0 -86.19,5.97 -87.05,66.57 0,0 -23.04,-75.1 -110.09,-58.89 44.01,-28.3 68.97,-13.91 106.68,8.53z"></path>
    <path class="fil9" d="M1667.37 916.23c0,0 30.72,-37.55 90.46,-16.22 0,0 -86.19,5.98 -87.05,66.57 0,0 -23.04,-75.1 -110.09,-58.89 44.01,-28.3 68.97,-13.91 106.68,8.53z"></path>
    <path class="fil9" d="M1680.36 1456.25c0,0 30.72,-37.55 90.46,-16.21 0,0 -86.19,5.97 -87.05,66.57 0,0 -23.04,-75.1 -110.09,-58.89 44.01,-28.3 68.97,-13.91 106.68,8.53z"></path>
    <path class="fil10" d="M1150.25 1349.55l0 1425.55 -88.99 0 0 -1196.57c0,-16.34 -13.36,-29.69 -29.7,-29.69l0 0c-16.34,0 -29.69,13.36 -29.69,29.69l0 1196.57 -65.21 0 0 -1297.78c0,-16.33 -13.35,-29.69 -29.69,-29.69l-0.01 0c-16.33,0 -29.69,13.36 -29.69,29.69l0 1297.78 -21.67 0 -41.25 0 0 -1196.57c0,-16.34 -13.35,-29.69 -29.69,-29.69l-0.01 0c-16.32,0 -29.69,13.36 -29.69,29.69l0 1196.57 -61.65 0 -32.25 0 0 -1425.55 0 -78.61 39.3 -56.78 0 -126.66 163.79 0 82.99 0 163.78 0 0 126.66 39.32 56.78 0 78.61zm-275.19 -474.35l-1.07 -70.78 30.02 -41.78 30.02 41.78 -1.05 69.93c-9.14,-0.72 -18.78,-1.03 -28.97,-0.88 -10.17,0.17 -19.8,0.75 -28.95,1.73zm-165.95 200.84c0,0 -16.92,-188.92 194.9,-192.2 211.84,-3.27 188.91,192.2 188.91,192.2l-383.81 0zm86.53 63.59l0 0c22.38,0 40.68,18.31 40.68,40.67l0 123.67 -81.35 0 0 -123.67c0,-22.37 18.31,-40.67 40.67,-40.67zm109.19 0l0 0c22.38,0 40.68,18.31 40.68,40.67l0 123.67 -81.35 0 0 -123.67c0,-22.37 18.29,-40.67 40.67,-40.67zm110.83 0l0.01 0c22.37,0 40.67,18.31 40.67,40.67l0 123.67 -81.35 0 0 -123.67c0,-22.37 18.3,-40.67 40.67,-40.67z"></path>
    <path class="fil10" d="M387.32 3025.11l1282.16 0 0 283.08 -62.28 0 0 -200.95c0,-23.18 -28.33,-42.14 -62.93,-42.14l-0 0c-34.6,0 -62.93,18.97 -62.93,42.14l0 200.95 -47.08 0 0 -200.95c0,-23.18 -28.33,-42.14 -62.93,-42.14l-0.01 0c-34.6,0 -62.93,18.97 -62.93,42.14l0 200.95 -47.08 0 0 -200.95c0,-23.18 -28.33,-42.14 -62.93,-42.14l-0 0c-34.61,0 -62.93,18.97 -62.93,42.14l0 200.95 -47.08 0 0 -200.95c0,-23.18 -28.32,-42.14 -62.93,-42.14l0 0c-34.61,0 -62.94,18.97 -62.94,42.14l0 200.95 -47.08 0 0 -200.95c0,-23.18 -28.33,-42.14 -62.93,-42.14l-0 0c-34.61,0 -62.93,18.97 -62.93,42.14l0 200.95 -47.08 0 0 -200.95c0,-23.18 -28.33,-42.14 -62.93,-42.14l-0.01 0c-34.61,0 -62.93,18.97 -62.93,42.14l0 200.95 -47.08 0 0 -200.95c0,-23.18 -28.33,-42.14 -62.93,-42.14l-0.01 0c-34.61,0 -62.93,18.97 -62.93,42.14l0 200.95 -56.32 0 0 -283.08zm226.16 -215.77l285.53 0 94.46 0 449.84 0 278.55 192.07 -278.55 0 -101.44 0 -348.39 0 -94.46 0 -184.09 0 -101.44 0 -278.54 0 278.54 -192.07z"></path>
    <path class="fil10" d="M3318.7 2196.73l384.15 0 0 583.24 -75.25 0 0 -279.54c0,-56.25 -46.02,-102.27 -102.27,-102.27l-31.6 0c-57.16,0 -103.94,46.78 -103.94,103.94l0 277.87 -71.09 0 0 -583.24zm563.81 79.82l232.04 0 -232.04 -121.4 -168.65 88.23 0 33.17 168.65 0zm-168.65 14.97l371.47 0 0 488.45 -371.47 0 0 -488.45zm-573.04 -14.97l166.86 0 0 -34.1 -166.86 -87.3 -232.05 121.4 232.05 0zm-204.61 14.97l371.47 0 0 488.45 -371.47 0 0 -488.45zm570.4 -112.25l215.36 0 -215.36 -149.85 -215.36 149.85 215.36 0zm125.76 95.14c16.74,2.3 29.98,15.55 32.28,32.28l-32.28 0 0 -32.28zm32.28 42.68c-2.3,16.73 -15.55,29.98 -32.28,32.27l0 -32.27 32.28 0zm-42.67 32.27c-16.74,-2.3 -29.98,-15.54 -32.28,-32.27l32.28 0 0 32.27zm-32.28 -42.67c2.3,-16.74 15.55,-29.98 32.28,-32.28l0 32.28 -32.28 0zm-191.8 -32.28c16.73,2.3 29.98,15.55 32.27,32.28l-32.27 0 0 -32.28zm32.27 42.68c-2.3,16.73 -15.54,29.98 -32.27,32.27l0 -32.27 32.27 0zm-42.67 32.27c-16.74,-2.3 -29.98,-15.54 -32.28,-32.27l32.28 0 0 32.27zm-32.28 -42.67c2.3,-16.74 15.54,-29.98 32.28,-32.28l0 32.28 -32.28 0zm191.09 -90.63l12.27 0 0 67.35 -12.27 0 0 -67.35zm-42.82 0l12.26 0 0 67.35 -12.26 0 0 -67.35zm-42.82 0l12.26 0 0 67.35 -12.26 0 0 -67.35z"></path>
    <path class="fil11 str0" d="M1528.19 1047.26c-59.74,-21.34 -90.46,16.21 -90.46,16.21 -37.71,-22.45 -62.66,-36.83 -106.68,-8.53 87.05,-16.22 110.09,58.89 110.09,58.89 0.86,-60.59 87.05,-66.57 87.05,-66.57z"></path>
    <path class="fil11 str0" d="M1399.68 918.98c0.86,-60.59 87.05,-66.57 87.05,-66.57 -59.74,-21.33 -90.46,16.22 -90.46,16.22 -37.71,-22.45 -62.66,-36.83 -106.68,-8.53 87.05,-16.22 110.09,58.89 110.09,58.89z"></path>
    <path class="fil11 str0" d="M1333.85 1250.54c-37.71,-22.45 -62.66,-36.83 -106.68,-8.53 87.05,-16.22 110.09,58.89 110.09,58.89 0.86,-60.59 87.05,-66.57 87.05,-66.57 -59.74,-21.34 -90.47,16.21 -90.47,16.21z"></path>
    <path class="fil11 str0" d="M1352.55 1474.94c-37.71,-22.45 -62.66,-36.83 -106.68,-8.53 87.05,-16.22 110.09,58.89 110.09,58.89 0.86,-60.59 87.05,-66.57 87.05,-66.57 -59.74,-21.34 -90.47,16.21 -90.47,16.21z"></path>
    <path class="fil11 str0" d="M1573.69 1447.72c87.05,-16.22 110.09,58.89 110.09,58.89 0.86,-60.59 87.05,-66.57 87.05,-66.57 -59.74,-21.34 -90.46,16.21 -90.46,16.21 -37.71,-22.45 -62.66,-36.83 -106.68,-8.53z"></path>
    <path class="fil11 str0" d="M1549.17 1217.09c87.05,-16.22 110.1,58.89 110.1,58.89 0.85,-60.59 87.05,-66.57 87.05,-66.57 -59.74,-21.34 -90.46,16.21 -90.46,16.21 -37.71,-22.45 -62.67,-36.83 -106.68,-8.53z"></path>
    <path class="fil11 str0" d="M1883.93 1180.2c87.05,-16.21 110.09,58.89 110.09,58.89 0.86,-60.59 87.05,-66.57 87.05,-66.57 -59.74,-21.34 -90.47,16.21 -90.47,16.21 -37.71,-22.45 -62.66,-36.83 -106.68,-8.53z"></path>
    <path class="fil11 str0" d="M1670.78 966.58c0.86,-60.59 87.05,-66.57 87.05,-66.57 -59.74,-21.33 -90.46,16.22 -90.46,16.22 -37.71,-22.45 -62.66,-36.83 -106.68,-8.53 87.05,-16.22 110.09,58.89 110.09,58.89z"></path>
   </g>
  </g>
 </g>
</svg><style>@media (prefers-color-scheme: light) { :root { filter: none; } }
@media (prefers-color-scheme: dark) { :root { filter: none; } }
</style></svg>