<svg width="492" height="153" viewBox="0 0 492 153" fill="none" xmlns="http://www.w3.org/2000/svg">
<path fill-rule="evenodd" clip-rule="evenodd" d="M76.5 0C103.088 0 129.331 6.88423 152.392 19.9057C152.768 20.1181 153.002 20.5236 153 20.9568C152.875 37.0071 150.433 52.6331 145.974 67.316L129.84 39.465C131.449 37.6409 132.435 35.2542 132.435 32.6362C132.435 26.9324 127.794 22.292 122.091 22.292C117.639 22.292 113.847 25.1235 112.391 29.0752L92.405 21.8936C92.4183 21.6403 92.4268 21.3861 92.4268 21.129C92.4268 13.3384 86.0884 7.00003 78.2978 7.00003C70.5072 7.00003 64.1688 13.3384 64.1688 21.129C64.1688 21.9325 64.2399 22.7188 64.3689 23.4862L39.2279 35.9249C36.7863 31.6886 32.2123 28.8277 26.9809 28.8277C19.1903 28.8277 12.8519 35.166 12.8519 42.9567C12.8519 46.9094 14.4853 50.4855 17.11 53.0523L8.96094 73.2718C3.2738 56.8889 0.140615 39.1967 4.13885e-05 20.9568C-0.00357871 20.5236 0.230521 20.1181 0.607012 19.9057C23.6659 6.88423 49.9092 0 76.5 0ZM17.2368 92.7553C15.1861 88.7194 13.3032 84.5689 11.5964 80.3179L21.4204 55.9436C23.1278 56.6778 25.0069 57.0857 26.9809 57.0857C29.3713 57.0857 31.6242 56.4871 33.6 55.4342L47.9833 72.9819C46.0795 75.3894 44.9374 78.4276 44.9374 81.7287C44.9374 82.6545 45.0304 83.5585 45.2011 84.435L17.2368 92.7553ZM35.7878 120.831C29.7147 113.639 24.3124 105.759 19.6612 97.3316L47.0679 89.1769C48.1958 90.9868 49.7201 92.5225 51.5196 93.6636L42.3136 119.048C42.2755 119.046 42.2374 119.043 42.1993 119.041C42.009 119.027 41.8186 119.014 41.625 119.014C39.4589 119.014 37.4494 119.687 35.7878 120.831ZM45.4725 131.165C43.561 129.329 41.7004 127.432 39.8924 125.476C40.4218 125.239 41.0083 125.107 41.625 125.107C43.9689 125.107 45.8755 127.015 45.8755 129.359C45.8755 130.005 45.731 130.617 45.4725 131.165ZM50.0417 135.352C57.9418 142.255 66.6211 148.154 75.9643 152.85C76.1308 152.935 76.3154 152.977 76.5 152.977C76.6823 152.977 76.8669 152.935 77.0346 152.85C80.7224 150.997 84.3068 148.956 87.7806 146.74C83.8509 145.839 80.7673 142.693 79.9568 138.729L51.0557 133.586C50.7751 134.21 50.4346 134.801 50.0417 135.352ZM117.518 120.465C113.599 125.138 109.399 129.524 104.938 133.585L100.059 133.925C99.6682 132.502 98.9909 131.197 98.0775 130.088L108.748 118.502C110.881 119.795 113.382 120.541 116.053 120.541C116.548 120.541 117.036 120.515 117.518 120.465ZM130.068 102.961C129.992 103.085 129.916 103.209 129.84 103.333C129.819 103.239 129.797 103.146 129.774 103.053L130.068 102.961ZM143.855 73.7904C141.083 81.688 137.716 89.2785 133.805 96.4759L127.673 98.3894C125.634 95.446 122.51 93.3089 118.882 92.568L122.849 42.9424C123.823 42.8713 124.757 42.6645 125.638 42.341L143.855 73.7904ZM85.8418 136.656C85.8418 139 87.7484 140.906 90.0924 140.906C92.4363 140.906 94.3429 139 94.3429 136.656C94.3429 134.312 92.4363 132.405 90.0924 132.405C87.7484 132.405 85.8418 134.312 85.8418 136.656ZM33.4929 42.9567C33.4929 39.3663 30.5722 36.4447 26.9809 36.4447C23.3905 36.4447 20.4689 39.3663 20.4689 42.9567C20.4689 46.548 23.3905 49.4686 26.9809 49.4686C30.5722 49.4686 33.4929 46.548 33.4929 42.9567ZM78.2978 35.258C73.1167 35.258 68.5806 32.4531 66.1219 28.2841L40.9354 40.7455C41.0492 41.4665 41.1099 42.2045 41.1099 42.9567C41.1099 46.528 39.7753 49.7921 37.5822 52.2821L51.7946 69.6201C53.9204 68.3386 56.4076 67.5997 59.0664 67.5997C64.3348 67.5997 68.9354 70.5004 71.3647 74.7861L87.35 69.216C87.1584 68.4297 87.0455 67.6129 87.0455 66.7678C87.0455 63.572 88.5035 60.7111 90.7877 58.8121L80.5753 35.0721C79.8335 35.1926 79.0728 35.258 78.2978 35.258ZM84.8098 21.129C84.8098 17.5387 81.8881 14.6171 78.2978 14.6171C74.7065 14.6171 71.7858 17.5387 71.7858 21.129C71.7858 24.7203 74.7065 27.641 78.2978 27.641C81.8881 27.641 84.8098 24.7203 84.8098 21.129ZM112.745 37.0423C112.338 36.1829 112.048 35.2609 111.892 34.2914L91.2069 26.8594C89.9909 29.5903 87.9334 31.865 85.3647 33.3552L95.374 56.6237C96.0266 56.4947 96.7001 56.4236 97.3897 56.4236C97.9873 56.4236 98.5698 56.4852 99.1408 56.5829L112.745 37.0423ZM126.341 32.6362C126.341 30.2923 124.435 28.3856 122.091 28.3856C119.747 28.3856 117.839 30.2923 117.839 32.6362C117.839 34.9801 119.747 36.8877 122.091 36.8877C124.435 36.8877 126.341 34.9801 126.341 32.6362ZM116.053 99.9005C112.463 99.9005 109.541 102.821 109.541 106.412C109.541 110.003 112.463 112.923 116.053 112.923C119.643 112.923 122.564 110.003 122.564 106.412C122.564 102.821 119.643 99.9005 116.053 99.9005ZM52.5544 81.7287C52.5544 85.319 55.4751 88.2406 59.0664 88.2406C62.6577 88.2406 65.5784 85.319 65.5784 81.7287C65.5784 78.1383 62.6577 75.2167 59.0664 75.2167C55.4751 75.2167 52.5544 78.1383 52.5544 81.7287ZM98.5138 77.0484C98.1448 77.0882 97.7701 77.112 97.3897 77.112C94.3771 77.112 91.6698 75.8096 89.7774 73.7474L73.0323 79.582C73.1395 80.2821 73.1954 80.9992 73.1954 81.7287C73.1954 82.6052 73.111 83.4617 72.9583 84.2936L103.806 99.3797C104.416 98.3221 105.157 97.3498 106.009 96.4866L98.5138 77.0484ZM101.641 66.7678C101.641 64.4238 99.7337 62.5172 97.3897 62.5172C95.0458 62.5172 93.1392 64.4238 93.1392 66.7678C93.1392 69.1117 95.0458 71.0183 97.3897 71.0183C99.7337 71.0183 101.641 69.1117 101.641 66.7678ZM117.826 42.0498C117.226 41.7776 116.658 41.4503 116.126 41.0737L103.852 58.703C106.215 60.6011 107.734 63.5085 107.734 66.7678C107.734 70.2879 105.964 73.3983 103.27 75.2679L110.304 93.5109C111.402 93.0195 112.572 92.6638 113.795 92.4656L117.826 42.0498ZM56.2302 95.5712L47.1447 120.625C49.832 122.33 51.6799 125.234 51.9303 128.583L80.2054 133.616C80.6835 132.064 81.5229 130.672 82.6186 129.524L64.6867 94.6881C62.9631 95.4384 61.0632 95.8577 59.0664 95.8577C58.0951 95.8577 57.1455 95.759 56.2302 95.5712ZM90.0924 126.312C91.4583 126.312 92.7616 126.584 93.9568 127.068L104.948 115.133C103.057 112.729 101.924 109.701 101.924 106.412C101.924 105.658 101.985 104.919 102.098 104.198L71.1417 89.0583C70.5223 90.0752 69.7758 91.0057 68.9287 91.8329L86.9327 126.81C87.9296 126.488 88.9901 126.312 90.0924 126.312Z" fill="#15C56D"/>
<path d="M212.79 67.69H193.33L190.11 77H179.82L197.39 28.07H208.8L226.37 77H216.01L212.79 67.69ZM210.13 59.85L203.06 39.41L195.99 59.85H210.13ZM242.737 28.14V77H232.937V28.14H242.737Z" fill="#15C56D"/>
<path d="M269.29 77.49C265.883 77.49 262.803 76.9067 260.05 75.74C257.343 74.5733 255.197 72.8933 253.61 70.7C252.023 68.5067 251.207 65.9167 251.16 62.93H261.66C261.8 64.9367 262.5 66.5233 263.76 67.69C265.067 68.8567 266.84 69.44 269.08 69.44C271.367 69.44 273.163 68.9033 274.47 67.83C275.777 66.71 276.43 65.2633 276.43 63.49C276.43 62.0433 275.987 60.8533 275.1 59.92C274.213 58.9867 273.093 58.2633 271.74 57.75C270.433 57.19 268.613 56.5833 266.28 55.93C263.107 54.9967 260.517 54.0867 258.51 53.2C256.55 52.2667 254.847 50.89 253.4 49.07C252 47.2033 251.3 44.73 251.3 41.65C251.3 38.7567 252.023 36.2367 253.47 34.09C254.917 31.9433 256.947 30.31 259.56 29.19C262.173 28.0233 265.16 27.44 268.52 27.44C273.56 27.44 277.643 28.6767 280.77 31.15C283.943 33.5767 285.693 36.9833 286.02 41.37H275.24C275.147 39.69 274.423 38.3133 273.07 37.24C271.763 36.12 270.013 35.56 267.82 35.56C265.907 35.56 264.367 36.05 263.2 37.03C262.08 38.01 261.52 39.4333 261.52 41.3C261.52 42.6067 261.94 43.7033 262.78 44.59C263.667 45.43 264.74 46.13 266 46.69C267.307 47.2033 269.127 47.81 271.46 48.51C274.633 49.4433 277.223 50.3767 279.23 51.31C281.237 52.2433 282.963 53.6433 284.41 55.51C285.857 57.3767 286.58 59.8267 286.58 62.86C286.58 65.4733 285.903 67.9 284.55 70.14C283.197 72.38 281.213 74.1767 278.6 75.53C275.987 76.8367 272.883 77.49 269.29 77.49ZM292.556 57.47C292.556 53.55 293.326 50.0733 294.866 47.04C296.453 44.0067 298.576 41.6733 301.236 40.04C303.943 38.4067 306.953 37.59 310.266 37.59C313.159 37.59 315.679 38.1733 317.826 39.34C320.019 40.5067 321.769 41.9767 323.076 43.75V38.22H332.946V77H323.076V71.33C321.816 73.15 320.066 74.6667 317.826 75.88C315.633 77.0467 313.089 77.63 310.196 77.63C306.929 77.63 303.943 76.79 301.236 75.11C298.576 73.43 296.453 71.0733 294.866 68.04C293.326 64.96 292.556 61.4367 292.556 57.47ZM323.076 57.61C323.076 55.23 322.609 53.2 321.676 51.52C320.743 49.7933 319.483 48.4867 317.896 47.6C316.309 46.6667 314.606 46.2 312.786 46.2C310.966 46.2 309.286 46.6433 307.746 47.53C306.206 48.4167 304.946 49.7233 303.966 51.45C303.033 53.13 302.566 55.1367 302.566 57.47C302.566 59.8033 303.033 61.8567 303.966 63.63C304.946 65.3567 306.206 66.6867 307.746 67.62C309.333 68.5533 311.013 69.02 312.786 69.02C314.606 69.02 316.309 68.5767 317.896 67.69C319.483 66.7567 320.743 65.45 321.676 63.77C322.609 62.0433 323.076 59.99 323.076 57.61ZM360.298 46.27H353.508V77H343.568V46.27H339.158V38.22H343.568V36.26C343.568 31.5 344.921 28 347.628 25.76C350.334 23.52 354.418 22.47 359.878 22.61V30.87C357.498 30.8233 355.841 31.22 354.908 32.06C353.974 32.9 353.508 34.4167 353.508 36.61V38.22H360.298V46.27ZM402.698 56.77C402.698 58.17 402.605 59.43 402.418 60.55H374.068C374.302 63.35 375.282 65.5433 377.008 67.13C378.735 68.7167 380.858 69.51 383.378 69.51C387.018 69.51 389.608 67.9467 391.148 64.82H401.718C400.598 68.5533 398.452 71.6333 395.278 74.06C392.105 76.44 388.208 77.63 383.588 77.63C379.855 77.63 376.495 76.8133 373.508 75.18C370.568 73.5 368.258 71.1433 366.578 68.11C364.945 65.0767 364.128 61.5767 364.128 57.61C364.128 53.5967 364.945 50.0733 366.578 47.04C368.212 44.0067 370.498 41.6733 373.438 40.04C376.378 38.4067 379.762 37.59 383.588 37.59C387.275 37.59 390.565 38.3833 393.458 39.97C396.398 41.5567 398.662 43.82 400.248 46.76C401.882 49.6533 402.698 52.99 402.698 56.77ZM392.548 53.97C392.502 51.45 391.592 49.4433 389.818 47.95C388.045 46.41 385.875 45.64 383.308 45.64C380.882 45.64 378.828 46.3867 377.148 47.88C375.515 49.3267 374.512 51.3567 374.138 53.97H392.548ZM421.261 46.27V65.03C421.261 66.3367 421.565 67.2933 422.171 67.9C422.825 68.46 423.898 68.74 425.391 68.74H429.941V77H423.781C415.521 77 411.391 72.9867 411.391 64.96V46.27H406.771V38.22H411.391V28.63H421.261V38.22H429.941V46.27H421.261ZM474.09 38.22L450.08 95.34H439.65L448.05 76.02L432.51 38.22H443.5L453.51 65.31L463.66 38.22H474.09Z" fill="#00091A"/>
<path d="M184.88 91.605V116H181.695V91.605H184.88ZM199.653 96.47C201.987 96.47 203.877 97.1817 205.323 98.605C206.77 100.005 207.493 102.035 207.493 104.695V116H204.343V105.15C204.343 103.237 203.865 101.778 202.908 100.775C201.952 99.7483 200.645 99.235 198.988 99.235C197.308 99.235 195.967 99.76 194.963 100.81C193.983 101.86 193.493 103.388 193.493 105.395V116H190.308V96.82H193.493V99.55C194.123 98.57 194.975 97.8117 196.048 97.275C197.145 96.7383 198.347 96.47 199.653 96.47ZM211.506 106.34C211.506 104.38 211.903 102.665 212.696 101.195C213.489 99.7017 214.574 98.5467 215.951 97.73C217.351 96.9133 218.914 96.505 220.641 96.505C222.134 96.505 223.523 96.855 224.806 97.555C226.089 98.2317 227.069 99.13 227.746 100.25V90.1H230.966V116H227.746V112.395C227.116 113.538 226.183 114.483 224.946 115.23C223.709 115.953 222.263 116.315 220.606 116.315C218.903 116.315 217.351 115.895 215.951 115.055C214.574 114.215 213.489 113.037 212.696 111.52C211.903 110.003 211.506 108.277 211.506 106.34ZM227.746 106.375C227.746 104.928 227.454 103.668 226.871 102.595C226.288 101.522 225.494 100.705 224.491 100.145C223.511 99.5617 222.426 99.27 221.236 99.27C220.046 99.27 218.961 99.55 217.981 100.11C217.001 100.67 216.219 101.487 215.636 102.56C215.053 103.633 214.761 104.893 214.761 106.34C214.761 107.81 215.053 109.093 215.636 110.19C216.219 111.263 217.001 112.092 217.981 112.675C218.961 113.235 220.046 113.515 221.236 113.515C222.426 113.515 223.511 113.235 224.491 112.675C225.494 112.092 226.288 111.263 226.871 110.19C227.454 109.093 227.746 107.822 227.746 106.375ZM244.713 116.315C242.917 116.315 241.283 115.907 239.813 115.09C238.367 114.273 237.223 113.118 236.383 111.625C235.567 110.108 235.158 108.358 235.158 106.375C235.158 104.415 235.578 102.688 236.418 101.195C237.282 99.6783 238.448 98.5233 239.918 97.73C241.388 96.9133 243.033 96.505 244.853 96.505C246.673 96.505 248.318 96.9133 249.788 97.73C251.258 98.5233 252.413 99.6667 253.253 101.16C254.117 102.653 254.548 104.392 254.548 106.375C254.548 108.358 254.105 110.108 253.218 111.625C252.355 113.118 251.177 114.273 249.683 115.09C248.19 115.907 246.533 116.315 244.713 116.315ZM244.713 113.515C245.857 113.515 246.93 113.247 247.933 112.71C248.937 112.173 249.742 111.368 250.348 110.295C250.978 109.222 251.293 107.915 251.293 106.375C251.293 104.835 250.99 103.528 250.383 102.455C249.777 101.382 248.983 100.588 248.003 100.075C247.023 99.5383 245.962 99.27 244.818 99.27C243.652 99.27 242.578 99.5383 241.598 100.075C240.642 100.588 239.872 101.382 239.288 102.455C238.705 103.528 238.413 104.835 238.413 106.375C238.413 107.938 238.693 109.257 239.253 110.33C239.837 111.403 240.607 112.208 241.563 112.745C242.52 113.258 243.57 113.515 244.713 113.515ZM268.081 96.47C270.414 96.47 272.304 97.1817 273.751 98.605C275.198 100.005 275.921 102.035 275.921 104.695V116H272.771V105.15C272.771 103.237 272.293 101.778 271.336 100.775C270.379 99.7483 269.073 99.235 267.416 99.235C265.736 99.235 264.394 99.76 263.391 100.81C262.411 101.86 261.921 103.388 261.921 105.395V116H258.736V96.82H261.921V99.55C262.551 98.57 263.403 97.8117 264.476 97.275C265.573 96.7383 266.774 96.47 268.081 96.47ZM298.624 105.675C298.624 106.282 298.589 106.923 298.519 107.6H283.189C283.305 109.49 283.947 110.972 285.114 112.045C286.304 113.095 287.739 113.62 289.419 113.62C290.795 113.62 291.939 113.305 292.849 112.675C293.782 112.022 294.435 111.158 294.809 110.085H298.239C297.725 111.928 296.699 113.433 295.159 114.6C293.619 115.743 291.705 116.315 289.419 116.315C287.599 116.315 285.965 115.907 284.519 115.09C283.095 114.273 281.975 113.118 281.159 111.625C280.342 110.108 279.934 108.358 279.934 106.375C279.934 104.392 280.33 102.653 281.124 101.16C281.917 99.6667 283.025 98.5233 284.449 97.73C285.895 96.9133 287.552 96.505 289.419 96.505C291.239 96.505 292.849 96.9017 294.249 97.695C295.649 98.4883 296.722 99.585 297.469 100.985C298.239 102.362 298.624 103.925 298.624 105.675ZM295.334 105.01C295.334 103.797 295.065 102.758 294.529 101.895C293.992 101.008 293.257 100.343 292.324 99.9C291.414 99.4333 290.399 99.2 289.279 99.2C287.669 99.2 286.292 99.7133 285.149 100.74C284.029 101.767 283.387 103.19 283.224 105.01H295.334ZM309.618 116.315C308.148 116.315 306.829 116.07 305.663 115.58C304.496 115.067 303.574 114.367 302.898 113.48C302.221 112.57 301.848 111.532 301.778 110.365H305.068C305.161 111.322 305.604 112.103 306.398 112.71C307.214 113.317 308.276 113.62 309.583 113.62C310.796 113.62 311.753 113.352 312.453 112.815C313.153 112.278 313.503 111.602 313.503 110.785C313.503 109.945 313.129 109.327 312.383 108.93C311.636 108.51 310.481 108.102 308.918 107.705C307.494 107.332 306.328 106.958 305.418 106.585C304.531 106.188 303.761 105.617 303.108 104.87C302.478 104.1 302.163 103.097 302.163 101.86C302.163 100.88 302.454 99.9817 303.038 99.165C303.621 98.3483 304.449 97.7067 305.523 97.24C306.596 96.75 307.821 96.505 309.198 96.505C311.321 96.505 313.036 97.0417 314.343 98.115C315.649 99.1883 316.349 100.658 316.443 102.525H313.258C313.188 101.522 312.779 100.717 312.033 100.11C311.309 99.5033 310.329 99.2 309.093 99.2C307.949 99.2 307.039 99.445 306.363 99.935C305.686 100.425 305.348 101.067 305.348 101.86C305.348 102.49 305.546 103.015 305.943 103.435C306.363 103.832 306.876 104.158 307.483 104.415C308.113 104.648 308.976 104.917 310.073 105.22C311.449 105.593 312.569 105.967 313.433 106.34C314.296 106.69 315.031 107.227 315.638 107.95C316.268 108.673 316.594 109.618 316.618 110.785C316.618 111.835 316.326 112.78 315.743 113.62C315.159 114.46 314.331 115.125 313.258 115.615C312.208 116.082 310.994 116.315 309.618 116.315ZM322.759 93.705C322.152 93.705 321.639 93.495 321.219 93.075C320.799 92.655 320.589 92.1417 320.589 91.535C320.589 90.9283 320.799 90.415 321.219 89.995C321.639 89.575 322.152 89.365 322.759 89.365C323.342 89.365 323.832 89.575 324.229 89.995C324.649 90.415 324.859 90.9283 324.859 91.535C324.859 92.1417 324.649 92.655 324.229 93.075C323.832 93.495 323.342 93.705 322.759 93.705ZM324.299 96.82V116H321.114V96.82H324.299ZM328.537 106.34C328.537 104.38 328.934 102.665 329.727 101.195C330.521 99.7017 331.606 98.5467 332.982 97.73C334.382 96.9133 335.934 96.505 337.637 96.505C339.317 96.505 340.776 96.8667 342.012 97.59C343.249 98.3133 344.171 99.2233 344.777 100.32V96.82H347.997V116H344.777V112.43C344.147 113.55 343.202 114.483 341.942 115.23C340.706 115.953 339.259 116.315 337.602 116.315C335.899 116.315 334.359 115.895 332.982 115.055C331.606 114.215 330.521 113.037 329.727 111.52C328.934 110.003 328.537 108.277 328.537 106.34ZM344.777 106.375C344.777 104.928 344.486 103.668 343.902 102.595C343.319 101.522 342.526 100.705 341.522 100.145C340.542 99.5617 339.457 99.27 338.267 99.27C337.077 99.27 335.992 99.55 335.012 100.11C334.032 100.67 333.251 101.487 332.667 102.56C332.084 103.633 331.792 104.893 331.792 106.34C331.792 107.81 332.084 109.093 332.667 110.19C333.251 111.263 334.032 112.092 335.012 112.675C335.992 113.235 337.077 113.515 338.267 113.515C339.457 113.515 340.542 113.235 341.522 112.675C342.526 112.092 343.319 111.263 343.902 110.19C344.486 109.093 344.777 107.822 344.777 106.375Z" fill="#00091A"/>
</svg>
