<?xml version="1.0" encoding="utf-8"?>
<svg xmlns="http://www.w3.org/2000/svg" xmlns:xlink="http://www.w3.org/1999/xlink" width="900" height="300" viewBox="0 0 3600 1200">
<defs>
  <clipPath id="clip110">
    <rect x="0" y="0" width="3600" height="1200"/>
  </clipPath>
</defs>
<path clip-path="url(#clip110)" d="M0 1200 L3600 1200 L3600 0 L0 0  Z" fill="#ffffff" fill-rule="evenodd" fill-opacity="1"/>
<defs>
  <clipPath id="clip111">
    <rect x="720" y="0" width="2521" height="1200"/>
  </clipPath>
</defs>
<path clip-path="url(#clip110)" d="M190.867 1107.73 L1152.76 1107.73 L1152.76 47.2441 L190.867 47.2441  Z" fill="#ffffff" fill-rule="evenodd" fill-opacity="1"/>
<defs>
  <clipPath id="clip112">
    <rect x="190" y="47" width="963" height="1061"/>
  </clipPath>
</defs>
<polyline clip-path="url(#clip112)" style="stroke:#000000; stroke-linecap:round; stroke-linejoin:round; stroke-width:2; stroke-opacity:0.1; fill:none" points="218.09,1107.73 218.09,47.2441 "/>
<polyline clip-path="url(#clip112)" style="stroke:#000000; stroke-linecap:round; stroke-linejoin:round; stroke-width:2; stroke-opacity:0.1; fill:none" points="444.951,1107.73 444.951,47.2441 "/>
<polyline clip-path="url(#clip112)" style="stroke:#000000; stroke-linecap:round; stroke-linejoin:round; stroke-width:2; stroke-opacity:0.1; fill:none" points="671.811,1107.73 671.811,47.2441 "/>
<polyline clip-path="url(#clip112)" style="stroke:#000000; stroke-linecap:round; stroke-linejoin:round; stroke-width:2; stroke-opacity:0.1; fill:none" points="898.672,1107.73 898.672,47.2441 "/>
<polyline clip-path="url(#clip112)" style="stroke:#000000; stroke-linecap:round; stroke-linejoin:round; stroke-width:2; stroke-opacity:0.1; fill:none" points="1125.53,1107.73 1125.53,47.2441 "/>
<polyline clip-path="url(#clip110)" style="stroke:#000000; stroke-linecap:round; stroke-linejoin:round; stroke-width:4; stroke-opacity:1; fill:none" points="190.867,1107.73 1152.76,1107.73 "/>
<polyline clip-path="url(#clip110)" style="stroke:#000000; stroke-linecap:round; stroke-linejoin:round; stroke-width:4; stroke-opacity:1; fill:none" points="218.09,1107.73 218.09,1088.83 "/>
<polyline clip-path="url(#clip110)" style="stroke:#000000; stroke-linecap:round; stroke-linejoin:round; stroke-width:4; stroke-opacity:1; fill:none" points="444.951,1107.73 444.951,1088.83 "/>
<polyline clip-path="url(#clip110)" style="stroke:#000000; stroke-linecap:round; stroke-linejoin:round; stroke-width:4; stroke-opacity:1; fill:none" points="671.811,1107.73 671.811,1088.83 "/>
<polyline clip-path="url(#clip110)" style="stroke:#000000; stroke-linecap:round; stroke-linejoin:round; stroke-width:4; stroke-opacity:1; fill:none" points="898.672,1107.73 898.672,1088.83 "/>
<polyline clip-path="url(#clip110)" style="stroke:#000000; stroke-linecap:round; stroke-linejoin:round; stroke-width:4; stroke-opacity:1; fill:none" points="1125.53,1107.73 1125.53,1088.83 "/>
<path clip-path="url(#clip110)" d="M218.09 1148.25 Q214.479 1148.25 212.65 1151.81 Q210.845 1155.35 210.845 1162.48 Q210.845 1169.59 212.65 1173.15 Q214.479 1176.7 218.09 1176.7 Q221.724 1176.7 223.53 1173.15 Q225.358 1169.59 225.358 1162.48 Q225.358 1155.35 223.53 1151.81 Q221.724 1148.25 218.09 1148.25 M218.09 1144.54 Q223.9 1144.54 226.956 1149.15 Q230.034 1153.73 230.034 1162.48 Q230.034 1171.21 226.956 1175.82 Q223.9 1180.4 218.09 1180.4 Q212.28 1180.4 209.201 1175.82 Q206.146 1171.21 206.146 1162.48 Q206.146 1153.73 209.201 1149.15 Q212.28 1144.54 218.09 1144.54 Z" fill="#000000" fill-rule="nonzero" fill-opacity="1" /><path clip-path="url(#clip110)" d="M439.603 1175.79 L455.923 1175.79 L455.923 1179.73 L433.978 1179.73 L433.978 1175.79 Q436.64 1173.04 441.224 1168.41 Q445.83 1163.76 447.011 1162.41 Q449.256 1159.89 450.136 1158.15 Q451.039 1156.39 451.039 1154.7 Q451.039 1151.95 449.094 1150.21 Q447.173 1148.48 444.071 1148.48 Q441.872 1148.48 439.418 1149.24 Q436.988 1150.01 434.21 1151.56 L434.21 1146.83 Q437.034 1145.7 439.488 1145.12 Q441.941 1144.54 443.978 1144.54 Q449.349 1144.54 452.543 1147.23 Q455.738 1149.91 455.738 1154.4 Q455.738 1156.53 454.927 1158.45 Q454.14 1160.35 452.034 1162.95 Q451.455 1163.62 448.353 1166.83 Q445.252 1170.03 439.603 1175.79 Z" fill="#000000" fill-rule="nonzero" fill-opacity="1" /><path clip-path="url(#clip110)" d="M674.821 1149.24 L663.015 1167.69 L674.821 1167.69 L674.821 1149.24 M673.594 1145.17 L679.473 1145.17 L679.473 1167.69 L684.404 1167.69 L684.404 1171.58 L679.473 1171.58 L679.473 1179.73 L674.821 1179.73 L674.821 1171.58 L659.219 1171.58 L659.219 1167.07 L673.594 1145.17 Z" fill="#000000" fill-rule="nonzero" fill-opacity="1" /><path clip-path="url(#clip110)" d="M899.077 1160.58 Q895.929 1160.58 894.077 1162.74 Q892.248 1164.89 892.248 1168.64 Q892.248 1172.37 894.077 1174.54 Q895.929 1176.7 899.077 1176.7 Q902.225 1176.7 904.054 1174.54 Q905.906 1172.37 905.906 1168.64 Q905.906 1164.89 904.054 1162.74 Q902.225 1160.58 899.077 1160.58 M908.359 1145.93 L908.359 1150.19 Q906.6 1149.36 904.795 1148.92 Q903.012 1148.48 901.253 1148.48 Q896.623 1148.48 894.17 1151.6 Q891.739 1154.73 891.392 1161.05 Q892.758 1159.03 894.818 1157.97 Q896.878 1156.88 899.355 1156.88 Q904.563 1156.88 907.572 1160.05 Q910.605 1163.2 910.605 1168.64 Q910.605 1173.96 907.457 1177.18 Q904.308 1180.4 899.077 1180.4 Q893.082 1180.4 889.91 1175.82 Q886.739 1171.21 886.739 1162.48 Q886.739 1154.29 890.628 1149.43 Q894.517 1144.54 901.068 1144.54 Q902.827 1144.54 904.609 1144.89 Q906.415 1145.24 908.359 1145.93 Z" fill="#000000" fill-rule="nonzero" fill-opacity="1" /><path clip-path="url(#clip110)" d="M1125.53 1163.32 Q1122.2 1163.32 1120.28 1165.1 Q1118.38 1166.88 1118.38 1170.01 Q1118.38 1173.13 1120.28 1174.91 Q1122.2 1176.7 1125.53 1176.7 Q1128.87 1176.7 1130.79 1174.91 Q1132.71 1173.11 1132.71 1170.01 Q1132.71 1166.88 1130.79 1165.1 Q1128.89 1163.32 1125.53 1163.32 M1120.86 1161.33 Q1117.85 1160.58 1116.16 1158.52 Q1114.49 1156.46 1114.49 1153.5 Q1114.49 1149.36 1117.43 1146.95 Q1120.39 1144.54 1125.53 1144.54 Q1130.69 1144.54 1133.63 1146.95 Q1136.57 1149.36 1136.57 1153.5 Q1136.57 1156.46 1134.88 1158.52 Q1133.22 1160.58 1130.23 1161.33 Q1133.61 1162.11 1135.49 1164.4 Q1137.38 1166.7 1137.38 1170.01 Q1137.38 1175.03 1134.31 1177.71 Q1131.25 1180.4 1125.53 1180.4 Q1119.82 1180.4 1116.74 1177.71 Q1113.68 1175.03 1113.68 1170.01 Q1113.68 1166.7 1115.58 1164.4 Q1117.48 1162.11 1120.86 1161.33 M1119.14 1153.94 Q1119.14 1156.63 1120.81 1158.13 Q1122.5 1159.64 1125.53 1159.64 Q1128.54 1159.64 1130.23 1158.13 Q1131.94 1156.63 1131.94 1153.94 Q1131.94 1151.26 1130.23 1149.75 Q1128.54 1148.25 1125.53 1148.25 Q1122.5 1148.25 1120.81 1149.75 Q1119.14 1151.26 1119.14 1153.94 Z" fill="#000000" fill-rule="nonzero" fill-opacity="1" /><polyline clip-path="url(#clip112)" style="stroke:#000000; stroke-linecap:round; stroke-linejoin:round; stroke-width:2; stroke-opacity:0.1; fill:none" points="190.867,1107.73 1152.76,1107.73 "/>
<polyline clip-path="url(#clip112)" style="stroke:#000000; stroke-linecap:round; stroke-linejoin:round; stroke-width:2; stroke-opacity:0.1; fill:none" points="190.867,842.607 1152.76,842.607 "/>
<polyline clip-path="url(#clip112)" style="stroke:#000000; stroke-linecap:round; stroke-linejoin:round; stroke-width:2; stroke-opacity:0.1; fill:none" points="190.867,577.486 1152.76,577.486 "/>
<polyline clip-path="url(#clip112)" style="stroke:#000000; stroke-linecap:round; stroke-linejoin:round; stroke-width:2; stroke-opacity:0.1; fill:none" points="190.867,312.365 1152.76,312.365 "/>
<polyline clip-path="url(#clip112)" style="stroke:#000000; stroke-linecap:round; stroke-linejoin:round; stroke-width:2; stroke-opacity:0.1; fill:none" points="190.867,47.2441 1152.76,47.2441 "/>
<polyline clip-path="url(#clip110)" style="stroke:#000000; stroke-linecap:round; stroke-linejoin:round; stroke-width:4; stroke-opacity:1; fill:none" points="190.867,1107.73 190.867,47.2441 "/>
<polyline clip-path="url(#clip110)" style="stroke:#000000; stroke-linecap:round; stroke-linejoin:round; stroke-width:4; stroke-opacity:1; fill:none" points="190.867,1107.73 209.764,1107.73 "/>
<polyline clip-path="url(#clip110)" style="stroke:#000000; stroke-linecap:round; stroke-linejoin:round; stroke-width:4; stroke-opacity:1; fill:none" points="190.867,842.607 209.764,842.607 "/>
<polyline clip-path="url(#clip110)" style="stroke:#000000; stroke-linecap:round; stroke-linejoin:round; stroke-width:4; stroke-opacity:1; fill:none" points="190.867,577.486 209.764,577.486 "/>
<polyline clip-path="url(#clip110)" style="stroke:#000000; stroke-linecap:round; stroke-linejoin:round; stroke-width:4; stroke-opacity:1; fill:none" points="190.867,312.365 209.764,312.365 "/>
<polyline clip-path="url(#clip110)" style="stroke:#000000; stroke-linecap:round; stroke-linejoin:round; stroke-width:4; stroke-opacity:1; fill:none" points="190.867,47.2441 209.764,47.2441 "/>
<path clip-path="url(#clip110)" d="M44.9921 1108.18 L74.6679 1108.18 L74.6679 1112.11 L44.9921 1112.11 L44.9921 1108.18 Z" fill="#000000" fill-rule="nonzero" fill-opacity="1" /><path clip-path="url(#clip110)" d="M84.8067 1090.45 L103.163 1090.45 L103.163 1094.38 L89.0891 1094.38 L89.0891 1102.86 Q90.1076 1102.51 91.1261 1102.35 Q92.1447 1102.16 93.1632 1102.16 Q98.9502 1102.16 102.33 1105.33 Q105.709 1108.5 105.709 1113.92 Q105.709 1119.5 102.237 1122.6 Q98.765 1125.68 92.4456 1125.68 Q90.2697 1125.68 88.0012 1125.31 Q85.7558 1124.94 83.3484 1124.2 L83.3484 1119.5 Q85.4317 1120.63 87.6539 1121.19 Q89.8761 1121.74 92.353 1121.74 Q96.3576 1121.74 98.6955 1119.64 Q101.033 1117.53 101.033 1113.92 Q101.033 1110.31 98.6955 1108.2 Q96.3576 1106.1 92.353 1106.1 Q90.478 1106.1 88.603 1106.51 Q86.7512 1106.93 84.8067 1107.81 L84.8067 1090.45 Z" fill="#000000" fill-rule="nonzero" fill-opacity="1" /><path clip-path="url(#clip110)" d="M124.922 1093.53 Q121.311 1093.53 119.482 1097.09 Q117.677 1100.63 117.677 1107.76 Q117.677 1114.87 119.482 1118.43 Q121.311 1121.98 124.922 1121.98 Q128.556 1121.98 130.362 1118.43 Q132.191 1114.87 132.191 1107.76 Q132.191 1100.63 130.362 1097.09 Q128.556 1093.53 124.922 1093.53 M124.922 1089.82 Q130.732 1089.82 133.788 1094.43 Q136.867 1099.01 136.867 1107.76 Q136.867 1116.49 133.788 1121.1 Q130.732 1125.68 124.922 1125.68 Q119.112 1125.68 116.033 1121.1 Q112.978 1116.49 112.978 1107.76 Q112.978 1099.01 116.033 1094.43 Q119.112 1089.82 124.922 1089.82 Z" fill="#000000" fill-rule="nonzero" fill-opacity="1" /><path clip-path="url(#clip110)" d="M124.922 828.406 Q121.311 828.406 119.482 831.97 Q117.677 835.512 117.677 842.642 Q117.677 849.748 119.482 853.313 Q121.311 856.855 124.922 856.855 Q128.556 856.855 130.362 853.313 Q132.191 849.748 132.191 842.642 Q132.191 835.512 130.362 831.97 Q128.556 828.406 124.922 828.406 M124.922 824.702 Q130.732 824.702 133.788 829.308 Q136.867 833.892 136.867 842.642 Q136.867 851.368 133.788 855.975 Q130.732 860.558 124.922 860.558 Q119.112 860.558 116.033 855.975 Q112.978 851.368 112.978 842.642 Q112.978 833.892 116.033 829.308 Q119.112 824.702 124.922 824.702 Z" fill="#000000" fill-rule="nonzero" fill-opacity="1" /><path clip-path="url(#clip110)" d="M84.8067 560.206 L103.163 560.206 L103.163 564.141 L89.0891 564.141 L89.0891 572.613 Q90.1076 572.266 91.1261 572.104 Q92.1447 571.919 93.1632 571.919 Q98.9502 571.919 102.33 575.09 Q105.709 578.261 105.709 583.678 Q105.709 589.257 102.237 592.359 Q98.765 595.437 92.4456 595.437 Q90.2697 595.437 88.0012 595.067 Q85.7558 594.697 83.3484 593.956 L83.3484 589.257 Q85.4317 590.391 87.6539 590.947 Q89.8761 591.502 92.353 591.502 Q96.3576 591.502 98.6955 589.396 Q101.033 587.289 101.033 583.678 Q101.033 580.067 98.6955 577.961 Q96.3576 575.854 92.353 575.854 Q90.478 575.854 88.603 576.271 Q86.7512 576.687 84.8067 577.567 L84.8067 560.206 Z" fill="#000000" fill-rule="nonzero" fill-opacity="1" /><path clip-path="url(#clip110)" d="M124.922 563.285 Q121.311 563.285 119.482 566.849 Q117.677 570.391 117.677 577.521 Q117.677 584.627 119.482 588.192 Q121.311 591.734 124.922 591.734 Q128.556 591.734 130.362 588.192 Q132.191 584.627 132.191 577.521 Q132.191 570.391 130.362 566.849 Q128.556 563.285 124.922 563.285 M124.922 559.581 Q130.732 559.581 133.788 564.187 Q136.867 568.771 136.867 577.521 Q136.867 586.248 133.788 590.854 Q130.732 595.437 124.922 595.437 Q119.112 595.437 116.033 590.854 Q112.978 586.248 112.978 577.521 Q112.978 568.771 116.033 564.187 Q119.112 559.581 124.922 559.581 Z" fill="#000000" fill-rule="nonzero" fill-opacity="1" /><path clip-path="url(#clip110)" d="M55.4087 325.71 L63.0476 325.71 L63.0476 299.344 L54.7374 301.011 L54.7374 296.752 L63.0013 295.085 L67.6772 295.085 L67.6772 325.71 L75.316 325.71 L75.316 329.645 L55.4087 329.645 L55.4087 325.71 Z" fill="#000000" fill-rule="nonzero" fill-opacity="1" /><path clip-path="url(#clip110)" d="M94.7604 298.164 Q91.1493 298.164 89.3206 301.729 Q87.515 305.27 87.515 312.4 Q87.515 319.506 89.3206 323.071 Q91.1493 326.613 94.7604 326.613 Q98.3946 326.613 100.2 323.071 Q102.029 319.506 102.029 312.4 Q102.029 305.27 100.2 301.729 Q98.3946 298.164 94.7604 298.164 M94.7604 294.46 Q100.571 294.46 103.626 299.066 Q106.705 303.65 106.705 312.4 Q106.705 321.127 103.626 325.733 Q100.571 330.316 94.7604 330.316 Q88.9502 330.316 85.8715 325.733 Q82.816 321.127 82.816 312.4 Q82.816 303.65 85.8715 299.066 Q88.9502 294.46 94.7604 294.46 Z" fill="#000000" fill-rule="nonzero" fill-opacity="1" /><path clip-path="url(#clip110)" d="M124.922 298.164 Q121.311 298.164 119.482 301.729 Q117.677 305.27 117.677 312.4 Q117.677 319.506 119.482 323.071 Q121.311 326.613 124.922 326.613 Q128.556 326.613 130.362 323.071 Q132.191 319.506 132.191 312.4 Q132.191 305.27 130.362 301.729 Q128.556 298.164 124.922 298.164 M124.922 294.46 Q130.732 294.46 133.788 299.066 Q136.867 303.65 136.867 312.4 Q136.867 321.127 133.788 325.733 Q130.732 330.316 124.922 330.316 Q119.112 330.316 116.033 325.733 Q112.978 321.127 112.978 312.4 Q112.978 303.65 116.033 299.066 Q119.112 294.46 124.922 294.46 Z" fill="#000000" fill-rule="nonzero" fill-opacity="1" /><path clip-path="url(#clip110)" d="M55.4087 60.5889 L63.0476 60.5889 L63.0476 34.2233 L54.7374 35.89 L54.7374 31.6308 L63.0013 29.9641 L67.6772 29.9641 L67.6772 60.5889 L75.316 60.5889 L75.316 64.5241 L55.4087 64.5241 L55.4087 60.5889 Z" fill="#000000" fill-rule="nonzero" fill-opacity="1" /><path clip-path="url(#clip110)" d="M84.8067 29.9641 L103.163 29.9641 L103.163 33.8993 L89.0891 33.8993 L89.0891 42.3714 Q90.1076 42.0242 91.1261 41.8622 Q92.1447 41.677 93.1632 41.677 Q98.9502 41.677 102.33 44.8483 Q105.709 48.0196 105.709 53.4362 Q105.709 59.0149 102.237 62.1167 Q98.765 65.1954 92.4456 65.1954 Q90.2697 65.1954 88.0012 64.825 Q85.7558 64.4547 83.3484 63.7139 L83.3484 59.0149 Q85.4317 60.1491 87.6539 60.7047 Q89.8761 61.2602 92.353 61.2602 Q96.3576 61.2602 98.6955 59.1538 Q101.033 57.0473 101.033 53.4362 Q101.033 49.8251 98.6955 47.7186 Q96.3576 45.6122 92.353 45.6122 Q90.478 45.6122 88.603 46.0288 Q86.7512 46.4455 84.8067 47.3251 L84.8067 29.9641 Z" fill="#000000" fill-rule="nonzero" fill-opacity="1" /><path clip-path="url(#clip110)" d="M124.922 33.0428 Q121.311 33.0428 119.482 36.6076 Q117.677 40.1492 117.677 47.2788 Q117.677 54.3853 119.482 57.9501 Q121.311 61.4917 124.922 61.4917 Q128.556 61.4917 130.362 57.9501 Q132.191 54.3853 132.191 47.2788 Q132.191 40.1492 130.362 36.6076 Q128.556 33.0428 124.922 33.0428 M124.922 29.3391 Q130.732 29.3391 133.788 33.9456 Q136.867 38.5289 136.867 47.2788 Q136.867 56.0056 133.788 60.6121 Q130.732 65.1954 124.922 65.1954 Q119.112 65.1954 116.033 60.6121 Q112.978 56.0056 112.978 47.2788 Q112.978 38.5289 116.033 33.9456 Q119.112 29.3391 124.922 29.3391 Z" fill="#000000" fill-rule="nonzero" fill-opacity="1" /><polyline clip-path="url(#clip112)" style="stroke:#009af9; stroke-linecap:round; stroke-linejoin:round; stroke-width:8; stroke-opacity:1; fill:none" points="218.09,778.978 229.433,777.17 240.776,775.966 252.119,775.335 263.462,775.245 274.805,775.664 286.148,776.56 297.491,777.902 308.834,779.657 320.177,781.793 331.52,784.28 342.863,787.085 354.206,790.177 365.549,793.522 376.892,797.091 388.235,800.85 399.578,804.769 410.921,808.815 422.265,812.956 433.608,817.161 444.951,821.397 456.294,825.634 467.637,829.839 478.98,833.98 490.323,838.026 501.666,841.944 513.009,845.704 524.352,849.272 535.695,852.618 547.038,855.709 558.381,858.514 569.724,861.001 581.067,863.138 592.41,864.893 603.753,866.235 615.096,867.131 626.439,867.55 637.782,867.459 649.125,866.828 660.468,865.625 671.811,863.817 683.154,861.372 694.497,858.26 705.84,854.447 717.183,849.903 728.526,844.595 739.869,838.492 751.213,831.562 762.556,823.773 773.899,815.093 785.242,805.49 796.585,794.933 807.928,783.39 819.271,770.828 830.614,757.217 841.957,742.524 853.3,726.717 864.643,709.765 875.986,691.636 887.329,672.299 898.672,651.72 910.015,629.869 921.358,606.713 932.701,582.221 944.044,556.361 955.387,529.101 966.73,500.41 978.073,470.255 989.416,438.605 1000.76,405.428 1012.1,370.692 1023.45,334.365 1034.79,296.415 1046.13,256.812 1057.47,215.522 1068.82,172.514 1080.16,127.756 1091.5,81.2167 1102.85,32.8639 1114.19,-17.3341 1125.53,-69.4091 "/>
<polyline clip-path="url(#clip112)" style="stroke:#e26f46; stroke-linecap:round; stroke-linejoin:round; stroke-width:8; stroke-opacity:1; fill:none" stroke-dasharray="32, 20" points="218.09,778.978 229.433,776.857 240.776,774.736 252.119,772.615 263.462,770.494 274.805,768.373 286.148,766.252 297.491,764.131 308.834,762.01 320.177,759.889 331.52,757.768 342.863,755.647 354.206,753.526 365.549,751.405 376.892,749.284 388.235,747.163 399.578,745.042 410.921,742.921 422.265,740.8 433.608,738.68 444.951,736.559 456.294,734.438 467.637,732.317 478.98,730.196 490.323,728.075 501.666,725.954 513.009,723.833 524.352,721.712 535.695,719.591 547.038,717.47 558.381,715.349 569.724,713.228 581.067,711.107 592.41,708.986 603.753,706.865 615.096,704.744 626.439,702.623 637.782,700.502 649.125,698.381 660.468,696.26 671.811,694.139 683.154,692.018 694.497,689.897 705.84,687.776 717.183,685.655 728.526,683.534 739.869,681.413 751.213,679.292 762.556,677.171 773.899,675.05 785.242,672.93 796.585,670.809 807.928,668.688 819.271,666.567 830.614,664.446 841.957,662.325 853.3,660.204 864.643,658.083 875.986,655.962 887.329,653.841 898.672,651.72 910.015,649.599 921.358,647.478 932.701,645.357 944.044,643.236 955.387,641.115 966.73,638.994 978.073,636.873 989.416,634.752 1000.76,632.631 1012.1,630.51 1023.45,628.389 1034.79,626.268 1046.13,624.147 1057.47,622.026 1068.82,619.905 1080.16,617.784 1091.5,615.663 1102.85,613.542 1114.19,611.421 1125.53,609.3 "/>
<polyline clip-path="url(#clip112)" style="stroke:#3da44d; stroke-linecap:round; stroke-linejoin:round; stroke-width:8; stroke-opacity:1; fill:none" stroke-dasharray="32, 16, 4, 16" points="218.09,778.978 229.433,777.175 240.776,776.009 252.119,775.478 263.462,775.584 274.805,776.327 286.148,777.705 297.491,779.72 308.834,782.371 320.177,785.659 331.52,789.583 342.863,794.143 354.206,799.339 365.549,805.172 376.892,811.641 388.235,818.746 399.578,826.488 410.921,834.865 422.265,843.88 433.608,853.53 444.951,863.817 456.294,874.74 467.637,886.299 478.98,898.494 490.323,911.326 501.666,924.794 513.009,938.899 524.352,953.64 535.695,969.017 547.038,985.03 558.381,1001.68 569.724,1018.97 581.067,1036.89 592.41,1055.45 603.753,1074.64 615.096,1094.47 626.439,1114.94 637.782,1136.04 649.125,1157.78 660.468,1180.16 671.811,1203.17 683.154,1226.82 694.497,1251.11 705.84,1276.03 717.183,1301.58 728.526,1327.78 739.869,1354.61 751.213,1382.08 762.556,1410.18 773.899,1438.92 785.242,1468.29 796.585,1498.3 807.928,1528.95 819.271,1560.24 830.614,1592.16 841.957,1624.71 853.3,1657.91 864.643,1691.74 875.986,1726.2 887.329,1761.3 898.672,1797.04 910.015,1833.42 921.358,1870.43 932.701,1908.07 944.044,1946.36 955.387,1985.28 966.73,2024.83 978.073,2065.03 989.416,2105.86 1000.76,2147.32 1012.1,2189.42 1023.45,2232.16 1034.79,2275.53 1046.13,2319.54 1057.47,2364.19 1068.82,2409.47 1080.16,2455.39 1091.5,2501.95 1102.85,2549.14 1114.19,2596.97 1125.53,2645.43 "/>
<circle clip-path="url(#clip112)" cx="218.09" cy="778.978" r="14.4" fill="#000000" fill-rule="evenodd" fill-opacity="1" stroke="none"/>
<path clip-path="url(#clip110)" d="M222.93 341.794 L994.786 341.794 L994.786 82.5936 L222.93 82.5936  Z" fill="#ffffff" fill-rule="evenodd" fill-opacity="1"/>
<polyline clip-path="url(#clip110)" style="stroke:#000000; stroke-linecap:round; stroke-linejoin:round; stroke-width:4; stroke-opacity:1; fill:none" points="222.93,341.794 994.786,341.794 994.786,82.5936 222.93,82.5936 222.93,341.794 "/>
<polyline clip-path="url(#clip110)" style="stroke:#009af9; stroke-linecap:round; stroke-linejoin:round; stroke-width:8; stroke-opacity:1; fill:none" points="233.617,134.434 297.743,134.434 "/>
<path clip-path="url(#clip110)" d="M324.449 120.325 Q319.357 120.325 316.348 124.121 Q313.361 127.917 313.361 134.468 Q313.361 140.996 316.348 144.792 Q319.357 148.589 324.449 148.589 Q329.542 148.589 332.505 144.792 Q335.491 140.996 335.491 134.468 Q335.491 127.917 332.505 124.121 Q329.542 120.325 324.449 120.325 M324.449 116.529 Q331.718 116.529 336.07 121.413 Q340.421 126.274 340.421 134.468 Q340.421 142.64 336.07 147.524 Q331.718 152.385 324.449 152.385 Q317.158 152.385 312.783 147.524 Q308.431 142.663 308.431 134.468 Q308.431 126.274 312.783 121.413 Q317.158 116.529 324.449 116.529 Z" fill="#000000" fill-rule="nonzero" fill-opacity="1" /><path clip-path="url(#clip110)" d="M362.574 129.769 Q361.857 129.353 361 129.167 Q360.167 128.959 359.148 128.959 Q355.537 128.959 353.593 131.32 Q351.671 133.658 351.671 138.056 L351.671 151.714 L347.389 151.714 L347.389 125.788 L351.671 125.788 L351.671 129.816 Q353.014 127.454 355.167 126.32 Q357.32 125.163 360.398 125.163 Q360.838 125.163 361.37 125.232 Q361.903 125.279 362.551 125.394 L362.574 129.769 Z" fill="#000000" fill-rule="nonzero" fill-opacity="1" /><path clip-path="url(#clip110)" d="M367.042 125.788 L371.301 125.788 L371.301 151.714 L367.042 151.714 L367.042 125.788 M367.042 115.695 L371.301 115.695 L371.301 121.089 L367.042 121.089 L367.042 115.695 Z" fill="#000000" fill-rule="nonzero" fill-opacity="1" /><path clip-path="url(#clip110)" d="M397.273 138.45 Q397.273 133.82 395.352 131.274 Q393.454 128.728 390.005 128.728 Q386.579 128.728 384.657 131.274 Q382.759 133.82 382.759 138.45 Q382.759 143.056 384.657 145.602 Q386.579 148.149 390.005 148.149 Q393.454 148.149 395.352 145.602 Q397.273 143.056 397.273 138.45 M401.532 148.496 Q401.532 155.116 398.592 158.334 Q395.653 161.575 389.588 161.575 Q387.342 161.575 385.352 161.227 Q383.361 160.903 381.486 160.209 L381.486 156.065 Q383.361 157.084 385.19 157.57 Q387.018 158.056 388.917 158.056 Q393.106 158.056 395.19 155.857 Q397.273 153.681 397.273 149.26 L397.273 147.153 Q395.954 149.445 393.893 150.579 Q391.833 151.714 388.963 151.714 Q384.194 151.714 381.278 148.079 Q378.361 144.445 378.361 138.45 Q378.361 132.431 381.278 128.797 Q384.194 125.163 388.963 125.163 Q391.833 125.163 393.893 126.297 Q395.954 127.431 397.273 129.723 L397.273 125.788 L401.532 125.788 L401.532 148.496 Z" fill="#000000" fill-rule="nonzero" fill-opacity="1" /><path clip-path="url(#clip110)" d="M410.305 125.788 L414.565 125.788 L414.565 151.714 L410.305 151.714 L410.305 125.788 M410.305 115.695 L414.565 115.695 L414.565 121.089 L410.305 121.089 L410.305 115.695 Z" fill="#000000" fill-rule="nonzero" fill-opacity="1" /><path clip-path="url(#clip110)" d="M445.027 136.065 L445.027 151.714 L440.768 151.714 L440.768 136.204 Q440.768 132.524 439.333 130.695 Q437.898 128.866 435.027 128.866 Q431.578 128.866 429.588 131.066 Q427.597 133.265 427.597 137.061 L427.597 151.714 L423.315 151.714 L423.315 125.788 L427.597 125.788 L427.597 129.816 Q429.125 127.478 431.185 126.32 Q433.268 125.163 435.976 125.163 Q440.444 125.163 442.736 127.941 Q445.027 130.695 445.027 136.065 Z" fill="#000000" fill-rule="nonzero" fill-opacity="1" /><path clip-path="url(#clip110)" d="M465.305 138.681 Q460.143 138.681 458.152 139.862 Q456.162 141.042 456.162 143.89 Q456.162 146.158 457.643 147.501 Q459.148 148.82 461.717 148.82 Q465.259 148.82 467.388 146.32 Q469.541 143.797 469.541 139.63 L469.541 138.681 L465.305 138.681 M473.8 136.922 L473.8 151.714 L469.541 151.714 L469.541 147.778 Q468.083 150.139 465.907 151.274 Q463.731 152.385 460.583 152.385 Q456.601 152.385 454.24 150.163 Q451.902 147.917 451.902 144.167 Q451.902 139.792 454.819 137.57 Q457.759 135.348 463.569 135.348 L469.541 135.348 L469.541 134.931 Q469.541 131.991 467.597 130.394 Q465.675 128.774 462.18 128.774 Q459.958 128.774 457.851 129.306 Q455.745 129.839 453.8 130.903 L453.8 126.968 Q456.138 126.066 458.337 125.626 Q460.537 125.163 462.62 125.163 Q468.245 125.163 471.023 128.079 Q473.8 130.996 473.8 136.922 Z" fill="#000000" fill-rule="nonzero" fill-opacity="1" /><path clip-path="url(#clip110)" d="M482.573 115.695 L486.833 115.695 L486.833 151.714 L482.573 151.714 L482.573 115.695 Z" fill="#000000" fill-rule="nonzero" fill-opacity="1" /><path clip-path="url(#clip110)" d="M523.939 115.695 L523.939 119.237 L519.865 119.237 Q517.573 119.237 516.671 120.163 Q515.791 121.089 515.791 123.496 L515.791 125.788 L522.805 125.788 L522.805 129.098 L515.791 129.098 L515.791 151.714 L511.508 151.714 L511.508 129.098 L507.434 129.098 L507.434 125.788 L511.508 125.788 L511.508 123.982 Q511.508 119.654 513.522 117.686 Q515.536 115.695 519.911 115.695 L523.939 115.695 Z" fill="#000000" fill-rule="nonzero" fill-opacity="1" /><path clip-path="url(#clip110)" d="M537.735 115.742 Q534.633 121.066 533.129 126.274 Q531.624 131.482 531.624 136.829 Q531.624 142.177 533.129 147.431 Q534.657 152.663 537.735 157.964 L534.032 157.964 Q530.559 152.524 528.823 147.269 Q527.11 142.015 527.11 136.829 Q527.11 131.667 528.823 126.436 Q530.536 121.204 534.032 115.742 L537.735 115.742 Z" fill="#000000" fill-rule="nonzero" fill-opacity="1" /><path clip-path="url(#clip110)" d="M567.55 125.788 L558.175 138.403 L568.036 151.714 L563.013 151.714 L555.467 141.528 L547.92 151.714 L542.897 151.714 L552.967 138.149 L543.754 125.788 L548.777 125.788 L555.652 135.024 L562.527 125.788 L567.55 125.788 Z" fill="#000000" fill-rule="nonzero" fill-opacity="1" /><path clip-path="url(#clip110)" d="M573.383 115.742 L577.087 115.742 Q580.559 121.204 582.272 126.436 Q584.008 131.667 584.008 136.829 Q584.008 142.015 582.272 147.269 Q580.559 152.524 577.087 157.964 L573.383 157.964 Q576.462 152.663 577.966 147.431 Q579.494 142.177 579.494 136.829 Q579.494 131.482 577.966 126.274 Q576.462 121.066 573.383 115.742 Z" fill="#000000" fill-rule="nonzero" fill-opacity="1" /><polyline clip-path="url(#clip110)" style="stroke:#e26f46; stroke-linecap:round; stroke-linejoin:round; stroke-width:8; stroke-opacity:1; fill:none" stroke-dasharray="32, 20" points="233.617,186.274 297.743,186.274 "/>
<path clip-path="url(#clip110)" d="M309.102 199.618 L316.741 199.618 L316.741 173.253 L308.431 174.919 L308.431 170.66 L316.695 168.994 L321.371 168.994 L321.371 199.618 L329.009 199.618 L329.009 203.554 L309.102 203.554 L309.102 199.618 Z" fill="#000000" fill-rule="nonzero" fill-opacity="1" /><path clip-path="url(#clip110)" d="M354.38 178.392 L354.38 182.419 Q352.574 181.493 350.63 181.031 Q348.685 180.568 346.602 180.568 Q343.431 180.568 341.833 181.54 Q340.259 182.512 340.259 184.456 Q340.259 185.938 341.394 186.794 Q342.528 187.628 345.954 188.392 L347.412 188.716 Q351.949 189.688 353.847 191.47 Q355.769 193.23 355.769 196.401 Q355.769 200.012 352.898 202.118 Q350.051 204.225 345.051 204.225 Q342.968 204.225 340.699 203.808 Q338.454 203.415 335.954 202.604 L335.954 198.206 Q338.315 199.433 340.607 200.058 Q342.898 200.66 345.144 200.66 Q348.153 200.66 349.773 199.642 Q351.394 198.6 351.394 196.725 Q351.394 194.989 350.213 194.063 Q349.056 193.137 345.097 192.28 L343.616 191.933 Q339.658 191.1 337.898 189.387 Q336.139 187.651 336.139 184.642 Q336.139 180.984 338.732 178.994 Q341.324 177.003 346.093 177.003 Q348.454 177.003 350.537 177.35 Q352.62 177.697 354.38 178.392 Z" fill="#000000" fill-rule="nonzero" fill-opacity="1" /><path clip-path="url(#clip110)" d="M366.764 170.267 L366.764 177.628 L375.537 177.628 L375.537 180.938 L366.764 180.938 L366.764 195.012 Q366.764 198.183 367.62 199.086 Q368.5 199.989 371.162 199.989 L375.537 199.989 L375.537 203.554 L371.162 203.554 Q366.231 203.554 364.357 201.725 Q362.482 199.873 362.482 195.012 L362.482 180.938 L359.357 180.938 L359.357 177.628 L362.482 177.628 L362.482 170.267 L366.764 170.267 Z" fill="#000000" fill-rule="nonzero" fill-opacity="1" /><path clip-path="url(#clip110)" d="M410.421 172.165 Q405.329 172.165 402.319 175.961 Q399.333 179.757 399.333 186.308 Q399.333 192.836 402.319 196.632 Q405.329 200.429 410.421 200.429 Q415.514 200.429 418.477 196.632 Q421.463 192.836 421.463 186.308 Q421.463 179.757 418.477 175.961 Q415.514 172.165 410.421 172.165 M410.421 168.369 Q417.69 168.369 422.041 173.253 Q426.393 178.114 426.393 186.308 Q426.393 194.48 422.041 199.364 Q417.69 204.225 410.421 204.225 Q403.129 204.225 398.754 199.364 Q394.403 194.503 394.403 186.308 Q394.403 178.114 398.754 173.253 Q403.129 168.369 410.421 168.369 Z" fill="#000000" fill-rule="nonzero" fill-opacity="1" /><path clip-path="url(#clip110)" d="M448.546 181.609 Q447.828 181.193 446.972 181.007 Q446.138 180.799 445.12 180.799 Q441.509 180.799 439.564 183.16 Q437.643 185.498 437.643 189.896 L437.643 203.554 L433.361 203.554 L433.361 177.628 L437.643 177.628 L437.643 181.656 Q438.986 179.294 441.139 178.16 Q443.291 177.003 446.37 177.003 Q446.81 177.003 447.342 177.072 Q447.875 177.119 448.523 177.234 L448.546 181.609 Z" fill="#000000" fill-rule="nonzero" fill-opacity="1" /><path clip-path="url(#clip110)" d="M469.24 181.563 L469.24 167.535 L473.499 167.535 L473.499 203.554 L469.24 203.554 L469.24 199.665 Q467.898 201.979 465.837 203.114 Q463.8 204.225 460.93 204.225 Q456.231 204.225 453.268 200.475 Q450.328 196.725 450.328 190.614 Q450.328 184.503 453.268 180.753 Q456.231 177.003 460.93 177.003 Q463.8 177.003 465.837 178.137 Q467.898 179.248 469.24 181.563 M454.726 190.614 Q454.726 195.313 456.648 197.998 Q458.592 200.66 461.972 200.66 Q465.351 200.66 467.296 197.998 Q469.24 195.313 469.24 190.614 Q469.24 185.915 467.296 183.253 Q465.351 180.568 461.972 180.568 Q458.592 180.568 456.648 183.253 Q454.726 185.915 454.726 190.614 Z" fill="#000000" fill-rule="nonzero" fill-opacity="1" /><path clip-path="url(#clip110)" d="M504.448 189.526 L504.448 191.609 L484.865 191.609 Q485.143 196.007 487.504 198.322 Q489.888 200.614 494.124 200.614 Q496.578 200.614 498.87 200.012 Q501.184 199.41 503.453 198.206 L503.453 202.234 Q501.161 203.206 498.754 203.716 Q496.347 204.225 493.87 204.225 Q487.666 204.225 484.032 200.614 Q480.421 197.003 480.421 190.845 Q480.421 184.48 483.847 180.753 Q487.296 177.003 493.129 177.003 Q498.36 177.003 501.393 180.382 Q504.448 183.739 504.448 189.526 M500.189 188.276 Q500.143 184.781 498.222 182.697 Q496.323 180.614 493.175 180.614 Q489.61 180.614 487.458 182.628 Q485.328 184.642 485.004 188.299 L500.189 188.276 Z" fill="#000000" fill-rule="nonzero" fill-opacity="1" /><path clip-path="url(#clip110)" d="M526.462 181.609 Q525.745 181.193 524.888 181.007 Q524.055 180.799 523.036 180.799 Q519.425 180.799 517.481 183.16 Q515.559 185.498 515.559 189.896 L515.559 203.554 L511.277 203.554 L511.277 177.628 L515.559 177.628 L515.559 181.656 Q516.902 179.294 519.055 178.16 Q521.208 177.003 524.286 177.003 Q524.726 177.003 525.258 177.072 Q525.791 177.119 526.439 177.234 L526.462 181.609 Z" fill="#000000" fill-rule="nonzero" fill-opacity="1" /><path clip-path="url(#clip110)" d="M557.735 173.6 L551.393 190.799 L564.101 190.799 L557.735 173.6 M555.096 168.994 L560.397 168.994 L573.568 203.554 L568.707 203.554 L565.559 194.688 L549.981 194.688 L546.832 203.554 L541.902 203.554 L555.096 168.994 Z" fill="#000000" fill-rule="nonzero" fill-opacity="1" /><path clip-path="url(#clip110)" d="M582.55 199.665 L582.55 213.415 L578.267 213.415 L578.267 177.628 L582.55 177.628 L582.55 181.563 Q583.892 179.248 585.929 178.137 Q587.99 177.003 590.837 177.003 Q595.559 177.003 598.499 180.753 Q601.462 184.503 601.462 190.614 Q601.462 196.725 598.499 200.475 Q595.559 204.225 590.837 204.225 Q587.99 204.225 585.929 203.114 Q583.892 201.979 582.55 199.665 M597.04 190.614 Q597.04 185.915 595.096 183.253 Q593.175 180.568 589.795 180.568 Q586.415 180.568 584.471 183.253 Q582.55 185.915 582.55 190.614 Q582.55 195.313 584.471 197.998 Q586.415 200.66 589.795 200.66 Q593.175 200.66 595.096 197.998 Q597.04 195.313 597.04 190.614 Z" fill="#000000" fill-rule="nonzero" fill-opacity="1" /><path clip-path="url(#clip110)" d="M612.642 199.665 L612.642 213.415 L608.36 213.415 L608.36 177.628 L612.642 177.628 L612.642 181.563 Q613.985 179.248 616.022 178.137 Q618.082 177.003 620.929 177.003 Q625.651 177.003 628.591 180.753 Q631.554 184.503 631.554 190.614 Q631.554 196.725 628.591 200.475 Q625.651 204.225 620.929 204.225 Q618.082 204.225 616.022 203.114 Q613.985 201.979 612.642 199.665 M627.133 190.614 Q627.133 185.915 625.188 183.253 Q623.267 180.568 619.888 180.568 Q616.508 180.568 614.563 183.253 Q612.642 185.915 612.642 190.614 Q612.642 195.313 614.563 197.998 Q616.508 200.66 619.888 200.66 Q623.267 200.66 625.188 197.998 Q627.133 195.313 627.133 190.614 Z" fill="#000000" fill-rule="nonzero" fill-opacity="1" /><path clip-path="url(#clip110)" d="M653.637 181.609 Q652.92 181.193 652.063 181.007 Q651.23 180.799 650.211 180.799 Q646.6 180.799 644.656 183.16 Q642.735 185.498 642.735 189.896 L642.735 203.554 L638.452 203.554 L638.452 177.628 L642.735 177.628 L642.735 181.656 Q644.077 179.294 646.23 178.16 Q648.383 177.003 651.461 177.003 Q651.901 177.003 652.434 177.072 Q652.966 177.119 653.614 177.234 L653.637 181.609 Z" fill="#000000" fill-rule="nonzero" fill-opacity="1" /><path clip-path="url(#clip110)" d="M667.11 180.614 Q663.684 180.614 661.693 183.299 Q659.702 185.961 659.702 190.614 Q659.702 195.267 661.67 197.952 Q663.66 200.614 667.11 200.614 Q670.512 200.614 672.503 197.929 Q674.494 195.243 674.494 190.614 Q674.494 186.007 672.503 183.322 Q670.512 180.614 667.11 180.614 M667.11 177.003 Q672.665 177.003 675.836 180.614 Q679.008 184.225 679.008 190.614 Q679.008 196.98 675.836 200.614 Q672.665 204.225 667.11 204.225 Q661.531 204.225 658.36 200.614 Q655.211 196.98 655.211 190.614 Q655.211 184.225 658.36 180.614 Q661.531 177.003 667.11 177.003 Z" fill="#000000" fill-rule="nonzero" fill-opacity="1" /><path clip-path="url(#clip110)" d="M706.16 177.628 L696.785 190.243 L706.646 203.554 L701.623 203.554 L694.077 193.368 L686.531 203.554 L681.508 203.554 L691.577 189.989 L682.364 177.628 L687.387 177.628 L694.262 186.864 L701.137 177.628 L706.16 177.628 Z" fill="#000000" fill-rule="nonzero" fill-opacity="1" /><path clip-path="url(#clip110)" d="M713.267 197.674 L718.151 197.674 L718.151 203.554 L713.267 203.554 L713.267 197.674 Z" fill="#000000" fill-rule="nonzero" fill-opacity="1" /><path clip-path="url(#clip110)" d="M754.586 190.521 Q749.424 190.521 747.433 191.702 Q745.442 192.882 745.442 195.73 Q745.442 197.998 746.924 199.341 Q748.429 200.66 750.998 200.66 Q754.54 200.66 756.669 198.16 Q758.822 195.637 758.822 191.47 L758.822 190.521 L754.586 190.521 M763.081 188.762 L763.081 203.554 L758.822 203.554 L758.822 199.618 Q757.364 201.979 755.188 203.114 Q753.012 204.225 749.864 204.225 Q745.882 204.225 743.521 202.003 Q741.183 199.757 741.183 196.007 Q741.183 191.632 744.1 189.41 Q747.04 187.188 752.85 187.188 L758.822 187.188 L758.822 186.771 Q758.822 183.831 756.878 182.234 Q754.956 180.614 751.461 180.614 Q749.239 180.614 747.132 181.146 Q745.026 181.679 743.081 182.743 L743.081 178.808 Q745.419 177.906 747.618 177.466 Q749.817 177.003 751.901 177.003 Q757.526 177.003 760.303 179.919 Q763.081 182.836 763.081 188.762 Z" fill="#000000" fill-rule="nonzero" fill-opacity="1" /><path clip-path="url(#clip110)" d="M786.877 181.609 Q786.16 181.193 785.303 181.007 Q784.47 180.799 783.451 180.799 Q779.84 180.799 777.896 183.16 Q775.975 185.498 775.975 189.896 L775.975 203.554 L771.692 203.554 L771.692 177.628 L775.975 177.628 L775.975 181.656 Q777.317 179.294 779.47 178.16 Q781.623 177.003 784.701 177.003 Q785.141 177.003 785.674 177.072 Q786.206 177.119 786.854 177.234 L786.877 181.609 Z" fill="#000000" fill-rule="nonzero" fill-opacity="1" /><path clip-path="url(#clip110)" d="M800.35 180.614 Q796.924 180.614 794.933 183.299 Q792.942 185.961 792.942 190.614 Q792.942 195.267 794.91 197.952 Q796.9 200.614 800.35 200.614 Q803.752 200.614 805.743 197.929 Q807.734 195.243 807.734 190.614 Q807.734 186.007 805.743 183.322 Q803.752 180.614 800.35 180.614 M800.35 177.003 Q805.905 177.003 809.076 180.614 Q812.248 184.225 812.248 190.614 Q812.248 196.98 809.076 200.614 Q805.905 204.225 800.35 204.225 Q794.771 204.225 791.6 200.614 Q788.451 196.98 788.451 190.614 Q788.451 184.225 791.6 180.614 Q794.771 177.003 800.35 177.003 Z" fill="#000000" fill-rule="nonzero" fill-opacity="1" /><path clip-path="url(#clip110)" d="M818.868 193.322 L818.868 177.628 L823.127 177.628 L823.127 193.16 Q823.127 196.841 824.562 198.692 Q825.998 200.521 828.868 200.521 Q832.317 200.521 834.308 198.322 Q836.322 196.123 836.322 192.327 L836.322 177.628 L840.581 177.628 L840.581 203.554 L836.322 203.554 L836.322 199.572 Q834.771 201.933 832.71 203.091 Q830.673 204.225 827.965 204.225 Q823.498 204.225 821.183 201.447 Q818.868 198.669 818.868 193.322 M829.585 177.003 L829.585 177.003 Z" fill="#000000" fill-rule="nonzero" fill-opacity="1" /><path clip-path="url(#clip110)" d="M870.905 187.905 L870.905 203.554 L866.645 203.554 L866.645 188.044 Q866.645 184.364 865.21 182.535 Q863.775 180.706 860.905 180.706 Q857.456 180.706 855.465 182.906 Q853.474 185.105 853.474 188.901 L853.474 203.554 L849.192 203.554 L849.192 177.628 L853.474 177.628 L853.474 181.656 Q855.002 179.318 857.062 178.16 Q859.146 177.003 861.854 177.003 Q866.321 177.003 868.613 179.781 Q870.905 182.535 870.905 187.905 Z" fill="#000000" fill-rule="nonzero" fill-opacity="1" /><path clip-path="url(#clip110)" d="M896.46 181.563 L896.46 167.535 L900.719 167.535 L900.719 203.554 L896.46 203.554 L896.46 199.665 Q895.118 201.979 893.057 203.114 Q891.02 204.225 888.15 204.225 Q883.451 204.225 880.488 200.475 Q877.548 196.725 877.548 190.614 Q877.548 184.503 880.488 180.753 Q883.451 177.003 888.15 177.003 Q891.02 177.003 893.057 178.137 Q895.118 179.248 896.46 181.563 M881.946 190.614 Q881.946 195.313 883.868 197.998 Q885.812 200.66 889.192 200.66 Q892.571 200.66 894.516 197.998 Q896.46 195.313 896.46 190.614 Q896.46 185.915 894.516 183.253 Q892.571 180.568 889.192 180.568 Q885.812 180.568 883.868 183.253 Q881.946 185.915 881.946 190.614 Z" fill="#000000" fill-rule="nonzero" fill-opacity="1" /><path clip-path="url(#clip110)" d="M946.113 177.628 L936.738 190.243 L946.599 203.554 L941.576 203.554 L934.029 193.368 L926.483 203.554 L921.46 203.554 L931.529 189.989 L922.316 177.628 L927.34 177.628 L934.215 186.864 L941.09 177.628 L946.113 177.628 Z" fill="#000000" fill-rule="nonzero" fill-opacity="1" /><path clip-path="url(#clip110)" d="M961.344 187.882 Q960.187 185.892 957.849 185.892 Q955.511 185.892 954.353 187.882 Q953.173 189.873 953.173 193.855 Q953.173 197.859 954.353 199.85 Q955.511 201.841 957.849 201.841 Q960.187 201.841 961.344 199.85 Q962.525 197.859 962.525 193.855 Q962.525 189.873 961.344 187.882 M957.849 183.831 Q961.576 183.831 963.543 186.401 Q965.511 188.97 965.511 193.855 Q965.511 198.762 963.543 201.331 Q961.576 203.901 957.849 203.901 Q954.099 203.901 952.131 201.331 Q950.164 198.762 950.164 193.855 Q950.164 188.97 952.131 186.401 Q954.099 183.831 957.849 183.831 Z" fill="#000000" fill-rule="nonzero" fill-opacity="1" /><polyline clip-path="url(#clip110)" style="stroke:#3da44d; stroke-linecap:round; stroke-linejoin:round; stroke-width:8; stroke-opacity:1; fill:none" stroke-dasharray="32, 16, 4, 16" points="233.617,238.114 297.743,238.114 "/>
<path clip-path="url(#clip110)" d="M314.056 251.458 L330.375 251.458 L330.375 255.394 L308.431 255.394 L308.431 251.458 Q311.093 248.704 315.676 244.074 Q320.283 239.421 321.463 238.079 Q323.709 235.556 324.588 233.82 Q325.491 232.06 325.491 230.371 Q325.491 227.616 323.547 225.88 Q321.625 224.144 318.523 224.144 Q316.324 224.144 313.871 224.908 Q311.44 225.671 308.662 227.222 L308.662 222.5 Q311.486 221.366 313.94 220.787 Q316.394 220.209 318.431 220.209 Q323.801 220.209 326.996 222.894 Q330.19 225.579 330.19 230.07 Q330.19 232.199 329.38 234.121 Q328.593 236.019 326.486 238.611 Q325.908 239.283 322.806 242.5 Q319.704 245.695 314.056 251.458 Z" fill="#000000" fill-rule="nonzero" fill-opacity="1" /><path clip-path="url(#clip110)" d="M361.139 239.745 L361.139 255.394 L356.88 255.394 L356.88 239.884 Q356.88 236.204 355.445 234.375 Q354.009 232.546 351.139 232.546 Q347.69 232.546 345.699 234.746 Q343.708 236.945 343.708 240.741 L343.708 255.394 L339.426 255.394 L339.426 229.468 L343.708 229.468 L343.708 233.496 Q345.236 231.158 347.296 230 Q349.38 228.843 352.088 228.843 Q356.556 228.843 358.847 231.621 Q361.139 234.375 361.139 239.745 Z" fill="#000000" fill-rule="nonzero" fill-opacity="1" /><path clip-path="url(#clip110)" d="M386.694 233.403 L386.694 219.375 L390.954 219.375 L390.954 255.394 L386.694 255.394 L386.694 251.505 Q385.352 253.819 383.292 254.954 Q381.255 256.065 378.384 256.065 Q373.685 256.065 370.722 252.315 Q367.782 248.565 367.782 242.454 Q367.782 236.343 370.722 232.593 Q373.685 228.843 378.384 228.843 Q381.255 228.843 383.292 229.977 Q385.352 231.088 386.694 233.403 M372.181 242.454 Q372.181 247.153 374.102 249.838 Q376.046 252.5 379.426 252.5 Q382.805 252.5 384.75 249.838 Q386.694 247.153 386.694 242.454 Q386.694 237.755 384.75 235.093 Q382.805 232.408 379.426 232.408 Q376.046 232.408 374.102 235.093 Q372.181 237.755 372.181 242.454 Z" fill="#000000" fill-rule="nonzero" fill-opacity="1" /><path clip-path="url(#clip110)" d="M429.009 224.005 Q423.916 224.005 420.907 227.801 Q417.921 231.597 417.921 238.148 Q417.921 244.676 420.907 248.472 Q423.916 252.269 429.009 252.269 Q434.102 252.269 437.064 248.472 Q440.051 244.676 440.051 238.148 Q440.051 231.597 437.064 227.801 Q434.102 224.005 429.009 224.005 M429.009 220.209 Q436.277 220.209 440.629 225.093 Q444.981 229.954 444.981 238.148 Q444.981 246.32 440.629 251.204 Q436.277 256.065 429.009 256.065 Q421.717 256.065 417.342 251.204 Q412.991 246.343 412.991 238.148 Q412.991 229.954 417.342 225.093 Q421.717 220.209 429.009 220.209 Z" fill="#000000" fill-rule="nonzero" fill-opacity="1" /><path clip-path="url(#clip110)" d="M467.134 233.449 Q466.416 233.033 465.56 232.847 Q464.726 232.639 463.708 232.639 Q460.097 232.639 458.152 235 Q456.231 237.338 456.231 241.736 L456.231 255.394 L451.949 255.394 L451.949 229.468 L456.231 229.468 L456.231 233.496 Q457.574 231.134 459.726 230 Q461.879 228.843 464.958 228.843 Q465.398 228.843 465.93 228.912 Q466.462 228.959 467.111 229.074 L467.134 233.449 Z" fill="#000000" fill-rule="nonzero" fill-opacity="1" /><path clip-path="url(#clip110)" d="M487.828 233.403 L487.828 219.375 L492.087 219.375 L492.087 255.394 L487.828 255.394 L487.828 251.505 Q486.485 253.819 484.425 254.954 Q482.388 256.065 479.518 256.065 Q474.819 256.065 471.856 252.315 Q468.916 248.565 468.916 242.454 Q468.916 236.343 471.856 232.593 Q474.819 228.843 479.518 228.843 Q482.388 228.843 484.425 229.977 Q486.485 231.088 487.828 233.403 M473.314 242.454 Q473.314 247.153 475.236 249.838 Q477.18 252.5 480.56 252.5 Q483.939 252.5 485.884 249.838 Q487.828 247.153 487.828 242.454 Q487.828 237.755 485.884 235.093 Q483.939 232.408 480.56 232.408 Q477.18 232.408 475.236 235.093 Q473.314 237.755 473.314 242.454 Z" fill="#000000" fill-rule="nonzero" fill-opacity="1" /><path clip-path="url(#clip110)" d="M523.036 241.366 L523.036 243.449 L503.453 243.449 Q503.731 247.847 506.092 250.162 Q508.476 252.454 512.712 252.454 Q515.166 252.454 517.458 251.852 Q519.772 251.25 522.041 250.046 L522.041 254.074 Q519.749 255.046 517.342 255.556 Q514.934 256.065 512.458 256.065 Q506.254 256.065 502.62 252.454 Q499.009 248.843 499.009 242.685 Q499.009 236.32 502.434 232.593 Q505.884 228.843 511.717 228.843 Q516.948 228.843 519.981 232.222 Q523.036 235.579 523.036 241.366 M518.777 240.116 Q518.731 236.621 516.809 234.537 Q514.911 232.454 511.763 232.454 Q508.198 232.454 506.046 234.468 Q503.916 236.482 503.592 240.139 L518.777 240.116 Z" fill="#000000" fill-rule="nonzero" fill-opacity="1" /><path clip-path="url(#clip110)" d="M545.05 233.449 Q544.332 233.033 543.476 232.847 Q542.643 232.639 541.624 232.639 Q538.013 232.639 536.069 235 Q534.147 237.338 534.147 241.736 L534.147 255.394 L529.865 255.394 L529.865 229.468 L534.147 229.468 L534.147 233.496 Q535.49 231.134 537.643 230 Q539.795 228.843 542.874 228.843 Q543.314 228.843 543.846 228.912 Q544.379 228.959 545.027 229.074 L545.05 233.449 Z" fill="#000000" fill-rule="nonzero" fill-opacity="1" /><path clip-path="url(#clip110)" d="M576.323 225.44 L569.98 242.639 L582.689 242.639 L576.323 225.44 M573.684 220.834 L578.985 220.834 L592.156 255.394 L587.295 255.394 L584.147 246.528 L568.568 246.528 L565.42 255.394 L560.49 255.394 L573.684 220.834 Z" fill="#000000" fill-rule="nonzero" fill-opacity="1" /><path clip-path="url(#clip110)" d="M601.138 251.505 L601.138 265.255 L596.855 265.255 L596.855 229.468 L601.138 229.468 L601.138 233.403 Q602.48 231.088 604.517 229.977 Q606.577 228.843 609.425 228.843 Q614.147 228.843 617.087 232.593 Q620.05 236.343 620.05 242.454 Q620.05 248.565 617.087 252.315 Q614.147 256.065 609.425 256.065 Q606.577 256.065 604.517 254.954 Q602.48 253.819 601.138 251.505 M615.628 242.454 Q615.628 237.755 613.684 235.093 Q611.763 232.408 608.383 232.408 Q605.003 232.408 603.059 235.093 Q601.138 237.755 601.138 242.454 Q601.138 247.153 603.059 249.838 Q605.003 252.5 608.383 252.5 Q611.763 252.5 613.684 249.838 Q615.628 247.153 615.628 242.454 Z" fill="#000000" fill-rule="nonzero" fill-opacity="1" /><path clip-path="url(#clip110)" d="M631.23 251.505 L631.23 265.255 L626.948 265.255 L626.948 229.468 L631.23 229.468 L631.23 233.403 Q632.573 231.088 634.61 229.977 Q636.67 228.843 639.517 228.843 Q644.239 228.843 647.179 232.593 Q650.142 236.343 650.142 242.454 Q650.142 248.565 647.179 252.315 Q644.239 256.065 639.517 256.065 Q636.67 256.065 634.61 254.954 Q632.573 253.819 631.23 251.505 M645.721 242.454 Q645.721 237.755 643.776 235.093 Q641.855 232.408 638.475 232.408 Q635.096 232.408 633.151 235.093 Q631.23 237.755 631.23 242.454 Q631.23 247.153 633.151 249.838 Q635.096 252.5 638.475 252.5 Q641.855 252.5 643.776 249.838 Q645.721 247.153 645.721 242.454 Z" fill="#000000" fill-rule="nonzero" fill-opacity="1" /><path clip-path="url(#clip110)" d="M672.225 233.449 Q671.508 233.033 670.651 232.847 Q669.818 232.639 668.799 232.639 Q665.188 232.639 663.244 235 Q661.323 237.338 661.323 241.736 L661.323 255.394 L657.04 255.394 L657.04 229.468 L661.323 229.468 L661.323 233.496 Q662.665 231.134 664.818 230 Q666.971 228.843 670.049 228.843 Q670.489 228.843 671.022 228.912 Q671.554 228.959 672.202 229.074 L672.225 233.449 Z" fill="#000000" fill-rule="nonzero" fill-opacity="1" /><path clip-path="url(#clip110)" d="M685.697 232.454 Q682.271 232.454 680.281 235.139 Q678.29 237.801 678.29 242.454 Q678.29 247.107 680.258 249.792 Q682.248 252.454 685.697 252.454 Q689.1 252.454 691.091 249.769 Q693.082 247.083 693.082 242.454 Q693.082 237.847 691.091 235.162 Q689.1 232.454 685.697 232.454 M685.697 228.843 Q691.253 228.843 694.424 232.454 Q697.595 236.065 697.595 242.454 Q697.595 248.82 694.424 252.454 Q691.253 256.065 685.697 256.065 Q680.119 256.065 676.947 252.454 Q673.799 248.82 673.799 242.454 Q673.799 236.065 676.947 232.454 Q680.119 228.843 685.697 228.843 Z" fill="#000000" fill-rule="nonzero" fill-opacity="1" /><path clip-path="url(#clip110)" d="M724.748 229.468 L715.373 242.083 L725.234 255.394 L720.211 255.394 L712.665 245.208 L705.119 255.394 L700.095 255.394 L710.165 241.829 L700.952 229.468 L705.975 229.468 L712.85 238.704 L719.725 229.468 L724.748 229.468 Z" fill="#000000" fill-rule="nonzero" fill-opacity="1" /><path clip-path="url(#clip110)" d="M731.855 249.514 L736.739 249.514 L736.739 255.394 L731.855 255.394 L731.855 249.514 Z" fill="#000000" fill-rule="nonzero" fill-opacity="1" /><path clip-path="url(#clip110)" d="M773.174 242.361 Q768.012 242.361 766.021 243.542 Q764.03 244.722 764.03 247.57 Q764.03 249.838 765.512 251.181 Q767.016 252.5 769.586 252.5 Q773.127 252.5 775.257 250 Q777.41 247.477 777.41 243.31 L777.41 242.361 L773.174 242.361 M781.669 240.602 L781.669 255.394 L777.41 255.394 L777.41 251.458 Q775.952 253.819 773.776 254.954 Q771.6 256.065 768.452 256.065 Q764.47 256.065 762.109 253.843 Q759.771 251.597 759.771 247.847 Q759.771 243.472 762.688 241.25 Q765.628 239.028 771.438 239.028 L777.41 239.028 L777.41 238.611 Q777.41 235.671 775.465 234.074 Q773.544 232.454 770.049 232.454 Q767.827 232.454 765.72 232.986 Q763.614 233.519 761.669 234.583 L761.669 230.648 Q764.007 229.746 766.206 229.306 Q768.405 228.843 770.489 228.843 Q776.114 228.843 778.891 231.759 Q781.669 234.676 781.669 240.602 Z" fill="#000000" fill-rule="nonzero" fill-opacity="1" /><path clip-path="url(#clip110)" d="M805.465 233.449 Q804.748 233.033 803.891 232.847 Q803.058 232.639 802.039 232.639 Q798.428 232.639 796.484 235 Q794.563 237.338 794.563 241.736 L794.563 255.394 L790.28 255.394 L790.28 229.468 L794.563 229.468 L794.563 233.496 Q795.905 231.134 798.058 230 Q800.211 228.843 803.289 228.843 Q803.729 228.843 804.262 228.912 Q804.794 228.959 805.442 229.074 L805.465 233.449 Z" fill="#000000" fill-rule="nonzero" fill-opacity="1" /><path clip-path="url(#clip110)" d="M818.937 232.454 Q815.511 232.454 813.521 235.139 Q811.53 237.801 811.53 242.454 Q811.53 247.107 813.498 249.792 Q815.488 252.454 818.937 252.454 Q822.34 252.454 824.331 249.769 Q826.322 247.083 826.322 242.454 Q826.322 237.847 824.331 235.162 Q822.34 232.454 818.937 232.454 M818.937 228.843 Q824.493 228.843 827.664 232.454 Q830.835 236.065 830.835 242.454 Q830.835 248.82 827.664 252.454 Q824.493 256.065 818.937 256.065 Q813.359 256.065 810.187 252.454 Q807.039 248.82 807.039 242.454 Q807.039 236.065 810.187 232.454 Q813.359 228.843 818.937 228.843 Z" fill="#000000" fill-rule="nonzero" fill-opacity="1" /><path clip-path="url(#clip110)" d="M837.456 245.162 L837.456 229.468 L841.715 229.468 L841.715 245 Q841.715 248.681 843.15 250.532 Q844.585 252.361 847.456 252.361 Q850.905 252.361 852.896 250.162 Q854.909 247.963 854.909 244.167 L854.909 229.468 L859.169 229.468 L859.169 255.394 L854.909 255.394 L854.909 251.412 Q853.359 253.773 851.298 254.931 Q849.261 256.065 846.553 256.065 Q842.085 256.065 839.771 253.287 Q837.456 250.509 837.456 245.162 M848.173 228.843 L848.173 228.843 Z" fill="#000000" fill-rule="nonzero" fill-opacity="1" /><path clip-path="url(#clip110)" d="M889.493 239.745 L889.493 255.394 L885.233 255.394 L885.233 239.884 Q885.233 236.204 883.798 234.375 Q882.363 232.546 879.493 232.546 Q876.044 232.546 874.053 234.746 Q872.062 236.945 872.062 240.741 L872.062 255.394 L867.78 255.394 L867.78 229.468 L872.062 229.468 L872.062 233.496 Q873.59 231.158 875.65 230 Q877.733 228.843 880.442 228.843 Q884.909 228.843 887.201 231.621 Q889.493 234.375 889.493 239.745 Z" fill="#000000" fill-rule="nonzero" fill-opacity="1" /><path clip-path="url(#clip110)" d="M915.048 233.403 L915.048 219.375 L919.307 219.375 L919.307 255.394 L915.048 255.394 L915.048 251.505 Q913.705 253.819 911.645 254.954 Q909.608 256.065 906.738 256.065 Q902.039 256.065 899.076 252.315 Q896.136 248.565 896.136 242.454 Q896.136 236.343 899.076 232.593 Q902.039 228.843 906.738 228.843 Q909.608 228.843 911.645 229.977 Q913.705 231.088 915.048 233.403 M900.534 242.454 Q900.534 247.153 902.455 249.838 Q904.4 252.5 907.78 252.5 Q911.159 252.5 913.104 249.838 Q915.048 247.153 915.048 242.454 Q915.048 237.755 913.104 235.093 Q911.159 232.408 907.78 232.408 Q904.4 232.408 902.455 235.093 Q900.534 237.755 900.534 242.454 Z" fill="#000000" fill-rule="nonzero" fill-opacity="1" /><path clip-path="url(#clip110)" d="M964.701 229.468 L955.326 242.083 L965.187 255.394 L960.163 255.394 L952.617 245.208 L945.071 255.394 L940.048 255.394 L950.117 241.829 L940.904 229.468 L945.927 229.468 L952.802 238.704 L959.677 229.468 L964.701 229.468 Z" fill="#000000" fill-rule="nonzero" fill-opacity="1" /><path clip-path="url(#clip110)" d="M979.932 239.722 Q978.775 237.732 976.437 237.732 Q974.099 237.732 972.941 239.722 Q971.761 241.713 971.761 245.695 Q971.761 249.699 972.941 251.69 Q974.099 253.681 976.437 253.681 Q978.775 253.681 979.932 251.69 Q981.112 249.699 981.112 245.695 Q981.112 241.713 979.932 239.722 M976.437 235.671 Q980.163 235.671 982.131 238.241 Q984.099 240.81 984.099 245.695 Q984.099 250.602 982.131 253.171 Q980.163 255.741 976.437 255.741 Q972.687 255.741 970.719 253.171 Q968.751 250.602 968.751 245.695 Q968.751 240.81 970.719 238.241 Q972.687 235.671 976.437 235.671 Z" fill="#000000" fill-rule="nonzero" fill-opacity="1" /><circle clip-path="url(#clip110)" cx="265.68" cy="289.954" r="20.48" fill="#000000" fill-rule="evenodd" fill-opacity="1" stroke="none"/>
<path clip-path="url(#clip110)" d="M319.056 271.262 Q315.954 276.586 314.449 281.794 Q312.945 287.002 312.945 292.349 Q312.945 297.697 314.449 302.951 Q315.977 308.183 319.056 313.484 L315.352 313.484 Q311.88 308.044 310.144 302.789 Q308.431 297.535 308.431 292.349 Q308.431 287.187 310.144 281.956 Q311.857 276.724 315.352 271.262 L319.056 271.262 Z" fill="#000000" fill-rule="nonzero" fill-opacity="1" /><path clip-path="url(#clip110)" d="M348.87 281.308 L339.496 293.923 L349.357 307.234 L344.333 307.234 L336.787 297.048 L329.241 307.234 L324.218 307.234 L334.287 293.669 L325.074 281.308 L330.097 281.308 L336.972 290.544 L343.847 281.308 L348.87 281.308 Z" fill="#000000" fill-rule="nonzero" fill-opacity="1" /><path clip-path="url(#clip110)" d="M364.102 291.562 Q362.944 289.572 360.607 289.572 Q358.269 289.572 357.111 291.562 Q355.931 293.553 355.931 297.535 Q355.931 301.539 357.111 303.53 Q358.269 305.521 360.607 305.521 Q362.944 305.521 364.102 303.53 Q365.282 301.539 365.282 297.535 Q365.282 293.553 364.102 291.562 M360.607 287.511 Q364.333 287.511 366.301 290.081 Q368.269 292.65 368.269 297.535 Q368.269 302.442 366.301 305.011 Q364.333 307.581 360.607 307.581 Q356.857 307.581 354.889 305.011 Q352.921 302.442 352.921 297.535 Q352.921 292.65 354.889 290.081 Q356.857 287.511 360.607 287.511 Z" fill="#000000" fill-rule="nonzero" fill-opacity="1" /><path clip-path="url(#clip110)" d="M375.468 301.354 L380.352 301.354 L380.352 305.335 L376.556 312.743 L373.569 312.743 L375.468 305.335 L375.468 301.354 Z" fill="#000000" fill-rule="nonzero" fill-opacity="1" /><path clip-path="url(#clip110)" d="M417.643 271.215 L417.643 274.757 L413.569 274.757 Q411.278 274.757 410.375 275.683 Q409.495 276.609 409.495 279.016 L409.495 281.308 L416.509 281.308 L416.509 284.618 L409.495 284.618 L409.495 307.234 L405.213 307.234 L405.213 284.618 L401.139 284.618 L401.139 281.308 L405.213 281.308 L405.213 279.502 Q405.213 275.174 407.227 273.206 Q409.241 271.215 413.615 271.215 L417.643 271.215 Z" fill="#000000" fill-rule="nonzero" fill-opacity="1" /><path clip-path="url(#clip110)" d="M431.439 271.262 Q428.338 276.586 426.833 281.794 Q425.328 287.002 425.328 292.349 Q425.328 297.697 426.833 302.951 Q428.361 308.183 431.439 313.484 L427.736 313.484 Q424.264 308.044 422.527 302.789 Q420.815 297.535 420.815 292.349 Q420.815 287.187 422.527 281.956 Q424.24 276.724 427.736 271.262 L431.439 271.262 Z" fill="#000000" fill-rule="nonzero" fill-opacity="1" /><path clip-path="url(#clip110)" d="M461.254 281.308 L451.879 293.923 L461.74 307.234 L456.717 307.234 L449.171 297.048 L441.625 307.234 L436.601 307.234 L446.671 293.669 L437.458 281.308 L442.481 281.308 L449.356 290.544 L456.231 281.308 L461.254 281.308 Z" fill="#000000" fill-rule="nonzero" fill-opacity="1" /><path clip-path="url(#clip110)" d="M476.486 291.562 Q475.328 289.572 472.99 289.572 Q470.652 289.572 469.495 291.562 Q468.314 293.553 468.314 297.535 Q468.314 301.539 469.495 303.53 Q470.652 305.521 472.99 305.521 Q475.328 305.521 476.486 303.53 Q477.666 301.539 477.666 297.535 Q477.666 293.553 476.486 291.562 M472.99 287.511 Q476.717 287.511 478.685 290.081 Q480.652 292.65 480.652 297.535 Q480.652 302.442 478.685 305.011 Q476.717 307.581 472.99 307.581 Q469.24 307.581 467.273 305.011 Q465.305 302.442 465.305 297.535 Q465.305 292.65 467.273 290.081 Q469.24 287.511 472.99 287.511 Z" fill="#000000" fill-rule="nonzero" fill-opacity="1" /><path clip-path="url(#clip110)" d="M486.092 271.262 L489.796 271.262 Q493.268 276.724 494.981 281.956 Q496.717 287.187 496.717 292.349 Q496.717 297.535 494.981 302.789 Q493.268 308.044 489.796 313.484 L486.092 313.484 Q489.171 308.183 490.675 302.951 Q492.203 297.697 492.203 292.349 Q492.203 287.002 490.675 281.794 Q489.171 276.586 486.092 271.262 Z" fill="#000000" fill-rule="nonzero" fill-opacity="1" /><path clip-path="url(#clip110)" d="M504.587 271.262 L508.291 271.262 Q511.763 276.724 513.476 281.956 Q515.212 287.187 515.212 292.349 Q515.212 297.535 513.476 302.789 Q511.763 308.044 508.291 313.484 L504.587 313.484 Q507.666 308.183 509.171 302.951 Q510.698 297.697 510.698 292.349 Q510.698 287.002 509.171 281.794 Q507.666 276.586 504.587 271.262 Z" fill="#000000" fill-rule="nonzero" fill-opacity="1" /><path clip-path="url(#clip110)" d="M1390.87 1107.73 L2352.76 1107.73 L2352.76 47.2441 L1390.87 47.2441  Z" fill="#ffffff" fill-rule="evenodd" fill-opacity="1"/>
<defs>
  <clipPath id="clip113">
    <rect x="1390" y="47" width="963" height="1061"/>
  </clipPath>
</defs>
<polyline clip-path="url(#clip113)" style="stroke:#000000; stroke-linecap:round; stroke-linejoin:round; stroke-width:2; stroke-opacity:0.1; fill:none" points="1418.09,1107.73 1418.09,47.2441 "/>
<polyline clip-path="url(#clip113)" style="stroke:#000000; stroke-linecap:round; stroke-linejoin:round; stroke-width:2; stroke-opacity:0.1; fill:none" points="1644.95,1107.73 1644.95,47.2441 "/>
<polyline clip-path="url(#clip113)" style="stroke:#000000; stroke-linecap:round; stroke-linejoin:round; stroke-width:2; stroke-opacity:0.1; fill:none" points="1871.81,1107.73 1871.81,47.2441 "/>
<polyline clip-path="url(#clip113)" style="stroke:#000000; stroke-linecap:round; stroke-linejoin:round; stroke-width:2; stroke-opacity:0.1; fill:none" points="2098.67,1107.73 2098.67,47.2441 "/>
<polyline clip-path="url(#clip113)" style="stroke:#000000; stroke-linecap:round; stroke-linejoin:round; stroke-width:2; stroke-opacity:0.1; fill:none" points="2325.53,1107.73 2325.53,47.2441 "/>
<polyline clip-path="url(#clip110)" style="stroke:#000000; stroke-linecap:round; stroke-linejoin:round; stroke-width:4; stroke-opacity:1; fill:none" points="1390.87,1107.73 2352.76,1107.73 "/>
<polyline clip-path="url(#clip110)" style="stroke:#000000; stroke-linecap:round; stroke-linejoin:round; stroke-width:4; stroke-opacity:1; fill:none" points="1418.09,1107.73 1418.09,1088.83 "/>
<polyline clip-path="url(#clip110)" style="stroke:#000000; stroke-linecap:round; stroke-linejoin:round; stroke-width:4; stroke-opacity:1; fill:none" points="1644.95,1107.73 1644.95,1088.83 "/>
<polyline clip-path="url(#clip110)" style="stroke:#000000; stroke-linecap:round; stroke-linejoin:round; stroke-width:4; stroke-opacity:1; fill:none" points="1871.81,1107.73 1871.81,1088.83 "/>
<polyline clip-path="url(#clip110)" style="stroke:#000000; stroke-linecap:round; stroke-linejoin:round; stroke-width:4; stroke-opacity:1; fill:none" points="2098.67,1107.73 2098.67,1088.83 "/>
<polyline clip-path="url(#clip110)" style="stroke:#000000; stroke-linecap:round; stroke-linejoin:round; stroke-width:4; stroke-opacity:1; fill:none" points="2325.53,1107.73 2325.53,1088.83 "/>
<path clip-path="url(#clip110)" d="M1418.09 1148.25 Q1414.48 1148.25 1412.65 1151.81 Q1410.84 1155.35 1410.84 1162.48 Q1410.84 1169.59 1412.65 1173.15 Q1414.48 1176.7 1418.09 1176.7 Q1421.72 1176.7 1423.53 1173.15 Q1425.36 1169.59 1425.36 1162.48 Q1425.36 1155.35 1423.53 1151.81 Q1421.72 1148.25 1418.09 1148.25 M1418.09 1144.54 Q1423.9 1144.54 1426.96 1149.15 Q1430.03 1153.73 1430.03 1162.48 Q1430.03 1171.21 1426.96 1175.82 Q1423.9 1180.4 1418.09 1180.4 Q1412.28 1180.4 1409.2 1175.82 Q1406.15 1171.21 1406.15 1162.48 Q1406.15 1153.73 1409.2 1149.15 Q1412.28 1144.54 1418.09 1144.54 Z" fill="#000000" fill-rule="nonzero" fill-opacity="1" /><path clip-path="url(#clip110)" d="M1639.6 1175.79 L1655.92 1175.79 L1655.92 1179.73 L1633.98 1179.73 L1633.98 1175.79 Q1636.64 1173.04 1641.22 1168.41 Q1645.83 1163.76 1647.01 1162.41 Q1649.26 1159.89 1650.14 1158.15 Q1651.04 1156.39 1651.04 1154.7 Q1651.04 1151.95 1649.09 1150.21 Q1647.17 1148.48 1644.07 1148.48 Q1641.87 1148.48 1639.42 1149.24 Q1636.99 1150.01 1634.21 1151.56 L1634.21 1146.83 Q1637.03 1145.7 1639.49 1145.12 Q1641.94 1144.54 1643.98 1144.54 Q1649.35 1144.54 1652.54 1147.23 Q1655.74 1149.91 1655.74 1154.4 Q1655.74 1156.53 1654.93 1158.45 Q1654.14 1160.35 1652.03 1162.95 Q1651.46 1163.62 1648.35 1166.83 Q1645.25 1170.03 1639.6 1175.79 Z" fill="#000000" fill-rule="nonzero" fill-opacity="1" /><path clip-path="url(#clip110)" d="M1874.82 1149.24 L1863.02 1167.69 L1874.82 1167.69 L1874.82 1149.24 M1873.59 1145.17 L1879.47 1145.17 L1879.47 1167.69 L1884.4 1167.69 L1884.4 1171.58 L1879.47 1171.58 L1879.47 1179.73 L1874.82 1179.73 L1874.82 1171.58 L1859.22 1171.58 L1859.22 1167.07 L1873.59 1145.17 Z" fill="#000000" fill-rule="nonzero" fill-opacity="1" /><path clip-path="url(#clip110)" d="M2099.08 1160.58 Q2095.93 1160.58 2094.08 1162.74 Q2092.25 1164.89 2092.25 1168.64 Q2092.25 1172.37 2094.08 1174.54 Q2095.93 1176.7 2099.08 1176.7 Q2102.23 1176.7 2104.05 1174.54 Q2105.91 1172.37 2105.91 1168.64 Q2105.91 1164.89 2104.05 1162.74 Q2102.23 1160.58 2099.08 1160.58 M2108.36 1145.93 L2108.36 1150.19 Q2106.6 1149.36 2104.79 1148.92 Q2103.01 1148.48 2101.25 1148.48 Q2096.62 1148.48 2094.17 1151.6 Q2091.74 1154.73 2091.39 1161.05 Q2092.76 1159.03 2094.82 1157.97 Q2096.88 1156.88 2099.35 1156.88 Q2104.56 1156.88 2107.57 1160.05 Q2110.6 1163.2 2110.6 1168.64 Q2110.6 1173.96 2107.46 1177.18 Q2104.31 1180.4 2099.08 1180.4 Q2093.08 1180.4 2089.91 1175.82 Q2086.74 1171.21 2086.74 1162.48 Q2086.74 1154.29 2090.63 1149.43 Q2094.52 1144.54 2101.07 1144.54 Q2102.83 1144.54 2104.61 1144.89 Q2106.41 1145.24 2108.36 1145.93 Z" fill="#000000" fill-rule="nonzero" fill-opacity="1" /><path clip-path="url(#clip110)" d="M2325.53 1163.32 Q2322.2 1163.32 2320.28 1165.1 Q2318.38 1166.88 2318.38 1170.01 Q2318.38 1173.13 2320.28 1174.91 Q2322.2 1176.7 2325.53 1176.7 Q2328.87 1176.7 2330.79 1174.91 Q2332.71 1173.11 2332.71 1170.01 Q2332.71 1166.88 2330.79 1165.1 Q2328.89 1163.32 2325.53 1163.32 M2320.86 1161.33 Q2317.85 1160.58 2316.16 1158.52 Q2314.49 1156.46 2314.49 1153.5 Q2314.49 1149.36 2317.43 1146.95 Q2320.39 1144.54 2325.53 1144.54 Q2330.69 1144.54 2333.63 1146.95 Q2336.57 1149.36 2336.57 1153.5 Q2336.57 1156.46 2334.88 1158.52 Q2333.22 1160.58 2330.23 1161.33 Q2333.61 1162.11 2335.49 1164.4 Q2337.38 1166.7 2337.38 1170.01 Q2337.38 1175.03 2334.31 1177.71 Q2331.25 1180.4 2325.53 1180.4 Q2319.82 1180.4 2316.74 1177.71 Q2313.68 1175.03 2313.68 1170.01 Q2313.68 1166.7 2315.58 1164.4 Q2317.48 1162.11 2320.86 1161.33 M2319.14 1153.94 Q2319.14 1156.63 2320.81 1158.13 Q2322.5 1159.64 2325.53 1159.64 Q2328.54 1159.64 2330.23 1158.13 Q2331.94 1156.63 2331.94 1153.94 Q2331.94 1151.26 2330.23 1149.75 Q2328.54 1148.25 2325.53 1148.25 Q2322.5 1148.25 2320.81 1149.75 Q2319.14 1151.26 2319.14 1153.94 Z" fill="#000000" fill-rule="nonzero" fill-opacity="1" /><polyline clip-path="url(#clip113)" style="stroke:#000000; stroke-linecap:round; stroke-linejoin:round; stroke-width:2; stroke-opacity:0.1; fill:none" points="1390.87,1107.73 2352.76,1107.73 "/>
<polyline clip-path="url(#clip113)" style="stroke:#000000; stroke-linecap:round; stroke-linejoin:round; stroke-width:2; stroke-opacity:0.1; fill:none" points="1390.87,842.607 2352.76,842.607 "/>
<polyline clip-path="url(#clip113)" style="stroke:#000000; stroke-linecap:round; stroke-linejoin:round; stroke-width:2; stroke-opacity:0.1; fill:none" points="1390.87,577.486 2352.76,577.486 "/>
<polyline clip-path="url(#clip113)" style="stroke:#000000; stroke-linecap:round; stroke-linejoin:round; stroke-width:2; stroke-opacity:0.1; fill:none" points="1390.87,312.365 2352.76,312.365 "/>
<polyline clip-path="url(#clip113)" style="stroke:#000000; stroke-linecap:round; stroke-linejoin:round; stroke-width:2; stroke-opacity:0.1; fill:none" points="1390.87,47.2441 2352.76,47.2441 "/>
<polyline clip-path="url(#clip110)" style="stroke:#000000; stroke-linecap:round; stroke-linejoin:round; stroke-width:4; stroke-opacity:1; fill:none" points="1390.87,1107.73 1390.87,47.2441 "/>
<polyline clip-path="url(#clip110)" style="stroke:#000000; stroke-linecap:round; stroke-linejoin:round; stroke-width:4; stroke-opacity:1; fill:none" points="1390.87,1107.73 1409.76,1107.73 "/>
<polyline clip-path="url(#clip110)" style="stroke:#000000; stroke-linecap:round; stroke-linejoin:round; stroke-width:4; stroke-opacity:1; fill:none" points="1390.87,842.607 1409.76,842.607 "/>
<polyline clip-path="url(#clip110)" style="stroke:#000000; stroke-linecap:round; stroke-linejoin:round; stroke-width:4; stroke-opacity:1; fill:none" points="1390.87,577.486 1409.76,577.486 "/>
<polyline clip-path="url(#clip110)" style="stroke:#000000; stroke-linecap:round; stroke-linejoin:round; stroke-width:4; stroke-opacity:1; fill:none" points="1390.87,312.365 1409.76,312.365 "/>
<polyline clip-path="url(#clip110)" style="stroke:#000000; stroke-linecap:round; stroke-linejoin:round; stroke-width:4; stroke-opacity:1; fill:none" points="1390.87,47.2441 1409.76,47.2441 "/>
<path clip-path="url(#clip110)" d="M1244.99 1108.18 L1274.67 1108.18 L1274.67 1112.11 L1244.99 1112.11 L1244.99 1108.18 Z" fill="#000000" fill-rule="nonzero" fill-opacity="1" /><path clip-path="url(#clip110)" d="M1284.81 1090.45 L1303.16 1090.45 L1303.16 1094.38 L1289.09 1094.38 L1289.09 1102.86 Q1290.11 1102.51 1291.13 1102.35 Q1292.14 1102.16 1293.16 1102.16 Q1298.95 1102.16 1302.33 1105.33 Q1305.71 1108.5 1305.71 1113.92 Q1305.71 1119.5 1302.24 1122.6 Q1298.76 1125.68 1292.45 1125.68 Q1290.27 1125.68 1288 1125.31 Q1285.76 1124.94 1283.35 1124.2 L1283.35 1119.5 Q1285.43 1120.63 1287.65 1121.19 Q1289.88 1121.74 1292.35 1121.74 Q1296.36 1121.74 1298.7 1119.64 Q1301.03 1117.53 1301.03 1113.92 Q1301.03 1110.31 1298.7 1108.2 Q1296.36 1106.1 1292.35 1106.1 Q1290.48 1106.1 1288.6 1106.51 Q1286.75 1106.93 1284.81 1107.81 L1284.81 1090.45 Z" fill="#000000" fill-rule="nonzero" fill-opacity="1" /><path clip-path="url(#clip110)" d="M1324.92 1093.53 Q1321.31 1093.53 1319.48 1097.09 Q1317.68 1100.63 1317.68 1107.76 Q1317.68 1114.87 1319.48 1118.43 Q1321.31 1121.98 1324.92 1121.98 Q1328.56 1121.98 1330.36 1118.43 Q1332.19 1114.87 1332.19 1107.76 Q1332.19 1100.63 1330.36 1097.09 Q1328.56 1093.53 1324.92 1093.53 M1324.92 1089.82 Q1330.73 1089.82 1333.79 1094.43 Q1336.87 1099.01 1336.87 1107.76 Q1336.87 1116.49 1333.79 1121.1 Q1330.73 1125.68 1324.92 1125.68 Q1319.11 1125.68 1316.03 1121.1 Q1312.98 1116.49 1312.98 1107.76 Q1312.98 1099.01 1316.03 1094.43 Q1319.11 1089.82 1324.92 1089.82 Z" fill="#000000" fill-rule="nonzero" fill-opacity="1" /><path clip-path="url(#clip110)" d="M1324.92 828.406 Q1321.31 828.406 1319.48 831.97 Q1317.68 835.512 1317.68 842.642 Q1317.68 849.748 1319.48 853.313 Q1321.31 856.855 1324.92 856.855 Q1328.56 856.855 1330.36 853.313 Q1332.19 849.748 1332.19 842.642 Q1332.19 835.512 1330.36 831.97 Q1328.56 828.406 1324.92 828.406 M1324.92 824.702 Q1330.73 824.702 1333.79 829.308 Q1336.87 833.892 1336.87 842.642 Q1336.87 851.368 1333.79 855.975 Q1330.73 860.558 1324.92 860.558 Q1319.11 860.558 1316.03 855.975 Q1312.98 851.368 1312.98 842.642 Q1312.98 833.892 1316.03 829.308 Q1319.11 824.702 1324.92 824.702 Z" fill="#000000" fill-rule="nonzero" fill-opacity="1" /><path clip-path="url(#clip110)" d="M1284.81 560.206 L1303.16 560.206 L1303.16 564.141 L1289.09 564.141 L1289.09 572.613 Q1290.11 572.266 1291.13 572.104 Q1292.14 571.919 1293.16 571.919 Q1298.95 571.919 1302.33 575.09 Q1305.71 578.261 1305.71 583.678 Q1305.71 589.257 1302.24 592.359 Q1298.76 595.437 1292.45 595.437 Q1290.27 595.437 1288 595.067 Q1285.76 594.697 1283.35 593.956 L1283.35 589.257 Q1285.43 590.391 1287.65 590.947 Q1289.88 591.502 1292.35 591.502 Q1296.36 591.502 1298.7 589.396 Q1301.03 587.289 1301.03 583.678 Q1301.03 580.067 1298.7 577.961 Q1296.36 575.854 1292.35 575.854 Q1290.48 575.854 1288.6 576.271 Q1286.75 576.687 1284.81 577.567 L1284.81 560.206 Z" fill="#000000" fill-rule="nonzero" fill-opacity="1" /><path clip-path="url(#clip110)" d="M1324.92 563.285 Q1321.31 563.285 1319.48 566.849 Q1317.68 570.391 1317.68 577.521 Q1317.68 584.627 1319.48 588.192 Q1321.31 591.734 1324.92 591.734 Q1328.56 591.734 1330.36 588.192 Q1332.19 584.627 1332.19 577.521 Q1332.19 570.391 1330.36 566.849 Q1328.56 563.285 1324.92 563.285 M1324.92 559.581 Q1330.73 559.581 1333.79 564.187 Q1336.87 568.771 1336.87 577.521 Q1336.87 586.248 1333.79 590.854 Q1330.73 595.437 1324.92 595.437 Q1319.11 595.437 1316.03 590.854 Q1312.98 586.248 1312.98 577.521 Q1312.98 568.771 1316.03 564.187 Q1319.11 559.581 1324.92 559.581 Z" fill="#000000" fill-rule="nonzero" fill-opacity="1" /><path clip-path="url(#clip110)" d="M1255.41 325.71 L1263.05 325.71 L1263.05 299.344 L1254.74 301.011 L1254.74 296.752 L1263 295.085 L1267.68 295.085 L1267.68 325.71 L1275.32 325.71 L1275.32 329.645 L1255.41 329.645 L1255.41 325.71 Z" fill="#000000" fill-rule="nonzero" fill-opacity="1" /><path clip-path="url(#clip110)" d="M1294.76 298.164 Q1291.15 298.164 1289.32 301.729 Q1287.52 305.27 1287.52 312.4 Q1287.52 319.506 1289.32 323.071 Q1291.15 326.613 1294.76 326.613 Q1298.39 326.613 1300.2 323.071 Q1302.03 319.506 1302.03 312.4 Q1302.03 305.27 1300.2 301.729 Q1298.39 298.164 1294.76 298.164 M1294.76 294.46 Q1300.57 294.46 1303.63 299.066 Q1306.7 303.65 1306.7 312.4 Q1306.7 321.127 1303.63 325.733 Q1300.57 330.316 1294.76 330.316 Q1288.95 330.316 1285.87 325.733 Q1282.82 321.127 1282.82 312.4 Q1282.82 303.65 1285.87 299.066 Q1288.95 294.46 1294.76 294.46 Z" fill="#000000" fill-rule="nonzero" fill-opacity="1" /><path clip-path="url(#clip110)" d="M1324.92 298.164 Q1321.31 298.164 1319.48 301.729 Q1317.68 305.27 1317.68 312.4 Q1317.68 319.506 1319.48 323.071 Q1321.31 326.613 1324.92 326.613 Q1328.56 326.613 1330.36 323.071 Q1332.19 319.506 1332.19 312.4 Q1332.19 305.27 1330.36 301.729 Q1328.56 298.164 1324.92 298.164 M1324.92 294.46 Q1330.73 294.46 1333.79 299.066 Q1336.87 303.65 1336.87 312.4 Q1336.87 321.127 1333.79 325.733 Q1330.73 330.316 1324.92 330.316 Q1319.11 330.316 1316.03 325.733 Q1312.98 321.127 1312.98 312.4 Q1312.98 303.65 1316.03 299.066 Q1319.11 294.46 1324.92 294.46 Z" fill="#000000" fill-rule="nonzero" fill-opacity="1" /><path clip-path="url(#clip110)" d="M1255.41 60.5889 L1263.05 60.5889 L1263.05 34.2233 L1254.74 35.89 L1254.74 31.6308 L1263 29.9641 L1267.68 29.9641 L1267.68 60.5889 L1275.32 60.5889 L1275.32 64.5241 L1255.41 64.5241 L1255.41 60.5889 Z" fill="#000000" fill-rule="nonzero" fill-opacity="1" /><path clip-path="url(#clip110)" d="M1284.81 29.9641 L1303.16 29.9641 L1303.16 33.8993 L1289.09 33.8993 L1289.09 42.3714 Q1290.11 42.0242 1291.13 41.8622 Q1292.14 41.677 1293.16 41.677 Q1298.95 41.677 1302.33 44.8483 Q1305.71 48.0196 1305.71 53.4362 Q1305.71 59.0149 1302.24 62.1167 Q1298.76 65.1954 1292.45 65.1954 Q1290.27 65.1954 1288 64.825 Q1285.76 64.4547 1283.35 63.7139 L1283.35 59.0149 Q1285.43 60.1491 1287.65 60.7047 Q1289.88 61.2602 1292.35 61.2602 Q1296.36 61.2602 1298.7 59.1538 Q1301.03 57.0473 1301.03 53.4362 Q1301.03 49.8251 1298.7 47.7186 Q1296.36 45.6122 1292.35 45.6122 Q1290.48 45.6122 1288.6 46.0288 Q1286.75 46.4455 1284.81 47.3251 L1284.81 29.9641 Z" fill="#000000" fill-rule="nonzero" fill-opacity="1" /><path clip-path="url(#clip110)" d="M1324.92 33.0428 Q1321.31 33.0428 1319.48 36.6076 Q1317.68 40.1492 1317.68 47.2788 Q1317.68 54.3853 1319.48 57.9501 Q1321.31 61.4917 1324.92 61.4917 Q1328.56 61.4917 1330.36 57.9501 Q1332.19 54.3853 1332.19 47.2788 Q1332.19 40.1492 1330.36 36.6076 Q1328.56 33.0428 1324.92 33.0428 M1324.92 29.3391 Q1330.73 29.3391 1333.79 33.9456 Q1336.87 38.5289 1336.87 47.2788 Q1336.87 56.0056 1333.79 60.6121 Q1330.73 65.1954 1324.92 65.1954 Q1319.11 65.1954 1316.03 60.6121 Q1312.98 56.0056 1312.98 47.2788 Q1312.98 38.5289 1316.03 33.9456 Q1319.11 29.3391 1324.92 29.3391 Z" fill="#000000" fill-rule="nonzero" fill-opacity="1" /><polyline clip-path="url(#clip113)" style="stroke:#009af9; stroke-linecap:round; stroke-linejoin:round; stroke-width:8; stroke-opacity:1; fill:none" points="1418.09,778.978 1429.43,777.17 1440.78,775.966 1452.12,775.335 1463.46,775.245 1474.81,775.664 1486.15,776.56 1497.49,777.902 1508.83,779.657 1520.18,781.793 1531.52,784.28 1542.86,787.085 1554.21,790.177 1565.55,793.522 1576.89,797.091 1588.24,800.85 1599.58,804.769 1610.92,808.815 1622.26,812.956 1633.61,817.161 1644.95,821.397 1656.29,825.634 1667.64,829.839 1678.98,833.98 1690.32,838.026 1701.67,841.944 1713.01,845.704 1724.35,849.272 1735.69,852.618 1747.04,855.709 1758.38,858.514 1769.72,861.001 1781.07,863.138 1792.41,864.893 1803.75,866.235 1815.1,867.131 1826.44,867.55 1837.78,867.459 1849.13,866.828 1860.47,865.625 1871.81,863.817 1883.15,861.372 1894.5,858.26 1905.84,854.447 1917.18,849.903 1928.53,844.595 1939.87,838.492 1951.21,831.562 1962.56,823.773 1973.9,815.093 1985.24,805.49 1996.58,794.933 2007.93,783.39 2019.27,770.828 2030.61,757.217 2041.96,742.524 2053.3,726.717 2064.64,709.765 2075.99,691.636 2087.33,672.299 2098.67,651.72 2110.01,629.869 2121.36,606.713 2132.7,582.221 2144.04,556.361 2155.39,529.101 2166.73,500.41 2178.07,470.255 2189.42,438.605 2200.76,405.428 2212.1,370.692 2223.45,334.365 2234.79,296.415 2246.13,256.812 2257.47,215.522 2268.82,172.514 2280.16,127.756 2291.5,81.2167 2302.85,32.8639 2314.19,-17.3341 2325.53,-69.4091 "/>
<polyline clip-path="url(#clip113)" style="stroke:#e26f46; stroke-linecap:round; stroke-linejoin:round; stroke-width:8; stroke-opacity:1; fill:none" stroke-dasharray="32, 20" points="1418.09,736.559 1429.43,740.8 1440.78,745.042 1452.12,749.284 1463.46,753.526 1474.81,757.768 1486.15,762.01 1497.49,766.252 1508.83,770.494 1520.18,774.736 1531.52,778.978 1542.86,783.22 1554.21,787.462 1565.55,791.704 1576.89,795.946 1588.24,800.188 1599.58,804.43 1610.92,808.671 1622.26,812.913 1633.61,817.155 1644.95,821.397 1656.29,825.639 1667.64,829.881 1678.98,834.123 1690.32,838.365 1701.67,842.607 1713.01,846.849 1724.35,851.091 1735.69,855.333 1747.04,859.575 1758.38,863.817 1769.72,868.059 1781.07,872.3 1792.41,876.542 1803.75,880.784 1815.1,885.026 1826.44,889.268 1837.78,893.51 1849.13,897.752 1860.47,901.994 1871.81,906.236 1883.15,910.478 1894.5,914.72 1905.84,918.962 1917.18,923.204 1928.53,927.446 1939.87,931.688 1951.21,935.93 1962.56,940.171 1973.9,944.413 1985.24,948.655 1996.58,952.897 2007.93,957.139 2019.27,961.381 2030.61,965.623 2041.96,969.865 2053.3,974.107 2064.64,978.349 2075.99,982.591 2087.33,986.833 2098.67,991.075 2110.01,995.317 2121.36,999.559 2132.7,1003.8 2144.04,1008.04 2155.39,1012.28 2166.73,1016.53 2178.07,1020.77 2189.42,1025.01 2200.76,1029.25 2212.1,1033.49 2223.45,1037.74 2234.79,1041.98 2246.13,1046.22 2257.47,1050.46 2268.82,1054.7 2280.16,1058.95 2291.5,1063.19 2302.85,1067.43 2314.19,1071.67 2325.53,1075.91 "/>
<polyline clip-path="url(#clip113)" style="stroke:#3da44d; stroke-linecap:round; stroke-linejoin:round; stroke-width:8; stroke-opacity:1; fill:none" stroke-dasharray="32, 16, 4, 16" points="1418.09,736.559 1429.43,740.8 1440.78,745.042 1452.12,749.284 1463.46,753.526 1474.81,757.768 1486.15,762.01 1497.49,766.252 1508.83,770.494 1520.18,774.736 1531.52,778.978 1542.86,783.22 1554.21,787.462 1565.55,791.704 1576.89,795.946 1588.24,800.188 1599.58,804.43 1610.92,808.671 1622.26,812.913 1633.61,817.155 1644.95,821.397 1656.29,825.639 1667.64,829.881 1678.98,834.123 1690.32,838.365 1701.67,842.607 1713.01,846.849 1724.35,851.091 1735.69,855.333 1747.04,859.575 1758.38,863.817 1769.72,868.059 1781.07,872.3 1792.41,876.542 1803.75,880.784 1815.1,885.026 1826.44,889.268 1837.78,893.51 1849.13,897.752 1860.47,901.994 1871.81,906.236 1883.15,910.478 1894.5,914.72 1905.84,918.962 1917.18,923.204 1928.53,927.446 1939.87,931.688 1951.21,935.93 1962.56,940.171 1973.9,944.413 1985.24,948.655 1996.58,952.897 2007.93,957.139 2019.27,961.381 2030.61,965.623 2041.96,969.865 2053.3,974.107 2064.64,978.349 2075.99,982.591 2087.33,986.833 2098.67,991.075 2110.01,995.317 2121.36,999.559 2132.7,1003.8 2144.04,1008.04 2155.39,1012.28 2166.73,1016.53 2178.07,1020.77 2189.42,1025.01 2200.76,1029.25 2212.1,1033.49 2223.45,1037.74 2234.79,1041.98 2246.13,1046.22 2257.47,1050.46 2268.82,1054.7 2280.16,1058.95 2291.5,1063.19 2302.85,1067.43 2314.19,1071.67 2325.53,1075.91 "/>
<circle clip-path="url(#clip113)" cx="1644.95" cy="821.397" r="14.4" fill="#000000" fill-rule="evenodd" fill-opacity="1" stroke="none"/>
<path clip-path="url(#clip110)" d="M2590.87 1107.73 L3552.76 1107.73 L3552.76 47.2441 L2590.87 47.2441  Z" fill="#ffffff" fill-rule="evenodd" fill-opacity="1"/>
<defs>
  <clipPath id="clip114">
    <rect x="2590" y="47" width="963" height="1061"/>
  </clipPath>
</defs>
<polyline clip-path="url(#clip114)" style="stroke:#000000; stroke-linecap:round; stroke-linejoin:round; stroke-width:2; stroke-opacity:0.1; fill:none" points="2618.09,1107.73 2618.09,47.2441 "/>
<polyline clip-path="url(#clip114)" style="stroke:#000000; stroke-linecap:round; stroke-linejoin:round; stroke-width:2; stroke-opacity:0.1; fill:none" points="2844.95,1107.73 2844.95,47.2441 "/>
<polyline clip-path="url(#clip114)" style="stroke:#000000; stroke-linecap:round; stroke-linejoin:round; stroke-width:2; stroke-opacity:0.1; fill:none" points="3071.81,1107.73 3071.81,47.2441 "/>
<polyline clip-path="url(#clip114)" style="stroke:#000000; stroke-linecap:round; stroke-linejoin:round; stroke-width:2; stroke-opacity:0.1; fill:none" points="3298.67,1107.73 3298.67,47.2441 "/>
<polyline clip-path="url(#clip114)" style="stroke:#000000; stroke-linecap:round; stroke-linejoin:round; stroke-width:2; stroke-opacity:0.1; fill:none" points="3525.53,1107.73 3525.53,47.2441 "/>
<polyline clip-path="url(#clip110)" style="stroke:#000000; stroke-linecap:round; stroke-linejoin:round; stroke-width:4; stroke-opacity:1; fill:none" points="2590.87,1107.73 3552.76,1107.73 "/>
<polyline clip-path="url(#clip110)" style="stroke:#000000; stroke-linecap:round; stroke-linejoin:round; stroke-width:4; stroke-opacity:1; fill:none" points="2618.09,1107.73 2618.09,1088.83 "/>
<polyline clip-path="url(#clip110)" style="stroke:#000000; stroke-linecap:round; stroke-linejoin:round; stroke-width:4; stroke-opacity:1; fill:none" points="2844.95,1107.73 2844.95,1088.83 "/>
<polyline clip-path="url(#clip110)" style="stroke:#000000; stroke-linecap:round; stroke-linejoin:round; stroke-width:4; stroke-opacity:1; fill:none" points="3071.81,1107.73 3071.81,1088.83 "/>
<polyline clip-path="url(#clip110)" style="stroke:#000000; stroke-linecap:round; stroke-linejoin:round; stroke-width:4; stroke-opacity:1; fill:none" points="3298.67,1107.73 3298.67,1088.83 "/>
<polyline clip-path="url(#clip110)" style="stroke:#000000; stroke-linecap:round; stroke-linejoin:round; stroke-width:4; stroke-opacity:1; fill:none" points="3525.53,1107.73 3525.53,1088.83 "/>
<path clip-path="url(#clip110)" d="M2618.09 1148.25 Q2614.48 1148.25 2612.65 1151.81 Q2610.84 1155.35 2610.84 1162.48 Q2610.84 1169.59 2612.65 1173.15 Q2614.48 1176.7 2618.09 1176.7 Q2621.72 1176.7 2623.53 1173.15 Q2625.36 1169.59 2625.36 1162.48 Q2625.36 1155.35 2623.53 1151.81 Q2621.72 1148.25 2618.09 1148.25 M2618.09 1144.54 Q2623.9 1144.54 2626.96 1149.15 Q2630.03 1153.73 2630.03 1162.48 Q2630.03 1171.21 2626.96 1175.82 Q2623.9 1180.4 2618.09 1180.4 Q2612.28 1180.4 2609.2 1175.82 Q2606.15 1171.21 2606.15 1162.48 Q2606.15 1153.73 2609.2 1149.15 Q2612.28 1144.54 2618.09 1144.54 Z" fill="#000000" fill-rule="nonzero" fill-opacity="1" /><path clip-path="url(#clip110)" d="M2839.6 1175.79 L2855.92 1175.79 L2855.92 1179.73 L2833.98 1179.73 L2833.98 1175.79 Q2836.64 1173.04 2841.22 1168.41 Q2845.83 1163.76 2847.01 1162.41 Q2849.26 1159.89 2850.14 1158.15 Q2851.04 1156.39 2851.04 1154.7 Q2851.04 1151.95 2849.09 1150.21 Q2847.17 1148.48 2844.07 1148.48 Q2841.87 1148.48 2839.42 1149.24 Q2836.99 1150.01 2834.21 1151.56 L2834.21 1146.83 Q2837.03 1145.7 2839.49 1145.12 Q2841.94 1144.54 2843.98 1144.54 Q2849.35 1144.54 2852.54 1147.23 Q2855.74 1149.91 2855.74 1154.4 Q2855.74 1156.53 2854.93 1158.45 Q2854.14 1160.35 2852.03 1162.95 Q2851.46 1163.62 2848.35 1166.83 Q2845.25 1170.03 2839.6 1175.79 Z" fill="#000000" fill-rule="nonzero" fill-opacity="1" /><path clip-path="url(#clip110)" d="M3074.82 1149.24 L3063.02 1167.69 L3074.82 1167.69 L3074.82 1149.24 M3073.59 1145.17 L3079.47 1145.17 L3079.47 1167.69 L3084.4 1167.69 L3084.4 1171.58 L3079.47 1171.58 L3079.47 1179.73 L3074.82 1179.73 L3074.82 1171.58 L3059.22 1171.58 L3059.22 1167.07 L3073.59 1145.17 Z" fill="#000000" fill-rule="nonzero" fill-opacity="1" /><path clip-path="url(#clip110)" d="M3299.08 1160.58 Q3295.93 1160.58 3294.08 1162.74 Q3292.25 1164.89 3292.25 1168.64 Q3292.25 1172.37 3294.08 1174.54 Q3295.93 1176.7 3299.08 1176.7 Q3302.23 1176.7 3304.05 1174.54 Q3305.91 1172.37 3305.91 1168.64 Q3305.91 1164.89 3304.05 1162.74 Q3302.23 1160.58 3299.08 1160.58 M3308.36 1145.93 L3308.36 1150.19 Q3306.6 1149.36 3304.79 1148.92 Q3303.01 1148.48 3301.25 1148.48 Q3296.62 1148.48 3294.17 1151.6 Q3291.74 1154.73 3291.39 1161.05 Q3292.76 1159.03 3294.82 1157.97 Q3296.88 1156.88 3299.35 1156.88 Q3304.56 1156.88 3307.57 1160.05 Q3310.6 1163.2 3310.6 1168.64 Q3310.6 1173.96 3307.46 1177.18 Q3304.31 1180.4 3299.08 1180.4 Q3293.08 1180.4 3289.91 1175.82 Q3286.74 1171.21 3286.74 1162.48 Q3286.74 1154.29 3290.63 1149.43 Q3294.52 1144.54 3301.07 1144.54 Q3302.83 1144.54 3304.61 1144.89 Q3306.41 1145.24 3308.36 1145.93 Z" fill="#000000" fill-rule="nonzero" fill-opacity="1" /><path clip-path="url(#clip110)" d="M3525.53 1163.32 Q3522.2 1163.32 3520.28 1165.1 Q3518.38 1166.88 3518.38 1170.01 Q3518.38 1173.13 3520.28 1174.91 Q3522.2 1176.7 3525.53 1176.7 Q3528.87 1176.7 3530.79 1174.91 Q3532.71 1173.11 3532.71 1170.01 Q3532.71 1166.88 3530.79 1165.1 Q3528.89 1163.32 3525.53 1163.32 M3520.86 1161.33 Q3517.85 1160.58 3516.16 1158.52 Q3514.49 1156.46 3514.49 1153.5 Q3514.49 1149.36 3517.43 1146.95 Q3520.39 1144.54 3525.53 1144.54 Q3530.69 1144.54 3533.63 1146.95 Q3536.57 1149.36 3536.57 1153.5 Q3536.57 1156.46 3534.88 1158.52 Q3533.22 1160.58 3530.23 1161.33 Q3533.61 1162.11 3535.49 1164.4 Q3537.38 1166.7 3537.38 1170.01 Q3537.38 1175.03 3534.31 1177.71 Q3531.25 1180.4 3525.53 1180.4 Q3519.82 1180.4 3516.74 1177.71 Q3513.68 1175.03 3513.68 1170.01 Q3513.68 1166.7 3515.58 1164.4 Q3517.48 1162.11 3520.86 1161.33 M3519.14 1153.94 Q3519.14 1156.63 3520.81 1158.13 Q3522.5 1159.64 3525.53 1159.64 Q3528.54 1159.64 3530.23 1158.13 Q3531.94 1156.63 3531.94 1153.94 Q3531.94 1151.26 3530.23 1149.75 Q3528.54 1148.25 3525.53 1148.25 Q3522.5 1148.25 3520.81 1149.75 Q3519.14 1151.26 3519.14 1153.94 Z" fill="#000000" fill-rule="nonzero" fill-opacity="1" /><polyline clip-path="url(#clip114)" style="stroke:#000000; stroke-linecap:round; stroke-linejoin:round; stroke-width:2; stroke-opacity:0.1; fill:none" points="2590.87,1107.73 3552.76,1107.73 "/>
<polyline clip-path="url(#clip114)" style="stroke:#000000; stroke-linecap:round; stroke-linejoin:round; stroke-width:2; stroke-opacity:0.1; fill:none" points="2590.87,842.607 3552.76,842.607 "/>
<polyline clip-path="url(#clip114)" style="stroke:#000000; stroke-linecap:round; stroke-linejoin:round; stroke-width:2; stroke-opacity:0.1; fill:none" points="2590.87,577.486 3552.76,577.486 "/>
<polyline clip-path="url(#clip114)" style="stroke:#000000; stroke-linecap:round; stroke-linejoin:round; stroke-width:2; stroke-opacity:0.1; fill:none" points="2590.87,312.365 3552.76,312.365 "/>
<polyline clip-path="url(#clip114)" style="stroke:#000000; stroke-linecap:round; stroke-linejoin:round; stroke-width:2; stroke-opacity:0.1; fill:none" points="2590.87,47.2441 3552.76,47.2441 "/>
<polyline clip-path="url(#clip110)" style="stroke:#000000; stroke-linecap:round; stroke-linejoin:round; stroke-width:4; stroke-opacity:1; fill:none" points="2590.87,1107.73 2590.87,47.2441 "/>
<polyline clip-path="url(#clip110)" style="stroke:#000000; stroke-linecap:round; stroke-linejoin:round; stroke-width:4; stroke-opacity:1; fill:none" points="2590.87,1107.73 2609.76,1107.73 "/>
<polyline clip-path="url(#clip110)" style="stroke:#000000; stroke-linecap:round; stroke-linejoin:round; stroke-width:4; stroke-opacity:1; fill:none" points="2590.87,842.607 2609.76,842.607 "/>
<polyline clip-path="url(#clip110)" style="stroke:#000000; stroke-linecap:round; stroke-linejoin:round; stroke-width:4; stroke-opacity:1; fill:none" points="2590.87,577.486 2609.76,577.486 "/>
<polyline clip-path="url(#clip110)" style="stroke:#000000; stroke-linecap:round; stroke-linejoin:round; stroke-width:4; stroke-opacity:1; fill:none" points="2590.87,312.365 2609.76,312.365 "/>
<polyline clip-path="url(#clip110)" style="stroke:#000000; stroke-linecap:round; stroke-linejoin:round; stroke-width:4; stroke-opacity:1; fill:none" points="2590.87,47.2441 2609.76,47.2441 "/>
<path clip-path="url(#clip110)" d="M2444.99 1108.18 L2474.67 1108.18 L2474.67 1112.11 L2444.99 1112.11 L2444.99 1108.18 Z" fill="#000000" fill-rule="nonzero" fill-opacity="1" /><path clip-path="url(#clip110)" d="M2484.81 1090.45 L2503.16 1090.45 L2503.16 1094.38 L2489.09 1094.38 L2489.09 1102.86 Q2490.11 1102.51 2491.13 1102.35 Q2492.14 1102.16 2493.16 1102.16 Q2498.95 1102.16 2502.33 1105.33 Q2505.71 1108.5 2505.71 1113.92 Q2505.71 1119.5 2502.24 1122.6 Q2498.76 1125.68 2492.45 1125.68 Q2490.27 1125.68 2488 1125.31 Q2485.76 1124.94 2483.35 1124.2 L2483.35 1119.5 Q2485.43 1120.63 2487.65 1121.19 Q2489.88 1121.74 2492.35 1121.74 Q2496.36 1121.74 2498.7 1119.64 Q2501.03 1117.53 2501.03 1113.92 Q2501.03 1110.31 2498.7 1108.2 Q2496.36 1106.1 2492.35 1106.1 Q2490.48 1106.1 2488.6 1106.51 Q2486.75 1106.93 2484.81 1107.81 L2484.81 1090.45 Z" fill="#000000" fill-rule="nonzero" fill-opacity="1" /><path clip-path="url(#clip110)" d="M2524.92 1093.53 Q2521.31 1093.53 2519.48 1097.09 Q2517.68 1100.63 2517.68 1107.76 Q2517.68 1114.87 2519.48 1118.43 Q2521.31 1121.98 2524.92 1121.98 Q2528.56 1121.98 2530.36 1118.43 Q2532.19 1114.87 2532.19 1107.76 Q2532.19 1100.63 2530.36 1097.09 Q2528.56 1093.53 2524.92 1093.53 M2524.92 1089.82 Q2530.73 1089.82 2533.79 1094.43 Q2536.87 1099.01 2536.87 1107.76 Q2536.87 1116.49 2533.79 1121.1 Q2530.73 1125.68 2524.92 1125.68 Q2519.11 1125.68 2516.03 1121.1 Q2512.98 1116.49 2512.98 1107.76 Q2512.98 1099.01 2516.03 1094.43 Q2519.11 1089.82 2524.92 1089.82 Z" fill="#000000" fill-rule="nonzero" fill-opacity="1" /><path clip-path="url(#clip110)" d="M2524.92 828.406 Q2521.31 828.406 2519.48 831.97 Q2517.68 835.512 2517.68 842.642 Q2517.68 849.748 2519.48 853.313 Q2521.31 856.855 2524.92 856.855 Q2528.56 856.855 2530.36 853.313 Q2532.19 849.748 2532.19 842.642 Q2532.19 835.512 2530.36 831.97 Q2528.56 828.406 2524.92 828.406 M2524.92 824.702 Q2530.73 824.702 2533.79 829.308 Q2536.87 833.892 2536.87 842.642 Q2536.87 851.368 2533.79 855.975 Q2530.73 860.558 2524.92 860.558 Q2519.11 860.558 2516.03 855.975 Q2512.98 851.368 2512.98 842.642 Q2512.98 833.892 2516.03 829.308 Q2519.11 824.702 2524.92 824.702 Z" fill="#000000" fill-rule="nonzero" fill-opacity="1" /><path clip-path="url(#clip110)" d="M2484.81 560.206 L2503.16 560.206 L2503.16 564.141 L2489.09 564.141 L2489.09 572.613 Q2490.11 572.266 2491.13 572.104 Q2492.14 571.919 2493.16 571.919 Q2498.95 571.919 2502.33 575.09 Q2505.71 578.261 2505.71 583.678 Q2505.71 589.257 2502.24 592.359 Q2498.76 595.437 2492.45 595.437 Q2490.27 595.437 2488 595.067 Q2485.76 594.697 2483.35 593.956 L2483.35 589.257 Q2485.43 590.391 2487.65 590.947 Q2489.88 591.502 2492.35 591.502 Q2496.36 591.502 2498.7 589.396 Q2501.03 587.289 2501.03 583.678 Q2501.03 580.067 2498.7 577.961 Q2496.36 575.854 2492.35 575.854 Q2490.48 575.854 2488.6 576.271 Q2486.75 576.687 2484.81 577.567 L2484.81 560.206 Z" fill="#000000" fill-rule="nonzero" fill-opacity="1" /><path clip-path="url(#clip110)" d="M2524.92 563.285 Q2521.31 563.285 2519.48 566.849 Q2517.68 570.391 2517.68 577.521 Q2517.68 584.627 2519.48 588.192 Q2521.31 591.734 2524.92 591.734 Q2528.56 591.734 2530.36 588.192 Q2532.19 584.627 2532.19 577.521 Q2532.19 570.391 2530.36 566.849 Q2528.56 563.285 2524.92 563.285 M2524.92 559.581 Q2530.73 559.581 2533.79 564.187 Q2536.87 568.771 2536.87 577.521 Q2536.87 586.248 2533.79 590.854 Q2530.73 595.437 2524.92 595.437 Q2519.11 595.437 2516.03 590.854 Q2512.98 586.248 2512.98 577.521 Q2512.98 568.771 2516.03 564.187 Q2519.11 559.581 2524.92 559.581 Z" fill="#000000" fill-rule="nonzero" fill-opacity="1" /><path clip-path="url(#clip110)" d="M2455.41 325.71 L2463.05 325.71 L2463.05 299.344 L2454.74 301.011 L2454.74 296.752 L2463 295.085 L2467.68 295.085 L2467.68 325.71 L2475.32 325.71 L2475.32 329.645 L2455.41 329.645 L2455.41 325.71 Z" fill="#000000" fill-rule="nonzero" fill-opacity="1" /><path clip-path="url(#clip110)" d="M2494.76 298.164 Q2491.15 298.164 2489.32 301.729 Q2487.52 305.27 2487.52 312.4 Q2487.52 319.506 2489.32 323.071 Q2491.15 326.613 2494.76 326.613 Q2498.39 326.613 2500.2 323.071 Q2502.03 319.506 2502.03 312.4 Q2502.03 305.27 2500.2 301.729 Q2498.39 298.164 2494.76 298.164 M2494.76 294.46 Q2500.57 294.46 2503.63 299.066 Q2506.7 303.65 2506.7 312.4 Q2506.7 321.127 2503.63 325.733 Q2500.57 330.316 2494.76 330.316 Q2488.95 330.316 2485.87 325.733 Q2482.82 321.127 2482.82 312.4 Q2482.82 303.65 2485.87 299.066 Q2488.95 294.46 2494.76 294.46 Z" fill="#000000" fill-rule="nonzero" fill-opacity="1" /><path clip-path="url(#clip110)" d="M2524.92 298.164 Q2521.31 298.164 2519.48 301.729 Q2517.68 305.27 2517.68 312.4 Q2517.68 319.506 2519.48 323.071 Q2521.31 326.613 2524.92 326.613 Q2528.56 326.613 2530.36 323.071 Q2532.19 319.506 2532.19 312.4 Q2532.19 305.27 2530.36 301.729 Q2528.56 298.164 2524.92 298.164 M2524.92 294.46 Q2530.73 294.46 2533.79 299.066 Q2536.87 303.65 2536.87 312.4 Q2536.87 321.127 2533.79 325.733 Q2530.73 330.316 2524.92 330.316 Q2519.11 330.316 2516.03 325.733 Q2512.98 321.127 2512.98 312.4 Q2512.98 303.65 2516.03 299.066 Q2519.11 294.46 2524.92 294.46 Z" fill="#000000" fill-rule="nonzero" fill-opacity="1" /><path clip-path="url(#clip110)" d="M2455.41 60.5889 L2463.05 60.5889 L2463.05 34.2233 L2454.74 35.89 L2454.74 31.6308 L2463 29.9641 L2467.68 29.9641 L2467.68 60.5889 L2475.32 60.5889 L2475.32 64.5241 L2455.41 64.5241 L2455.41 60.5889 Z" fill="#000000" fill-rule="nonzero" fill-opacity="1" /><path clip-path="url(#clip110)" d="M2484.81 29.9641 L2503.16 29.9641 L2503.16 33.8993 L2489.09 33.8993 L2489.09 42.3714 Q2490.11 42.0242 2491.13 41.8622 Q2492.14 41.677 2493.16 41.677 Q2498.95 41.677 2502.33 44.8483 Q2505.71 48.0196 2505.71 53.4362 Q2505.71 59.0149 2502.24 62.1167 Q2498.76 65.1954 2492.45 65.1954 Q2490.27 65.1954 2488 64.825 Q2485.76 64.4547 2483.35 63.7139 L2483.35 59.0149 Q2485.43 60.1491 2487.65 60.7047 Q2489.88 61.2602 2492.35 61.2602 Q2496.36 61.2602 2498.7 59.1538 Q2501.03 57.0473 2501.03 53.4362 Q2501.03 49.8251 2498.7 47.7186 Q2496.36 45.6122 2492.35 45.6122 Q2490.48 45.6122 2488.6 46.0288 Q2486.75 46.4455 2484.81 47.3251 L2484.81 29.9641 Z" fill="#000000" fill-rule="nonzero" fill-opacity="1" /><path clip-path="url(#clip110)" d="M2524.92 33.0428 Q2521.31 33.0428 2519.48 36.6076 Q2517.68 40.1492 2517.68 47.2788 Q2517.68 54.3853 2519.48 57.9501 Q2521.31 61.4917 2524.92 61.4917 Q2528.56 61.4917 2530.36 57.9501 Q2532.19 54.3853 2532.19 47.2788 Q2532.19 40.1492 2530.36 36.6076 Q2528.56 33.0428 2524.92 33.0428 M2524.92 29.3391 Q2530.73 29.3391 2533.79 33.9456 Q2536.87 38.5289 2536.87 47.2788 Q2536.87 56.0056 2533.79 60.6121 Q2530.73 65.1954 2524.92 65.1954 Q2519.11 65.1954 2516.03 60.6121 Q2512.98 56.0056 2512.98 47.2788 Q2512.98 38.5289 2516.03 33.9456 Q2519.11 29.3391 2524.92 29.3391 Z" fill="#000000" fill-rule="nonzero" fill-opacity="1" /><polyline clip-path="url(#clip114)" style="stroke:#009af9; stroke-linecap:round; stroke-linejoin:round; stroke-width:8; stroke-opacity:1; fill:none" points="2618.09,778.978 2629.43,777.17 2640.78,775.966 2652.12,775.335 2663.46,775.245 2674.81,775.664 2686.15,776.56 2697.49,777.902 2708.83,779.657 2720.18,781.793 2731.52,784.28 2742.86,787.085 2754.21,790.177 2765.55,793.522 2776.89,797.091 2788.24,800.85 2799.58,804.769 2810.92,808.815 2822.26,812.956 2833.61,817.161 2844.95,821.397 2856.29,825.634 2867.64,829.839 2878.98,833.98 2890.32,838.026 2901.67,841.944 2913.01,845.704 2924.35,849.272 2935.69,852.618 2947.04,855.709 2958.38,858.514 2969.72,861.001 2981.07,863.138 2992.41,864.893 3003.75,866.235 3015.1,867.131 3026.44,867.55 3037.78,867.459 3049.13,866.828 3060.47,865.625 3071.81,863.817 3083.15,861.372 3094.5,858.26 3105.84,854.447 3117.18,849.903 3128.53,844.595 3139.87,838.492 3151.21,831.562 3162.56,823.773 3173.9,815.093 3185.24,805.49 3196.58,794.933 3207.93,783.39 3219.27,770.828 3230.61,757.217 3241.96,742.524 3253.3,726.717 3264.64,709.765 3275.99,691.636 3287.33,672.299 3298.67,651.72 3310.01,629.869 3321.36,606.713 3332.7,582.221 3344.04,556.361 3355.39,529.101 3366.73,500.41 3378.07,470.255 3389.42,438.605 3400.76,405.428 3412.1,370.692 3423.45,334.365 3434.79,296.415 3446.13,256.812 3457.47,215.522 3468.82,172.514 3480.16,127.756 3491.5,81.2167 3502.85,32.8639 3514.19,-17.3341 3525.53,-69.4091 "/>
<polyline clip-path="url(#clip114)" style="stroke:#e26f46; stroke-linecap:round; stroke-linejoin:round; stroke-width:8; stroke-opacity:1; fill:none" stroke-dasharray="32, 20" points="2618.09,948.655 2629.43,946.534 2640.78,944.413 2652.12,942.292 2663.46,940.171 2674.81,938.05 2686.15,935.93 2697.49,933.809 2708.83,931.688 2720.18,929.567 2731.52,927.446 2742.86,925.325 2754.21,923.204 2765.55,921.083 2776.89,918.962 2788.24,916.841 2799.58,914.72 2810.92,912.599 2822.26,910.478 2833.61,908.357 2844.95,906.236 2856.29,904.115 2867.64,901.994 2878.98,899.873 2890.32,897.752 2901.67,895.631 2913.01,893.51 2924.35,891.389 2935.69,889.268 2947.04,887.147 2958.38,885.026 2969.72,882.905 2981.07,880.784 2992.41,878.663 3003.75,876.542 3015.1,874.421 3026.44,872.3 3037.78,870.18 3049.13,868.059 3060.47,865.938 3071.81,863.817 3083.15,861.696 3094.5,859.575 3105.84,857.454 3117.18,855.333 3128.53,853.212 3139.87,851.091 3151.21,848.97 3162.56,846.849 3173.9,844.728 3185.24,842.607 3196.58,840.486 3207.93,838.365 3219.27,836.244 3230.61,834.123 3241.96,832.002 3253.3,829.881 3264.64,827.76 3275.99,825.639 3287.33,823.518 3298.67,821.397 3310.01,819.276 3321.36,817.155 3332.7,815.034 3344.04,812.913 3355.39,810.792 3366.73,808.671 3378.07,806.55 3389.42,804.43 3400.76,802.309 3412.1,800.188 3423.45,798.067 3434.79,795.946 3446.13,793.825 3457.47,791.704 3468.82,789.583 3480.16,787.462 3491.5,785.341 3502.85,783.22 3514.19,781.099 3525.53,778.978 "/>
<polyline clip-path="url(#clip114)" style="stroke:#3da44d; stroke-linecap:round; stroke-linejoin:round; stroke-width:8; stroke-opacity:1; fill:none" stroke-dasharray="32, 16, 4, 16" points="2618.09,439.623 2629.43,462.636 2640.78,485.012 2652.12,506.752 2663.46,527.855 2674.81,548.323 2686.15,568.154 2697.49,587.348 2708.83,605.907 2720.18,623.829 2731.52,641.115 2742.86,657.765 2754.21,673.778 2765.55,689.155 2776.89,703.896 2788.24,718 2799.58,731.468 2810.92,744.3 2822.26,756.496 2833.61,768.055 2844.95,778.978 2856.29,789.265 2867.64,798.915 2878.98,807.929 2890.32,816.307 2901.67,824.048 2913.01,831.154 2924.35,837.623 2935.69,843.455 2947.04,848.652 2958.38,853.212 2969.72,857.136 2981.07,860.423 2992.41,863.074 3003.75,865.089 3015.1,866.468 3026.44,867.21 3037.78,867.316 3049.13,866.786 3060.47,865.619 3071.81,863.817 3083.15,861.377 3094.5,858.302 3105.84,854.59 3117.18,850.242 3128.53,845.258 3139.87,839.638 3151.21,833.381 3162.56,826.488 3173.9,818.958 3185.24,810.792 3196.58,801.99 3207.93,792.552 3219.27,782.477 3230.61,771.767 3241.96,760.419 3253.3,748.436 3264.64,735.816 3275.99,722.56 3287.33,708.668 3298.67,694.139 3310.01,678.974 3321.36,663.173 3332.7,646.736 3344.04,629.662 3355.39,611.952 3366.73,593.605 3378.07,574.623 3389.42,555.004 3400.76,534.748 3412.1,513.857 3423.45,492.329 3434.79,470.165 3446.13,447.365 3457.47,423.928 3468.82,399.855 3480.16,375.146 3491.5,349.8 3502.85,323.818 3514.19,297.2 3525.53,269.946 "/>
<circle clip-path="url(#clip114)" cx="3071.81" cy="863.817" r="14.4" fill="#000000" fill-rule="evenodd" fill-opacity="1" stroke="none"/>
</svg>
